<svg width="99" height="93" viewBox="0 0 99 93" fill="none" xmlns="http://www.w3.org/2000/svg">
<path opacity="0.5" d="M21.4476 11.5425C11.8438 14.2503 -3.03108 25.0816 0.543229 36.6349C1.62635 40.1009 3.68429 43.1697 5.16456 46.4913C9.24433 55.5896 7.47523 63.7131 4.69521 72.7391C2.49285 79.9239 3.86481 85.881 11.194 89.0582C22.0613 93.7878 73.1126 95.6652 94.9196 81.1513C105.57 74.0749 91.3813 60.2831 96.6887 46.4191C109.47 13.1672 59.5736 0.819582 21.4476 11.5425Z" fill="#E9E9E9"/>
<path d="M76.6508 85.3755H40.0773C37.2611 85.3755 34.9866 83.101 34.9866 80.2848V6.09073C34.9866 3.2746 37.2611 1 40.0773 1H76.6508C79.4669 1 81.7415 3.2746 81.7415 6.09073V80.2848C81.7054 83.101 79.4308 85.3755 76.6508 85.3755Z" stroke="#403D56" stroke-width="0.274" stroke-miterlimit="10"/>
<path d="M74.5569 81.5849H42.1354C39.3193 81.5849 37.0447 79.3103 37.0447 76.4942V9.80978C37.0447 6.99365 39.3193 4.71906 42.1354 4.71906H74.5569C77.3731 4.71906 79.6476 6.99365 79.6476 9.80978V76.4942C79.6476 79.3103 77.3731 81.5849 74.5569 81.5849Z" stroke="#403D56" stroke-width="0.274" stroke-miterlimit="10"/>
<path opacity="0.07" d="M79.6475 87.4688H36.3947C35.817 87.4688 35.3477 86.9995 35.3477 86.4218C35.3477 85.8442 35.817 85.3748 36.3947 85.3748H79.6475C80.2251 85.3748 80.6945 85.8442 80.6945 86.4218C80.6945 86.9995 80.2251 87.4688 79.6475 87.4688Z" fill="black"/>
<path d="M55.7104 31.0027H41.4854V39.09H55.7104V31.0027Z" fill="#1C558A"/>
<path opacity="0.2" d="M75.3868 31.0027H61.1617V39.09H75.3868V31.0027Z" fill="#5A5773"/>
<path opacity="0.2" d="M55.7104 42.5564H41.4854V50.6437H55.7104V42.5564Z" fill="#5A5773"/>
<path opacity="0.2" d="M75.3868 42.5564H61.1617V50.6437H75.3868V42.5564Z" fill="#5A5773"/>
<path opacity="0.2" d="M55.7103 19.2684H41.4852V27.3557H55.7103V19.2684Z" fill="#5A5773"/>
<path opacity="0.2" d="M75.3868 19.2686H61.1617V27.3559H75.3868V19.2686Z" fill="#5A5773"/>
<path opacity="0.2" d="M55.7104 54.1091H41.4854V62.1964H55.7104V54.1091Z" fill="#5A5773"/>
<path opacity="0.2" d="M75.3868 54.1091H61.1617V62.1964H75.3868V54.1091Z" fill="#5A5773"/>
<path d="M72.7869 89.4909L72.0648 89.6352C72.1731 89.202 76.1446 82.5228 81.3075 80.7537C83.4015 80.0677 85.2429 78.6957 86.4704 76.8905C87.0481 76.024 87.5896 75.0853 88.0229 74.1104L88.5283 74.3271C88.0951 75.3019 87.5535 76.2767 86.9397 77.1793C85.64 79.0567 83.6904 80.537 81.488 81.2591C76.5418 82.9921 72.823 89.4186 72.7869 89.4909Z" fill="#545562"/>
<path d="M91.4891 73.1357C90.9114 73.7133 88.2036 74.291 88.2036 74.291C88.2036 74.291 88.8896 71.5832 89.4312 71.0416C89.9727 70.5001 90.9475 70.5001 91.5252 71.0778C92.1029 71.6554 92.0668 72.558 91.4891 73.1357Z" fill="#079D49"/>
<path d="M89.9725 78.0458C89.1782 78.1902 86.5787 77.2154 86.5787 77.2154C86.5787 77.2154 88.6006 75.3019 89.3949 75.1575C90.1891 75.013 90.9474 75.5185 91.1279 76.3128C91.2723 77.071 90.7668 77.8653 89.9725 78.0458Z" fill="#079D49"/>
<path d="M84.3404 83.3173C83.5822 83.0284 81.8492 80.8983 81.8492 80.8983C81.8492 80.8983 84.557 80.2845 85.3152 80.5373C86.0734 80.79 86.5067 81.6204 86.254 82.4147C86.0012 83.209 85.1708 83.6061 84.3765 83.3534C84.4126 83.3173 84.3765 83.3173 84.3404 83.3173Z" fill="#079D49"/>
<path d="M79.2498 86.35C78.4555 86.2416 76.3615 84.4003 76.3615 84.4003C76.3615 84.4003 78.9248 83.3172 79.7191 83.4616C80.5134 83.5699 81.0911 84.3281 80.9467 85.1585C80.8384 85.9528 80.0802 86.5304 79.2498 86.386C79.2498 86.3499 79.2498 86.35 79.2498 86.35Z" fill="#079D49"/>
<path d="M84.3047 75.0861C84.3047 75.9164 85.785 78.2631 85.785 78.2631C85.785 78.2631 87.2652 75.9164 87.2652 75.0861C87.2652 74.2557 86.5792 73.6057 85.785 73.6057C84.9546 73.6057 84.3047 74.2918 84.3047 75.0861Z" fill="#079D49"/>
<path d="M78.3469 78.732C78.5997 79.4902 80.6937 81.2955 80.6937 81.2955C80.6937 81.2955 81.3797 78.6237 81.127 77.8294C80.8742 77.0712 80.0438 76.6019 79.2856 76.8546C78.5274 77.1435 78.0942 77.9377 78.3469 78.732Z" fill="#079D49"/>
<path d="M73.0402 83.0283C73.1486 83.8226 74.9177 85.9888 74.9177 85.9888C74.9177 85.9888 76.073 83.4615 75.9647 82.6672C75.8564 81.873 75.1343 81.2953 74.3039 81.4036C73.4735 81.5119 72.9319 82.234 73.0402 83.0283Z" fill="#079D49"/>
<g opacity="0.15">
<path opacity="0.15" d="M91.4891 73.1357C90.9114 73.7133 88.2036 74.291 88.2036 74.291C88.2036 74.291 88.8896 71.5832 89.4312 71.0416C89.9727 70.5001 90.9475 70.5001 91.5252 71.0778C92.1029 71.6554 92.0668 72.558 91.4891 73.1357Z" fill="#010101"/>
</g>
<g opacity="0.15">
<path opacity="0.15" d="M89.9725 78.0458C89.1782 78.1902 86.5787 77.2154 86.5787 77.2154C86.5787 77.2154 88.6006 75.3019 89.3949 75.1575C90.1891 75.013 90.9474 75.5185 91.1279 76.3128C91.2723 77.071 90.7668 77.8653 89.9725 78.0458Z" fill="#010101"/>
</g>
<g opacity="0.15">
<path opacity="0.15" d="M84.3404 83.3173C83.5822 83.0284 81.8492 80.8983 81.8492 80.8983C81.8492 80.8983 84.557 80.2845 85.3152 80.5373C86.0734 80.79 86.5067 81.6204 86.254 82.4147C86.0012 83.209 85.1708 83.6061 84.3765 83.3534C84.4126 83.3173 84.3765 83.3173 84.3404 83.3173Z" fill="#010101"/>
</g>
<g opacity="0.15">
<path opacity="0.15" d="M79.2498 86.35C78.4555 86.2416 76.3615 84.4003 76.3615 84.4003C76.3615 84.4003 78.9248 83.3172 79.7191 83.4616C80.5134 83.5699 81.0911 84.3281 80.9467 85.1585C80.8384 85.9528 80.0802 86.5304 79.2498 86.386C79.2498 86.3499 79.2498 86.35 79.2498 86.35Z" fill="#010101"/>
</g>
<g opacity="0.15">
<path opacity="0.15" d="M84.3047 75.0861C84.3047 75.9164 85.785 78.2631 85.785 78.2631C85.785 78.2631 87.2652 75.9164 87.2652 75.0861C87.2652 74.2557 86.5792 73.6057 85.785 73.6057C84.9546 73.6057 84.3047 74.2918 84.3047 75.0861Z" fill="#010101"/>
</g>
<g opacity="0.15">
<path opacity="0.15" d="M78.3469 78.732C78.5997 79.4902 80.6937 81.2955 80.6937 81.2955C80.6937 81.2955 81.3797 78.6237 81.127 77.8294C80.8742 77.0712 80.0438 76.6019 79.2856 76.8546C78.5274 77.1435 78.0942 77.9377 78.3469 78.732Z" fill="#010101"/>
</g>
<g opacity="0.15">
<path opacity="0.15" d="M73.0402 83.0283C73.1486 83.8226 74.9177 85.9888 74.9177 85.9888C74.9177 85.9888 76.073 83.4615 75.9647 82.6672C75.8564 81.873 75.1343 81.2953 74.3039 81.4036C73.4735 81.5119 72.9319 82.234 73.0402 83.0283Z" fill="#010101"/>
</g>
<path d="M73.365 89.347L72.7151 89.4914C72.7512 89.2025 73.5094 81.6207 77.5169 77.938C79.1416 76.4578 80.2609 74.472 80.658 72.3057C80.8385 71.2587 80.9468 70.2117 80.9468 69.1647H81.5245C81.5245 70.2478 81.4162 71.331 81.2357 72.4141C80.8024 74.6886 79.611 76.7827 77.9141 78.3352C74.087 81.8734 73.365 89.2748 73.365 89.347Z" fill="#545562"/>
<path d="M83.7629 66.8533C83.4741 67.6115 81.1995 69.2361 81.1995 69.2361C81.1995 69.2361 80.7302 66.4922 81.019 65.734C81.3078 64.9758 82.1743 64.5787 82.8964 64.8676C83.6546 65.1564 84.0517 66.0229 83.7629 66.745C83.7629 66.7811 83.7629 66.8172 83.7629 66.8533Z" fill="#079D49"/>
<path d="M84.3412 71.9085C83.6553 72.3778 80.8752 72.5222 80.8752 72.5222C80.8752 72.5222 81.9584 69.9588 82.6082 69.4895C83.2942 69.0201 84.1968 69.2007 84.6662 69.8505C85.1355 70.5365 84.9911 71.4391 84.3412 71.9085Z" fill="#079D49"/>
<path d="M81.3439 78.9846C80.5135 79.0568 78.0585 77.7932 78.0585 77.7932C78.0585 77.7932 80.2969 76.1324 81.0912 76.0602C81.9216 75.988 82.6076 76.6018 82.6798 77.3961C82.752 78.2265 82.1743 78.9485 81.3439 78.9846Z" fill="#079D49"/>
<path d="M77.9138 83.8583C77.1195 84.0388 74.4839 83.2446 74.4839 83.2446C74.4839 83.2446 76.3974 81.2228 77.1917 81.0423C77.986 80.8256 78.7803 81.2949 78.9969 82.0531C79.2135 82.8474 78.7442 83.6417 77.986 83.8583C77.9138 83.8583 77.9138 83.8583 77.9138 83.8583Z" fill="#079D49"/>
<path d="M77.9861 71.5111C78.311 72.2693 80.6217 73.8218 80.6217 73.8218C80.6217 73.8218 81.0189 71.0778 80.6578 70.3197C80.2968 69.5615 79.4303 69.2365 78.7082 69.5976C77.9861 69.9586 77.6612 70.8251 77.9861 71.5111Z" fill="#079D49"/>
<path d="M74.0148 77.2517C74.5564 77.8654 77.2281 78.6597 77.2281 78.6597C77.2281 78.6597 76.7948 75.9158 76.2533 75.302C75.7478 74.6882 74.773 74.616 74.1592 75.1215C73.5455 75.6269 73.4733 76.6018 73.9787 77.2155C73.9787 77.2516 73.9787 77.2517 74.0148 77.2517Z" fill="#079D49"/>
<path d="M70.9096 83.3537C71.3429 84.0397 73.798 85.3033 73.798 85.3033C73.798 85.3033 73.8341 82.5233 73.4008 81.8374C72.9676 81.1514 72.065 80.9347 71.379 81.368C70.6569 81.7651 70.4764 82.6677 70.9096 83.3537Z" fill="#079D49"/>
<path d="M24.913 77.0353C24.913 77.0353 21.086 71.3669 19.6418 69.4534C19.2447 68.9119 16.7174 66.4207 16.7174 66.4207C16.7174 66.4207 15.3815 66.3124 14.5511 66.4207C13.9735 66.4929 12.6737 67.7204 12.6737 67.7204C12.6737 67.7204 15.2371 71.5475 16.573 72.7389C18.3421 74.3275 22.9634 78.8405 22.9634 78.8405C22.9634 78.8405 25.4546 79.0932 24.913 77.0353Z" fill="#E0A67A"/>
<path d="M33.6504 75.5911C33.6143 75.4106 33.5782 75.2662 33.542 75.0857C33.4337 74.6885 33.2893 74.2914 33.1088 73.8942C32.8922 73.461 32.6033 73.0277 32.2784 72.7028C31.9535 72.3778 31.5563 72.1251 31.1231 71.9807C30.4371 71.728 29.6789 71.8002 28.9207 71.8724C25.0575 72.2695 20.0752 73.9303 16.4287 75.4106C15.9954 77.7574 16.4648 79.2016 17.6923 81.2234C18.0533 81.8372 18.7393 82.1982 19.1365 82.8119C20.3279 84.6533 20.689 86.8195 21.1944 88.8775C21.3749 89.7079 21.5916 90.5743 21.6638 91.4408C22.1331 91.513 22.6386 91.5491 23.144 91.6213C25.4547 91.8741 27.982 92.0907 30.6537 92.2712C32.0618 86.2057 33.8309 76.7464 33.6504 75.5911Z" fill="#4C495E"/>
<path opacity="0.1" d="M33.6504 75.5911C33.6143 75.4106 33.5782 75.2662 33.542 75.0857C33.4337 74.6885 33.2893 74.2914 33.1088 73.8942C32.8922 73.461 32.6033 73.0277 32.2784 72.7028C31.9535 72.3778 31.5563 72.1251 31.1231 71.9807C30.4371 71.728 29.6789 71.8002 28.9207 71.8724C25.0575 72.2695 20.0752 73.9303 16.4287 75.4106C15.9954 77.7574 16.4648 79.2016 17.6923 81.2234C18.0533 81.8372 18.7393 82.1982 19.1365 82.8119C20.3279 84.6533 20.689 86.8195 21.1944 88.8775C21.3749 89.7079 21.5916 90.5743 21.6638 91.4408C22.1331 91.513 22.6386 91.5491 23.144 91.6213C25.4547 91.8741 27.982 92.0907 30.6537 92.2712C32.0618 86.2057 33.8309 76.7464 33.6504 75.5911Z" fill="black"/>
<path d="M33.5422 75.086C33.4339 74.6527 33.2895 74.2555 33.109 73.8945C32.8924 73.4613 32.6035 73.028 32.2786 72.703C31.8453 72.4503 31.3399 72.5225 30.5817 73.0641C27.4406 73.0641 24.3357 73.4251 21.3029 74.2194C20.8336 74.3277 20.292 74.5082 20.0754 75.0137C20.0393 75.122 20.0032 75.1942 20.0032 75.3025C20.0032 75.483 20.0032 75.6997 20.0032 75.8802C20.0393 76.7828 20.1837 77.6494 20.4003 78.5159C20.653 79.3824 21.1224 80.1766 21.8084 80.6821C22.1694 80.9348 22.5666 81.1153 22.8554 81.4402C23.5053 82.2706 22.9637 83.5343 23.1803 84.5813C23.2525 84.8701 23.3609 85.159 23.4331 85.4478C23.5775 86.0616 23.6136 86.6753 23.5775 87.2891C23.5414 88.3722 23.5775 89.5276 23.5775 90.6108C23.3247 90.8996 23.2164 91.2606 23.1803 91.6216C25.491 91.8743 28.0183 92.091 30.69 92.2715C31.1594 92.3076 31.6648 92.3076 32.1703 92.3437C32.5313 90.2857 32.8923 88.2639 33.2534 86.206C33.3617 85.5922 33.4339 85.0145 33.4339 84.4008C33.47 83.3898 34.0477 76.6023 33.5422 75.086Z" fill="#4C495E"/>
<path fill-rule="evenodd" clip-rule="evenodd" d="M15.3459 53.82C15.3459 53.82 16.429 59.0551 16.5373 60.9686C16.6456 62.8822 16.7179 65.2289 16.754 65.626C17.0789 69.5253 13.6129 68.4422 12.8547 67.8284C12.0965 67.2147 11.4466 54.8309 11.4105 54.0367C11.3744 53.2424 14.0461 51.8704 15.3459 53.82Z" fill="#E0A67A"/>
<path d="M26.8991 40.2452C26.9352 41.0756 27.1879 41.8698 27.2601 42.7002C25.491 44.4693 22.1333 44.1444 20.0032 42.0143C20.6892 41.581 21.0502 40.7867 21.2307 40.0285C21.4834 39.0176 21.5917 38.0067 21.4834 36.9597C21.4834 36.8875 21.4834 36.8514 21.4473 36.7792C21.3751 36.382 21.1224 35.8043 21.1946 35.4794C21.2668 35.0461 21.664 35.1545 22.025 35.1545C23.1081 35.2267 24.1912 35.3711 25.2744 35.5877C25.5632 35.6238 28.271 36.3098 28.3071 36.2376C27.8378 36.9958 27.4406 37.8262 27.1157 38.6566C26.9713 39.162 26.8991 39.7036 26.8991 40.2452Z" fill="#E0A67A"/>
<path d="M50.7999 37.3927C50.5833 37.6815 50.3305 37.9343 50.0417 38.1509C49.8612 38.2953 49.6807 38.4397 49.4641 38.5842C49.103 38.873 48.7059 39.0174 48.2365 39.0896C47.6588 39.1257 46.4313 38.8008 46.0703 38.2953C45.9258 38.0426 45.8536 37.7537 45.8536 37.4649C45.8536 37.0678 45.9258 36.6706 46.0703 36.3096C46.2869 35.6958 46.6118 35.1182 47.009 34.6127C47.4422 34.035 47.9116 33.4574 48.5254 33.0963C48.742 32.988 48.9586 32.8797 49.1752 32.8075C49.5363 32.6631 49.9334 32.4825 50.2944 32.3381C50.3667 32.302 50.4389 32.302 50.5111 32.2659C50.7999 32.2659 50.8721 32.7353 50.6916 32.988C50.3306 33.4935 49.5724 33.6379 49.3557 34.2155C49.7168 34.2155 50.0417 34.4683 50.15 34.8294C50.15 34.9377 50.1861 35.0099 50.2584 35.0821C50.3667 35.1543 50.5111 35.1182 50.6194 35.1904C50.836 35.2987 50.7277 35.5875 50.7638 35.8402C50.7999 36.0207 50.8721 36.2374 50.9804 36.4179C51.0887 36.7067 51.0165 37.1039 50.7999 37.3927Z" fill="#E0A67A"/>
<path d="M25.7795 38.6923C28.8901 38.6923 31.4117 36.1706 31.4117 33.06C31.4117 29.9494 28.8901 27.4278 25.7795 27.4278C22.6689 27.4278 20.1472 29.9494 20.1472 33.06C20.1472 36.1706 22.6689 38.6923 25.7795 38.6923Z" fill="#E0A67A"/>
<path d="M45.9623 37.935C45.9623 37.935 42.8212 44.0005 41.8464 46.2029C41.5576 46.8166 40.7633 49.741 40.7633 49.741C40.7633 49.741 41.1604 51.3297 41.9547 51.6185C42.6768 51.9073 43.9405 51.7268 44.4098 51.6185C44.5181 51.6185 44.5903 51.5463 44.6264 51.438C44.8792 50.752 45.9262 47.8998 46.1789 47.286C47.0093 45.0475 48.4535 38.7654 48.4535 38.7654C48.4535 38.7654 47.5148 36.4547 45.9623 37.935Z" fill="#E0A67A"/>
<path d="M30.9789 29.4857C31.3038 29.1246 30.8705 27.3555 30.329 26.7778C29.7874 26.2002 29.2098 26.5251 26.863 25.4059C24.5162 24.2866 22.025 26.0918 22.025 26.0918C21.7362 25.6947 19.6061 26.5251 19.2811 27.2111C18.9562 27.9332 17.8731 31.5797 18.559 33.2766C19.245 34.9735 20.6892 37.0675 20.7614 37.6813C20.7614 37.6813 20.978 38.9088 21.6279 38.9088C22.2778 38.9088 23.9386 39.3782 24.5162 39.3782C25.0939 39.3782 27.0796 39.1976 27.91 38.3672C28.3794 37.8979 30.3651 35.0457 30.3651 35.0457C30.3651 35.0457 31.2316 33.6377 31.1955 32.8434C31.1955 32.0852 31.6287 31.6519 31.6287 31.2909C31.6648 30.4966 30.6539 29.8106 30.9789 29.4857Z" fill="#2F2E41"/>
<path fill-rule="evenodd" clip-rule="evenodd" d="M32.4591 45.7328C32.4591 45.7328 37.9831 45.6245 39.8244 46.2021C41.6657 46.7437 43.9041 47.4657 44.2652 47.574C44.6262 47.6823 44.6262 51.2205 43.7958 51.726C42.9654 52.2315 32.6035 50.1014 31.8454 49.8847C31.1233 49.632 30.1846 46.3104 32.4591 45.7328Z" fill="#E0A67A"/>
<path d="M19.9304 41.1833C19.9304 41.1833 22.6021 43.7467 26.5374 41.9054C26.5374 41.9054 32.5307 43.2774 33.6861 44.4689C34.8414 45.6242 34.011 51.9786 33.65 52.8812C33.2889 53.7838 32.0975 61.7628 33.0723 64.0735C34.0471 66.3841 33.2528 65.9508 33.2528 67.4311C33.2528 68.9113 34.0471 69.0558 33.6861 69.4168C33.325 69.7778 34.2998 73.5327 34.2998 75.1213C34.2998 75.1213 32.7112 75.735 29.6424 75.735C26.6096 75.735 24.0824 74.3992 21.6273 75.6628C19.6776 76.6738 17.1864 76.9265 16.2838 76.9987C16.1033 76.9987 15.9589 76.8543 15.9589 76.6738C15.995 76.0239 16.1033 74.652 16.1033 74.1826C16.1033 73.5328 15.4535 72.1246 15.5979 71.3303C15.7062 70.7166 15.9228 68.1171 15.995 67.5755C16.0311 67.4311 15.9589 67.2867 15.8506 67.1784C15.4174 66.8173 15.2007 66.2758 15.2007 65.7342C15.2007 63.3152 15.1285 56.3832 14.0454 52.7728C12.7095 48.332 12.0958 45.5159 12.7817 44.6494C12.7817 44.5411 15.8506 42.0137 19.9304 41.1833Z" fill="#006747"/>
<path d="M32.4235 43.7116C32.4235 43.7116 38.1279 44.9752 39.3916 45.2641C40.6552 45.5529 41.3773 45.7334 41.3773 45.7334C41.3773 45.7334 43.8324 49.5605 42.1716 52.846C42.1716 52.846 36.6476 54.0374 33.4344 53.6042C33.4344 53.6042 34.1204 48.4412 32.4235 43.7116Z" fill="#006747"/>
<path d="M12.7822 44.5415C12.7822 44.5415 10.5437 49.6683 10.5437 56.7808C10.5437 56.7808 13.5764 58.5138 16.537 56.7808C16.537 56.7808 17.6923 48.874 16.0676 45.2636C16.0676 45.2636 15.3456 43.3501 12.7822 44.5415Z" fill="#006747"/>
</svg>
