<svg xmlns="http://www.w3.org/2000/svg" xmlns:xlink="http://www.w3.org/1999/xlink" viewBox="0 0 250 250"><defs><style>.cls-1{isolation:isolate;}.cls-2{fill:url(#linear-gradient);}.cls-3{fill:#164a96;}.cls-4{fill:#e6edff;}.cls-5{fill:#ffbba4;}.cls-6{fill:#242f65;}.cls-13,.cls-7{fill:#ff9e7b;}.cls-7{opacity:0.33;}.cls-8{fill:url(#linear-gradient-2);}.cls-9{fill:#ad95ff;}.cls-24,.cls-25,.cls-9{opacity:0.14;mix-blend-mode:multiply;}.cls-10{fill:#000069;}.cls-11{fill:#00004c;}.cls-12{fill:#f9f9f9;}.cls-14{fill:#d23546;}.cls-15{fill:#ffeef7;}.cls-16{fill:#f84455;}.cls-17,.cls-22,.cls-28,.cls-29,.cls-33{fill:none;stroke-linecap:round;}.cls-17{stroke:#f87e64;stroke-width:1.04px;}.cls-17,.cls-22,.cls-28,.cls-29{stroke-linejoin:round;}.cls-18{fill:url(#linear-gradient-3);}.cls-19{fill:url(#linear-gradient-4);}.cls-20{fill:url(#linear-gradient-5);}.cls-21{fill:#846aff;}.cls-22{stroke:#ff9e7b;stroke-width:0.61px;}.cls-23{fill:url(#linear-gradient-6);}.cls-24{fill:url(#linear-gradient-7);}.cls-25{fill:url(#linear-gradient-8);}.cls-26{fill:url(#linear-gradient-9);}.cls-27{fill:url(#linear-gradient-10);}.cls-28{stroke:#e4edfd;}.cls-28,.cls-29{stroke-width:3px;}.cls-29{stroke:#bbb2ff;}.cls-30{fill:#e4edfd;}.cls-31{fill:#bbb2ff;}.cls-32{fill:url(#linear-gradient-11);}.cls-33{stroke:#e6edff;stroke-miterlimit:10;stroke-width:2px;}.cls-34{fill:url(#linear-gradient-12);}</style><linearGradient id="linear-gradient" x1="125.43" y1="233.62" x2="125.43" y2="27.88" gradientUnits="userSpaceOnUse"><stop offset="0" stop-color="#cbe0f2"/><stop offset="1" stop-color="#bdd7f0" stop-opacity="0"/></linearGradient><linearGradient id="linear-gradient-2" x1="118.32" y1="151.71" x2="163.53" y2="151.71" gradientUnits="userSpaceOnUse"><stop offset="0" stop-color="#ff6355"/><stop offset="1" stop-color="#ed1c24"/></linearGradient><linearGradient id="linear-gradient-3" x1="155.33" y1="160.97" x2="176.16" y2="160.97" xlink:href="#linear-gradient-2"/><linearGradient id="linear-gradient-4" x1="183.05" y1="162.05" x2="217.76" y2="162.05" xlink:href="#linear-gradient-2"/><linearGradient id="linear-gradient-5" x1="183.05" y1="174.91" x2="217.76" y2="174.91" xlink:href="#linear-gradient-2"/><linearGradient id="linear-gradient-6" x1="249.9" y1="155.42" x2="188.49" y2="151.95" xlink:href="#linear-gradient-2"/><linearGradient id="linear-gradient-7" x1="249.17" y1="168.38" x2="187.76" y2="164.91" xlink:href="#linear-gradient-2"/><linearGradient id="linear-gradient-8" x1="248.96" y1="172.17" x2="187.55" y2="168.71" xlink:href="#linear-gradient-2"/><linearGradient id="linear-gradient-9" x1="132.66" y1="205.96" x2="165.37" y2="205.96" xlink:href="#linear-gradient-2"/><linearGradient id="linear-gradient-10" x1="164.8" y1="205.96" x2="186.5" y2="205.96" xlink:href="#linear-gradient-2"/><linearGradient id="linear-gradient-11" x1="97.34" y1="124.77" x2="144.21" y2="124.77" xlink:href="#linear-gradient-2"/><linearGradient id="linear-gradient-12" x1="94.55" y1="185.76" x2="122.42" y2="185.76" gradientUnits="userSpaceOnUse"><stop offset="0.17" stop-color="#f9fafb"/><stop offset="0.56" stop-color="#f7f9fa"/><stop offset="0.74" stop-color="#eff4f8"/><stop offset="0.89" stop-color="#e2ebf4"/><stop offset="1" stop-color="#d1e0ef"/></linearGradient></defs><title>24-7 customer services-</title><g class="cls-1"><g id="Layer_1" data-name="Layer 1"><path class="cls-2" d="M4.57,133.34S-.68,73.92,73.69,43.62,186.21,31.07,209.32,60.68s2.78,64.05,12,76.7,71.2,100.09-22.28,87.77-173.26,36.65-180.79-18S-6.73,176.11,4.57,133.34Z"/><rect class="cls-3" x="24.71" y="76.04" width="54.23" height="34.17" rx="10.93"/><path class="cls-4" d="M36.44,97.51v-.09c0-1.77.77-3.07,3.16-4.56,1.53-1,1.94-1.21,1.94-2s-.34-1.15-1.37-1.15-1.38.6-1.51,1.43H36.48C36.62,89.32,38,88,40.24,88s3.54,1.21,3.54,2.88c0,1.39-.57,2.06-2.49,3.17a5.63,5.63,0,0,0-2.1,1.67h5l-.28,1.77Z"/><path class="cls-4" d="M50,97.51v-2H45.24V93.64l4.28-5.43h2.57v5.48h1.29l-.18,1.8H52.09v2Zm0-5.27c0-.53,0-1.54,0-2-.39.59-1.2,1.72-2.55,3.47H50Z"/><path class="cls-4" d="M54.34,98.22l4.41-10.48h2L56.32,98.22Z"/><path class="cls-4" d="M68.84,88.21v1.72a19.49,19.49,0,0,0-3.48,7.58H62.89A17.18,17.18,0,0,1,66.52,90h-5V88.21Z"/><path class="cls-5" d="M124.24,171.36s-6.72,1-9.25,1.52-13.24,9.77-12.29,10.42,5.61,3,8.44,2.11,2.29-3,6.24-2.66,8.62-3.4,8.62-3.4l26-13.89L148.22,156Z"/><path class="cls-6" d="M181.36,93.46c-2.73,5.71-3.39,13.71,1.08,15.85s12.36-2.39,15.09-8.1S198.86,89.14,194.4,87,184.09,87.75,181.36,93.46Z"/><path class="cls-5" d="M178.92,108.85s2,8.85-5.93,11.34l-2.05,12.92,20.49,1.27L193,117.82a52.34,52.34,0,0,1-2.15-16.37Z"/><path class="cls-7" d="M193,117.82s-.95,8.93-15.09,12.71H193s1.92-9.14,0-12.71"/><path class="cls-8" d="M162.58,159.44l.95-36.26s-4.58.79-7.73,7.89-9.46,21.6-9.46,21.6l-28,18.24,8.08,9.32C132.8,177,155.33,170.85,162.58,159.44Z"/><path class="cls-9" d="M126.4,180.23c6.4-3.24,28.93-9.38,36.18-20.79l.58-22.21c-1.77,6.26-3.82,12.48-7.48,17.83-4.1,6-10,10.59-16.39,14.07-1.7,1.7-5.44,2.72-7.64,3.65-2.6,1.1-5.24,2.1-7.9,3.07a8.19,8.19,0,0,1-.92.26Z"/><polygon class="cls-10" points="206.51 187.69 209.67 209.55 161.16 209.55 159.46 185.02 206.51 187.69"/><path class="cls-11" d="M159.46,189.46l1.15,12.13s7.64-8.74,9.52-16.57Z"/><path class="cls-11" d="M189,190.47s4.58,12.66,20.24,16.35l-1.47-10.13Z"/><polygon class="cls-11" points="181.97 196.69 184.15 209.55 181.44 209.55 181.97 196.69"/><path class="cls-12" d="M161.16,186.56s10.75,5.35,39.31,3.54c-.14-1-7.46-66.92-7.46-66.92a13.46,13.46,0,0,1-11.57,5.91c-8.17,0-8.83-6.41-8.83-6.41s-12.17,51.4-11.45,63.38"/><path class="cls-9" d="M200.47,190.1c-.07-.5-2-17.85-3.89-34.76-13,3.84-26.25,1.39-31.11.23-2.5,12.64-4.62,25.29-4.31,30.49v.5S171.91,191.91,200.47,190.1Z"/><path class="cls-6" d="M158.77,86.74c.91,6.27,4.73,9.62,9.71,9.62s9-4.79,9-10.71-4-10.7-9-10.7C161.77,75,157.93,80.89,158.77,86.74Z"/><ellipse class="cls-6" cx="198.41" cy="79.23" rx="10.78" ry="11.88"/><ellipse class="cls-6" cx="200.72" cy="90.66" rx="3.93" ry="3.63"/><path class="cls-13" d="M190.11,104.24l-11,6.3a10.86,10.86,0,0,1-1.13,5.73C180.63,115.36,187.63,113.35,190.11,104.24Z"/><path class="cls-5" d="M191.85,99.76c-1.85,6-5.74,15.21-16.4,15.21-8.47,0-17-19.32-10.08-33,2.69-5.28,8.52-8.72,23.68-1.34C193.4,82.72,191.85,99.76,191.85,99.76Z"/><path class="cls-13" d="M166.46,79.76s2,13.88,19.75,9.69l-1-6.76Z"/><path class="cls-6" d="M189.05,80.11s-9.1,7.12,1.19,15.44C197.91,101.74,203.57,80.48,189.05,80.11Z"/><path class="cls-5" d="M188.36,101.18a5.15,5.15,0,1,0-.05-6.93A4.91,4.91,0,0,0,188.36,101.18Z"/><path class="cls-6" d="M174.7,95c0,.62.4,1.1.81,1.08s.73-.54.69-1.16-.39-1.1-.81-1.07S174.67,94.38,174.7,95Z"/><path class="cls-6" d="M166.33,95.94c0,.62.4,1.1.81,1.08s.73-.54.69-1.16-.39-1.1-.81-1.07S166.3,95.33,166.33,95.94Z"/><path class="cls-14" d="M174.49,107.94a3.75,3.75,0,0,1-3.59-1.62,6.31,6.31,0,0,1-.77-1.08s3.16.18,6.88-3.08C177,102.16,178.43,107.05,174.49,107.94Z"/><path class="cls-15" d="M177,102.16a6.5,6.5,0,0,1-6.11,4.16,6.31,6.31,0,0,1-.77-1.08S173.29,105.42,177,102.16Z"/><path class="cls-15" d="M177,102.16a6.5,6.5,0,0,1-6.11,4.16,6.31,6.31,0,0,1-.77-1.08S173.29,105.42,177,102.16Z"/><path class="cls-16" d="M174.49,107.94a3.23,3.23,0,0,0,2.59-2.45,4.22,4.22,0,0,0-4.72,2.1A3,3,0,0,0,174.49,107.94Z"/><path class="cls-17" d="M170.89,95.18a8.83,8.83,0,0,1-2.41,5.34A5.14,5.14,0,0,0,171,102"/><path class="cls-6" d="M177.92,93.12a.7.7,0,0,1-.54-.26,3,3,0,0,0-2.81-1,.7.7,0,0,1-.82-.56.69.69,0,0,1,.56-.82A4.38,4.38,0,0,1,178.47,92a.7.7,0,0,1-.11,1A.71.71,0,0,1,177.92,93.12Z"/><path class="cls-6" d="M165.08,92.55a.65.65,0,0,1-.38-.11.7.7,0,0,1-.21-1,3.44,3.44,0,0,1,3.82-1.37.7.7,0,0,1-.42,1.34,2,2,0,0,0-2.22.8A.72.72,0,0,1,165.08,92.55Z"/><path class="cls-17" d="M192.5,94.64a3.71,3.71,0,0,0-2.5,2.08"/><path class="cls-6" d="M165.74,76.36s.35,17.63,22.08,12l10.27.47c1-9,1.1-6.64-2.93-11.72C185.72,65.25,168.76,67.6,165.74,76.36Z"/><path class="cls-18" d="M176.16,118.51l-12.63,4.67s-5.05,16.56-6.78,20.66,4.1,18.29,5,23.8-6.62,18.61-6.46,35.79c0,0,6.19-7,12.23-14.92s6.22-23.55,3.38-33.95S176.16,118.51,176.16,118.51Z"/><path class="cls-19" d="M193,117.82s-8.51,20.34-8.67,33.74-11.07,45.13,33.42,54.71c0,0-9.61-30.9-9.14-46.51s4.26-34.53,4.26-34.53Z"/><path class="cls-20" d="M184,156.58c-1.54,15.08-5.83,41.17,33.77,49.69,0,0-9.61-30.9-9.14-46.51,0-1.7.14-3.45.26-5.2l-3.59-11C203.81,158.73,186.68,157.69,184,156.58Z"/><path class="cls-9" d="M183.21,164.78c-.13,2-.2,4.13-.14,6.27l.08.18s8,3.76,15.78,7.8,17.41,26.8,17.47,26.93l1.36.31s-6.06-19.48-8.32-35.32Z"/><path class="cls-9" d="M167.56,188.51c5.67-7.39,6.17-21.61,3.88-31.93-5.7.95-12,1-14.53-6.78l1.24,5c1.38,4.87,3.16,10,3.64,12.83,1,5.52-6.62,18.61-6.46,35.79C155.33,203.43,161.52,196.39,167.56,188.51Z"/><path class="cls-21" d="M159.54,145.47l17.79,3.64a3,3,0,0,1,2.36,2.4L183.9,174a3,3,0,0,1-3.93,3.41l-12.74-4.29a3,3,0,0,1-1.82-1.68l-9.25-21.86A3,3,0,0,1,159.54,145.47Z"/><path class="cls-3" d="M158,145.47l17.79,3.64a3,3,0,0,1,2.36,2.4L182.34,174a3,3,0,0,1-3.93,3.41l-12.75-4.29a3,3,0,0,1-1.82-1.68l-9.25-21.86A3,3,0,0,1,158,145.47Z"/><path class="cls-5" d="M186,170s-7.38.57-9.14.05-3.93-4.14-4.75-5.29.19-1.46.19-1.46a12.69,12.69,0,0,1-1.21-1.11c-.76-.76.57-1.38.57-1.38a.76.76,0,0,1-.29-1.09c.32-.45,1.09-.27,1.09-.27-.46-.33-.46-1.51,1.47-1.06a34.49,34.49,0,0,1,4.67,1.61l2.75.25-.79-4.25s5,2.08,7.39,5.65l8.79,3.6s1,6.11-.89,9.87C195.81,175.15,187.92,170.27,186,170Z"/><path class="cls-13" d="M189,169.88c-2.27-.74-1.84-.72-8.24-.26-5.18.38-6.68-2-7.32-2.77,1,1.38,2.25,2.9,3.34,3.23,1.76.52,9.14-.05,9.14-.05a17,17,0,0,1,4,1.75C190,171,189.79,170.12,189,169.88Z"/><path class="cls-22" d="M172.42,159.48l4.55,2.44a3.67,3.67,0,0,0,1.58.35"/><path class="cls-22" d="M171.62,160.84s3.76,3,4.41,3.46a22.31,22.31,0,0,0,3.78,1"/><path class="cls-22" d="M172.26,163.33s3.68,3.78,4.64,4.12a21.16,21.16,0,0,0,2.91.62"/><path class="cls-23" d="M220.62,181.72c6.13-2.16,5.29-15.13,2.79-28.22-5-26.27-10.53-28.27-10.53-28.27-16.52,2.47-6.73,32.92-4,40.69-3-1.36-18.85-3.87-18.85-3.87-1.9-.64-4.22,8.33-1.56,9.73C194.22,174.83,212.18,182.46,220.62,181.72Z"/><path class="cls-24" d="M208.85,165.92a35.27,35.27,0,0,1,8,3.36,29.9,29.9,0,0,0-8.88-5.95Z"/><path class="cls-25" d="M220.62,181.72c5.19-1.83,5.39-11.39,3.8-22.23,2.68,18.74-8.82,19.12-16.44,16.75-7.47-2.32-20.19-6.8-20.72-7a3,3,0,0,0,1.18,2.53C194.22,174.83,212.18,182.46,220.62,181.72Z"/><path class="cls-26" d="M133.43,204.41h31.94v3.11H133.43a.77.77,0,0,1-.77-.77v-1.57A.76.76,0,0,1,133.43,204.41Z"/><path class="cls-27" d="M165.53,204.41l20.36,1.77a.67.67,0,0,1,.61.67h0a.67.67,0,0,1-.67.67H165.47a.67.67,0,0,1-.67-.67v-1.77A.68.68,0,0,1,165.53,204.41Z"/><path class="cls-3" d="M215,210.29H67.73c-.38,0-.69-.61-.69-1.37h0c0-.75.31-1.36.69-1.36H215c.38,0,.68.61.68,1.36h0C215.68,209.68,215.38,210.29,215,210.29Z"/><path class="cls-11" d="M221.89,210.29h-3.2c-.5,0-.9-.61-.9-1.37h0c0-.75.4-1.36.9-1.36h3.2c.5,0,.9.61.9,1.36h0C222.79,209.68,222.39,210.29,221.89,210.29Z"/><path class="cls-28" d="M193.44,96.81a23.43,23.43,0,0,0,1.07-7.09c0-11.09-7.36-20.21-16.6-20.21"/><path class="cls-29" d="M192.38,96.81a23.75,23.75,0,0,0,1.07-7.09c0-11.09-7.37-20.21-16.61-20.21"/><path class="cls-6" d="M178.29,111.49h-.66l0-1.4c12.63.34,14.41-9.08,14.48-9.48l1.38.24C193.5,101,191.53,111.49,178.29,111.49Z"/><path class="cls-6" d="M174.13,111.18c.06.95,1.64,1.64,3.53,1.52s3.37-1,3.31-2-1.64-1.64-3.53-1.52S174.07,110.22,174.13,111.18Z"/><rect class="cls-21" x="187.69" y="89.57" width="11.17" height="15.19" rx="3.57"/><rect class="cls-30" x="190.08" y="91.62" width="8.17" height="11.11" rx="2.61"/><rect class="cls-31" x="190.35" y="91.62" width="8.17" height="11.11" rx="2.61"/><path class="cls-9" d="M197,92c.29,2.42.37,8.31-5.37,10.16a3,3,0,0,0,1.73.55h2.13a3,3,0,0,0,3-3V94.64A3,3,0,0,0,197,92Z"/><path class="cls-32" d="M141.55,145.58h-32a4.45,4.45,0,0,1-4.11-3.35l-8.06-34.91A2.57,2.57,0,0,1,100,104h31.94a4.47,4.47,0,0,1,4.12,3.35l8.06,34.91A2.58,2.58,0,0,1,141.55,145.58Z"/><line class="cls-33" x1="103.73" y1="110.38" x2="116.96" y2="110.38"/><path class="cls-4" d="M106.8,116.83a.61.61,0,0,1-.61.79,1,1,0,0,1-1-.79.61.61,0,0,1,.61-.79A1.05,1.05,0,0,1,106.8,116.83Z"/><line class="cls-33" x1="109.54" y1="116.83" x2="124.72" y2="116.83"/><line class="cls-33" x1="128.13" y1="116.83" x2="131.06" y2="116.83"/><path class="cls-4" d="M108.06,122.26a.62.62,0,0,1-.61.8,1.06,1.06,0,0,1-1-.8.61.61,0,0,1,.61-.79A1.07,1.07,0,0,1,108.06,122.26Z"/><line class="cls-33" x1="110.79" y1="122.26" x2="130.29" y2="122.26"/><path class="cls-4" d="M109.31,127.7a.61.61,0,0,1-.61.79,1.05,1.05,0,0,1-1-.79.61.61,0,0,1,.6-.8A1.06,1.06,0,0,1,109.31,127.7Z"/><line class="cls-33" x1="112.04" y1="127.7" x2="117.62" y2="127.7"/><line class="cls-33" x1="120.96" y1="127.7" x2="133.56" y2="127.7"/><line class="cls-33" x1="112.87" y1="131.27" x2="123.67" y2="131.27"/><path class="cls-6" d="M71.79,190.2h87.46A5.91,5.91,0,0,0,165,183l-14.07-60.91a5.9,5.9,0,0,0-5.75-4.58H57.73A5.9,5.9,0,0,0,52,124.71L66,185.63A5.89,5.89,0,0,0,71.79,190.2Z"/><path class="cls-3" d="M67.54,190.2H155a5.9,5.9,0,0,0,5.75-7.23l-14.06-60.91a5.91,5.91,0,0,0-5.75-4.58H53.48a5.9,5.9,0,0,0-5.75,7.23l14.06,60.92A5.89,5.89,0,0,0,67.54,190.2Z"/><path class="cls-34" d="M97.26,166.39a2.62,2.62,0,0,1,2.6-2.42h13.8a.6.6,0,0,1,.59.6h0a.59.59,0,0,1-.59.59h-.85a.53.53,0,0,0-.53.49L109.7,202.3a3.13,3.13,0,0,0,3.12,3.35h8.65a1,1,0,0,1,1,.95h0a1,1,0,0,1-1,1H97.16a2.61,2.61,0,0,1-2.6-2.79Z"/></g></g></svg>