<svg width="103" height="89" viewBox="0 0 103 89" fill="none" xmlns="http://www.w3.org/2000/svg">
<path opacity="0.5" d="M102.07 47.226C99.545 54.0199 89.2639 60.8138 89.2639 66.5857C89.2639 69.3513 86.3179 75.6042 80.6663 80.8349C76.5178 84.6227 70.9264 87.8693 64.0122 88.711C60.5852 89.1319 56.8575 89.0117 52.7691 88.0497C29.1407 82.5785 26.375 72.2974 12.0657 72.2974C2.98709 72.2974 7.25584 58.8899 7.85707 54.5009C8.57855 49.7512 9.17979 44.8211 8.21781 40.0112C7.07547 34.4197 0.642284 30.9326 0.0410518 25.5816C-0.379811 21.9742 2.5061 18.7276 5.45214 16.2024C12.6068 10.0698 21.8658 5.44034 31.9064 2.73479C49.763 -2.13519 70.0846 -0.812479 85.1154 9.2281C102.912 21.2528 104.595 40.3719 102.07 47.226Z" fill="#E9E9E9"/>
<g opacity="0.5">
<path opacity="0.5" d="M78.6222 67.9085C92.5107 54.02 92.5107 31.4738 78.6222 17.5853C64.7337 3.69683 42.1875 3.69683 28.299 17.5853C14.4106 31.4738 14.4106 54.02 28.299 67.9085C42.1875 81.7969 64.7337 81.7969 78.6222 67.9085Z" stroke="#403D56" stroke-linecap="round" stroke-linejoin="round" stroke-dasharray="4.09 4.09"/>
</g>
<path d="M8.15747 38.9288V48.6086C8.15747 49.2099 8.63846 49.751 9.29981 49.751H26.5552C27.1564 49.751 27.6975 49.27 27.6975 48.6086V38.9288C27.6975 38.3275 27.2165 37.7864 26.5552 37.7864H9.29981C8.63846 37.7864 8.15747 38.2674 8.15747 38.9288Z" fill="#EB535A"/>
<path d="M27.6374 40.3118H8.15747V43.1977H27.6374V40.3118Z" fill="#26438A"/>
<path d="M8.15747 43.1975V48.4884C8.15747 49.0896 8.63846 49.6307 9.29981 49.6307H12.7268L14.7109 43.1975H8.15747ZM9.29981 37.7864C8.69858 37.7864 8.15747 38.2674 8.15747 38.9288V40.3717H15.6128L16.3944 37.8466L9.29981 37.7864Z" fill="#F1606A"/>
<path d="M8.15747 40.3118H15.6128L14.7109 43.1977H8.15747V40.3118Z" fill="#204D9F"/>
<path d="M39.7224 27.6255C39.7224 27.6255 32.9285 25.1605 31.6058 28.2869C30.283 31.4133 36.1751 33.9986 39.4819 34.8403L39.7224 27.6255Z" fill="#FDB377"/>
<path d="M80.6666 80.8349C76.5181 84.6226 70.9266 87.8693 64.0125 88.711C62.2689 85.0435 59.6235 80.414 57.2787 80.0533C53.3707 79.3919 45.6749 72.2974 45.6749 72.2974C43.9313 50.8334 61.5474 34.9608 62.4493 35.5621C63.3511 36.1633 75.977 42.9572 76.9991 49.3904C77.9611 55.8236 77.0592 71.6961 77.5402 73.9207C77.7807 74.8827 79.2237 77.8888 80.6666 80.8349Z" fill="#FDB377"/>
<path d="M65.1547 72.2973H41.8269C39.903 72.2973 38.3999 70.7942 38.3999 68.8702V16.563C38.3999 14.6391 39.903 13.136 41.8269 13.136H65.0946C67.0186 13.136 68.5217 14.6391 68.5217 16.563V68.8702C68.5217 70.7942 66.9584 72.2973 65.1547 72.2973Z" fill="#4C495E"/>
<path d="M63.7716 69.7119H43.1493C41.2254 69.7119 39.7223 68.2088 39.7223 66.2848V19.2083C39.7223 17.2844 41.2254 15.7813 43.1493 15.7813H63.7716C65.6354 15.7813 67.1986 17.2844 67.1986 19.2083V66.2247C67.1986 68.1487 65.6955 69.7119 63.7716 69.7119Z" fill="white"/>
<path d="M42.1874 43.558C42.1874 43.558 42.0071 46.3237 40.0831 46.3237C38.1592 46.3237 35.8745 45.8427 34.7923 45.482C33.7101 45.1814 32.0867 44.2194 32.688 41.4537C33.2892 38.6881 35.5138 38.5678 37.6782 39.2292C39.9629 39.9506 42.7285 40.9126 42.1874 43.558Z" fill="#FDB377"/>
<path d="M41.5862 49.3906C41.5862 49.3906 41.8267 46.7452 37.3175 46.7452C34.2512 46.7452 32.9285 47.3464 32.9285 49.8115C32.9285 52.998 35.2733 52.8778 36.8966 52.8778C38.5801 52.9379 41.5862 52.3366 41.5862 49.3906Z" fill="#FDB377"/>
<path d="M41.2256 55.8839C41.2256 55.8839 41.3459 53.3588 38.2195 53.3588C35.0931 53.3588 33.59 53.96 34.0109 56.8459C34.2513 58.7699 35.6342 59.0104 36.7164 59.0104C37.7385 58.9502 41.2256 58.1686 41.2256 55.8839Z" fill="#FDB377"/>
<path opacity="0.15" d="M58.8416 21.6735H48.0795C47.5384 21.6735 47.1176 22.0943 47.1176 22.6354V26.4833C47.1176 27.0244 47.5384 27.4453 48.0795 27.4453H58.8416C59.3827 27.4453 59.8036 27.0244 59.8036 26.4833V22.6354C59.8036 22.0943 59.3827 21.6735 58.8416 21.6735Z" fill="#079D49"/>
<path opacity="0.35" d="M50.7251 24.4389H50.3643C50.2441 24.4389 50.1238 24.5592 50.1238 24.6794C50.1238 24.7997 50.2441 24.9199 50.3643 24.9199H50.4846C50.4244 25.2807 50.1839 25.5813 49.9435 25.7617C49.8833 25.8218 49.8232 25.8218 49.703 25.8218C49.6428 25.7617 49.5827 25.7617 49.5827 25.6414V24.3187H49.7631C49.8833 24.3187 50.0036 24.1984 50.0036 24.0782C50.0036 23.958 49.8833 23.8377 49.7631 23.8377H49.5827V23.0561C49.5827 22.9359 49.4625 22.8156 49.3422 22.8156H48.8011C48.6809 22.8156 48.5606 22.9359 48.5606 23.0561C48.5606 23.1764 48.6809 23.2966 48.8011 23.2966H49.0416V23.8377H48.6207C48.5005 23.8377 48.3802 23.958 48.3802 24.0782C48.3802 24.1984 48.5005 24.3187 48.6207 24.3187H49.0416V25.6414C49.0416 25.8819 49.222 26.1224 49.4023 26.3028C49.5226 26.3629 49.5827 26.3629 49.703 26.3629C49.8232 26.3629 50.0036 26.3028 50.1238 26.2426C50.4846 26.0021 50.9054 25.6414 50.9054 24.6794C50.9655 24.5592 50.8453 24.4389 50.7251 24.4389Z" fill="#079C49"/>
<path opacity="0.35" d="M58.2402 24.1385H52.288C52.1077 24.1385 51.9874 24.0182 51.9874 23.8379C51.9874 23.6575 52.1077 23.5373 52.288 23.5373H58.2402C58.4206 23.5373 58.5409 23.6575 58.5409 23.8379C58.5409 24.0182 58.3605 24.1385 58.2402 24.1385Z" fill="#079C49"/>
<path opacity="0.35" d="M58.2402 25.7019H52.288C52.1077 25.7019 51.9874 25.5817 51.9874 25.4013C51.9874 25.2209 52.1077 25.1007 52.288 25.1007H58.2402C58.4206 25.1007 58.5409 25.2209 58.5409 25.4013C58.5409 25.5817 58.3605 25.7019 58.2402 25.7019Z" fill="#079C49"/>
<path d="M60.5251 39.7704C60.5251 43.7386 57.3386 46.9251 53.3704 46.9251C49.4023 46.9251 46.1556 43.7386 46.1556 39.7704C46.1556 35.8023 49.3422 32.6158 53.3103 32.6158C57.2784 32.6158 60.5251 35.7422 60.5251 39.7704Z" fill="#1C558A"/>
<path d="M52.2281 43.2576C51.9876 43.2576 51.8073 43.1975 51.6269 43.0171L49.2821 40.8527C48.9214 40.4919 48.8612 39.9508 49.222 39.5901C49.5827 39.2294 50.1238 39.2294 50.4846 39.53L52.2281 41.0932L56.2564 37.1852C56.6171 36.8244 57.1582 36.8244 57.519 37.1852C57.8797 37.5459 57.8797 38.087 57.519 38.4478L52.8895 42.957C52.7091 43.1975 52.4686 43.2576 52.2281 43.2576Z" fill="white"/>
<path d="M51.9273 41.6947C51.9273 41.6947 52.7691 40.4923 55.2942 42.1156C57.8194 43.7389 57.3985 44.4003 58.6611 44.8813C59.9237 45.3623 61.1863 45.9034 61.6673 46.0837C62.1483 46.2641 63.8317 48.6089 64.2526 49.2703C64.6735 49.8715 66.417 52.9979 69.0625 54.0801C71.7079 55.1623 71.1668 78.3699 68.6416 77.4079C66.1765 76.446 62.6894 77.2276 61.8477 69.4116C61.0661 61.5955 61.4869 59.6716 61.1863 59.0102C60.8857 58.2888 58.7814 55.6433 58.1801 54.3206C57.5789 52.9979 55.3544 52.2163 52.8893 47.8273C50.5445 43.2579 51.9273 41.6947 51.9273 41.6947Z" fill="#FDB377"/>
<path d="M82.23 49.6311V32.496C82.23 31.5941 82.9515 30.8727 83.8533 30.8727H91.489C92.3908 30.8727 93.1123 31.5941 93.1123 32.496C93.1123 36.3439 93.1123 45.7832 93.1123 49.6311C93.1123 50.533 92.3908 51.2544 91.489 51.2544H83.8533C82.9515 51.2544 82.23 50.533 82.23 49.6311Z" fill="#496A82"/>
<path d="M90.8875 48.9698H84.4543C83.8531 48.9698 83.3721 48.4888 83.3721 47.8876V33.1574C83.3721 32.5562 83.8531 32.0752 84.4543 32.0752H90.8875C91.4887 32.0752 91.9697 32.5562 91.9697 33.1574V47.8876C91.9697 48.4888 91.4887 48.9698 90.8875 48.9698Z" fill="white"/>
<path d="M88.3623 50.3526H86.9193C86.739 50.3526 86.5586 50.1722 86.5586 49.9918C86.5586 49.8114 86.739 49.6311 86.9193 49.6311H88.3623C88.5427 49.6311 88.723 49.8114 88.723 49.9918C88.723 50.1722 88.5427 50.3526 88.3623 50.3526Z" fill="white"/>
<path d="M89.0234 42.0548C88.4823 42.0548 87.9412 42.0548 87.3399 42.0548C87.0393 42.0548 86.8589 41.8745 86.7988 41.634C86.7387 41.3334 86.9792 41.0929 87.2798 41.0929C87.5804 41.0929 87.9412 41.0929 88.2418 41.0929C89.0234 41.0929 89.6847 41.0929 90.4663 41.0929C90.6467 41.0929 90.8271 41.0327 90.8872 40.8524C90.9473 40.672 90.9473 40.5518 90.8872 40.3714C90.767 40.191 90.6467 40.1309 90.4663 40.1309C89.7449 40.1309 89.2038 40.1309 88.5424 40.1309C88.1817 40.1309 87.9412 39.71 88.1215 39.4094C88.2418 39.229 88.362 39.1689 88.5424 39.1689C89.0234 39.1689 89.3841 39.1689 89.8651 39.1689C90.1056 39.1689 90.286 38.9885 90.3461 38.7481C90.3461 38.5076 90.2259 38.2671 89.9854 38.2069C89.9252 38.2069 89.8651 38.2069 89.805 38.2069C89.324 38.2069 89.0234 38.2069 88.5424 38.2069C88.3019 38.2069 88.1215 38.0266 88.0614 37.8462C88.0013 37.6057 88.1215 37.4253 88.3019 37.3051C88.4222 37.245 88.4823 37.245 88.6025 37.245C89.6246 37.245 90.6467 37.245 91.6688 37.245C91.7891 37.245 91.8492 37.245 91.9093 37.1247C93.232 35.9223 94.7351 35.5615 96.4185 36.1026C98.102 36.6437 99.1241 37.8462 99.4247 39.5898C99.9658 42.2352 97.9818 44.7604 95.2762 44.9407C94.1339 45.0009 93.0516 44.7003 92.1498 43.9788C92.0897 43.9187 92.0295 43.9187 91.9093 43.9187C91.0676 43.9187 90.1657 43.9187 89.324 43.9187C88.9633 43.9187 88.7228 43.618 88.843 43.3174C88.9031 43.1371 89.0835 43.0168 89.324 43.0168C89.7449 43.0168 89.9854 43.0168 90.4062 43.0168C90.6467 43.0168 90.8271 42.8966 90.8872 42.7162C90.9473 42.5358 90.8872 42.2953 90.7068 42.1751C90.5866 42.115 90.4663 42.0548 90.3461 42.0548C89.9854 42.0548 89.5645 42.0548 89.0234 42.0548Z" fill="#F4B22F"/>
<path d="M86.0174 38.207C85.6566 38.207 85.2959 38.207 84.9352 38.207C84.6345 38.207 84.394 38.0266 84.394 37.726C84.394 37.4254 84.5744 37.245 84.9352 37.245C85.6566 37.245 86.3781 37.245 87.0996 37.245C87.4002 37.245 87.5806 37.4254 87.5806 37.726C87.5806 38.0266 87.3401 38.207 87.0996 38.207C86.799 38.207 86.4382 38.207 86.0174 38.207Z" fill="#F4B22F"/>
<path d="M87.4003 43.9189C87.2199 43.9189 87.0395 43.9189 86.8592 43.9189C86.5585 43.9189 86.3782 43.7385 86.3782 43.4379C86.3782 43.1974 86.5585 42.9569 86.8592 42.9569C87.2199 42.9569 87.5806 42.9569 87.9414 42.9569C88.242 42.9569 88.4224 43.1373 88.4224 43.4379C88.4224 43.7385 88.1819 43.9189 87.9414 43.9189C87.761 43.9189 87.5806 43.9189 87.4003 43.9189Z" fill="#F4B22F"/>
<path d="M86.6185 40.1309C86.4983 40.1309 86.4381 40.1309 86.3179 40.1309C86.0774 40.1309 85.897 39.8904 85.8369 39.6499C85.8369 39.4094 86.0173 39.1689 86.2578 39.1689C86.4983 39.1689 86.6786 39.1689 86.9191 39.1689C87.1596 39.1689 87.34 39.4094 87.34 39.6499C87.34 39.8904 87.1596 40.0707 86.9191 40.1309C86.859 40.1309 86.7388 40.1309 86.6185 40.1309Z" fill="#F4B22F"/>
<path d="M95.1563 37.0045C93.2324 37.0045 91.6692 38.5677 91.6692 40.4917C91.6692 42.4156 93.2324 43.9788 95.1563 43.9788C97.0803 43.9788 98.6435 42.4156 98.6435 40.4917C98.6435 38.5677 97.0803 37.0045 95.1563 37.0045Z" fill="white"/>
<path d="M97.1404 40.191V39.6499H95.1563V38.9886C95.1563 38.4474 94.7354 37.9665 94.1342 37.9665C93.8336 37.9665 93.4729 38.0867 93.2324 38.2671L93.052 38.3873L93.4729 39.0487L93.533 38.9886C93.7134 38.8082 94.014 38.9284 94.014 39.1689V39.5898H93.2925V40.1309H94.014V41.2732V41.6941C94.014 42.4156 94.6152 43.0168 95.3367 43.0168H95.517C96.2385 43.0168 96.8398 42.4156 96.8398 41.6941C96.8398 41.153 96.3588 40.7321 95.8778 40.3714L95.3968 40.9125L95.7575 41.2732C95.8778 41.3935 95.9379 41.5137 95.9379 41.6941C95.9379 41.9346 95.6974 42.115 95.517 42.115C95.2766 42.115 95.0962 41.8745 95.0962 41.6941V40.1309L97.1404 40.191Z" fill="#F4B22F"/>
</svg>
