<svg id="Layer_1" data-name="Layer 1" xmlns="http://www.w3.org/2000/svg" xmlns:xlink="http://www.w3.org/1999/xlink" viewBox="0 0 250 250"><defs><style>.cls-1{fill:none;}.cls-2{fill:url(#linear-gradient);}.cls-3{fill:url(#linear-gradient-2);}.cls-4{fill:url(#linear-gradient-3);}.cls-5{fill:url(#linear-gradient-4);}.cls-6{fill:url(#linear-gradient-5);}.cls-7{fill:url(#linear-gradient-6);}.cls-8{fill:url(#linear-gradient-7);}.cls-9{fill:url(#linear-gradient-8);}.cls-10{fill:#ffa4a5;}.cls-11{fill:url(#linear-gradient-9);}.cls-12{fill:url(#linear-gradient-10);}.cls-13{fill:url(#linear-gradient-11);}.cls-14{fill:url(#linear-gradient-12);}.cls-15{fill:url(#linear-gradient-13);}.cls-16{fill:#ff8181;}.cls-17{fill:url(#linear-gradient-14);}.cls-18{fill:#503b3b;}.cls-19{fill:#fd6c6c;}.cls-20{fill:#cf4646;}.cls-21{fill:#ffa22a;}.cls-22{fill:#fbc943;}.cls-23{fill:#ffe28e;}.cls-24{fill:#f35c5c;}.cls-25{fill:#ff8f8f;}.cls-26{fill:#ff9e7b;}.cls-27{fill:#92991d;}.cls-28{fill:#99a02c;}.cls-29{fill:#a4b231;}.cls-30{fill:#bdc441;}.cls-31{fill:#ffbba4;}.cls-32{fill:#f9f9f9;}.cls-33{fill:#d1d3d4;}.cls-34{fill:#00004c;}.cls-35{fill:#000069;}.cls-36{fill:#36323d;}.cls-37{fill:#242f65;}.cls-38{fill:url(#linear-gradient-15);}.cls-39{fill:url(#linear-gradient-16);}.cls-40{fill:url(#linear-gradient-17);}.cls-41{fill:url(#linear-gradient-18);}.cls-42{fill:url(#linear-gradient-19);}.cls-43{fill:url(#linear-gradient-20);}.cls-44{fill:#bcbec0;}.cls-45{clip-path:url(#clip-path);}.cls-46,.cls-50{fill:#717fa4;}.cls-46{opacity:0.51;isolation:isolate;}.cls-47{fill:url(#linear-gradient-21);}.cls-48{fill:#425486;}.cls-49{fill:url(#linear-gradient-22);}.cls-51{fill:url(#linear-gradient-23);}.cls-52{fill:url(#linear-gradient-24);}</style><linearGradient id="linear-gradient" x1="125" y1="227.87" x2="125" y2="22.13" gradientUnits="userSpaceOnUse"><stop offset="0" stop-color="#cbe0f2"/><stop offset="1" stop-color="#bdd7f0" stop-opacity="0"/></linearGradient><linearGradient id="linear-gradient-2" x1="141.93" y1="187.23" x2="152.96" y2="187.23" gradientUnits="userSpaceOnUse"><stop offset="0" stop-color="#ff6355"/><stop offset="1" stop-color="#ed1c24"/></linearGradient><linearGradient id="linear-gradient-3" x1="177.22" y1="189.47" x2="187.94" y2="189.47" xlink:href="#linear-gradient-2"/><linearGradient id="linear-gradient-4" x1="180.17" y1="142.1" x2="190.51" y2="142.1" xlink:href="#linear-gradient-2"/><linearGradient id="linear-gradient-5" x1="109.47" y1="150.28" x2="122.74" y2="150.28" xlink:href="#linear-gradient-2"/><linearGradient id="linear-gradient-6" x1="119.04" y1="161.15" x2="200.25" y2="161.15" xlink:href="#linear-gradient-2"/><linearGradient id="linear-gradient-7" x1="119.04" y1="170.28" x2="192.19" y2="170.28" xlink:href="#linear-gradient-2"/><linearGradient id="linear-gradient-8" x1="124.06" y1="148.31" x2="198.1" y2="148.31" xlink:href="#linear-gradient-2"/><linearGradient id="linear-gradient-9" x1="190.27" y1="153.23" x2="198.1" y2="153.23" xlink:href="#linear-gradient-2"/><linearGradient id="linear-gradient-10" x1="181.15" y1="169" x2="199.71" y2="169" xlink:href="#linear-gradient-2"/><linearGradient id="linear-gradient-11" x1="181.85" y1="159.3" x2="199.71" y2="159.3" xlink:href="#linear-gradient-2"/><linearGradient id="linear-gradient-12" x1="166.44" y1="190.38" x2="176.72" y2="190.38" xlink:href="#linear-gradient-2"/><linearGradient id="linear-gradient-13" x1="121.59" y1="183.39" x2="135.02" y2="183.39" xlink:href="#linear-gradient-2"/><linearGradient id="linear-gradient-14" x1="169.21" y1="141.2" x2="180.49" y2="141.2" xlink:href="#linear-gradient-2"/><linearGradient id="linear-gradient-15" x1="86.06" y1="604.19" x2="86.06" y2="723.37" gradientTransform="translate(0 -528.22)" gradientUnits="userSpaceOnUse"><stop offset="0.55" stop-color="#5e90cc"/><stop offset="0.77" stop-color="#7ea6d6"/></linearGradient><linearGradient id="linear-gradient-16" x1="92.17" y1="605.21" x2="93.31" y2="605.21" gradientTransform="translate(0 -528.22)" gradientUnits="userSpaceOnUse"><stop offset="0.15" stop-color="#5273a9"/><stop offset="0.33" stop-color="#5273a9"/></linearGradient><linearGradient id="linear-gradient-17" x1="54.69" y1="617.28" x2="54.69" y2="622.28" gradientTransform="translate(0 -528.22)" gradientUnits="userSpaceOnUse"><stop offset="0" stop-color="#2b4681"/><stop offset="0.07" stop-color="#5273a9"/><stop offset="0.91" stop-color="#5273a9"/><stop offset="1" stop-color="#2b4681"/></linearGradient><linearGradient id="linear-gradient-18" x1="54.69" y1="626.4" x2="54.69" y2="635.57" xlink:href="#linear-gradient-17"/><linearGradient id="linear-gradient-19" x1="58.27" y1="602.98" x2="58.27" y2="723.68" gradientTransform="translate(0 -528.22)" gradientUnits="userSpaceOnUse"><stop offset="0.12" stop-color="#5475ab"/><stop offset="1" stop-color="#2b4681"/></linearGradient><linearGradient id="linear-gradient-20" x1="41.68" y1="707.76" x2="130.37" y2="619.06" gradientTransform="translate(0 -528.22)" gradientUnits="userSpaceOnUse"><stop offset="0.21" stop-color="#5883bb" stop-opacity="0.2"/><stop offset="0.68" stop-color="#5e8ec8"/><stop offset="0.79" stop-color="#8d99c1"/><stop offset="1" stop-color="#f6b2b3"/></linearGradient><clipPath id="clip-path"><rect class="cls-1" x="46.67" y="91.6" width="66.16" height="66.16"/></clipPath><linearGradient id="linear-gradient-21" x1="58.01" y1="230.44" x2="58.01" y2="167.99" gradientTransform="matrix(0.99, -0.17, -0.17, -0.99, 51.82, 335.55)" gradientUnits="userSpaceOnUse"><stop offset="0.54" stop-color="#f9fafb"/><stop offset="0.68" stop-color="#f5f7fa"/><stop offset="0.83" stop-color="#e9eff6"/><stop offset="0.98" stop-color="#d4e2f0"/><stop offset="1" stop-color="#d1e0ef"/></linearGradient><linearGradient id="linear-gradient-22" x1="49.73" y1="107.67" x2="89.47" y2="107.67" xlink:href="#linear-gradient-2"/><linearGradient id="linear-gradient-23" x1="90.71" y1="152.63" x2="90.71" y2="92.93" gradientTransform="matrix(1, 0, 0, -1, 0, 252)" gradientUnits="userSpaceOnUse"><stop offset="0.17" stop-color="#f9fafb"/><stop offset="0.56" stop-color="#f7f9fa"/><stop offset="0.74" stop-color="#eff4f8"/><stop offset="0.89" stop-color="#e2ebf4"/><stop offset="1" stop-color="#d1e0ef"/></linearGradient><linearGradient id="linear-gradient-24" x1="71.43" y1="107.47" x2="109.85" y2="107.47" xlink:href="#linear-gradient-2"/></defs><title>secure payment</title><path class="cls-2" d="M4.14,127.59S-1.11,68.17,73.26,37.87,185.78,25.32,208.88,54.93s2.79,64.05,12,76.7,71.2,100.09-22.29,87.77-173.25,36.65-180.78-18S-7.17,170.36,4.14,127.59Z"/><path class="cls-3" d="M152.35,184.09c-2.4,7.8-3.74,14.09-3.74,14.09h-5.15s-.61-5.23-1.38-9.18,1.37-12.6,6.17-12.71S153.69,179.72,152.35,184.09Z"/><path class="cls-4" d="M187.45,187c-2.1,6.21-3.21,11.22-3.21,11.22h-5.1s-.79-4.16-1.69-7.31.91-10,5.67-10.11S188.63,183.49,187.45,187Z"/><path class="cls-5" d="M188.25,135.77c-3,.24-9.32,4.33-7.87,10.51,1.52.77,1.49-.5,4.81.32,3.9,1,3.21,2,4.94,1.81C191.61,143,188.25,135.77,188.25,135.77Z"/><path class="cls-6" d="M120.83,148.87a2.93,2.93,0,0,0-1.61-1.06,3.72,3.72,0,0,0-2.1.34,3.8,3.8,0,0,0-2.06,2.61,4.37,4.37,0,0,0-1.3.59,6.57,6.57,0,0,0-.81.69c-.12.11-.24.23-.37.33a2.11,2.11,0,0,1-.23.19c-.13.19-.22.21-.29.06-.61-.19-.85-1-.93-1.59a7.72,7.72,0,0,1,.13-2.49,10.72,10.72,0,0,1,2.21-4.77c.17-.21-.6-.13-.64-.12a1.65,1.65,0,0,0-1,.42,10.86,10.86,0,0,0-2.41,6.75,2.45,2.45,0,0,0,1.06,2.33,3.53,3.53,0,0,0,3.11-.62c.45-.31.81-.72,1.22-1.06v.05c-.18.71-.31,1.43-.42,2.16-.06.43-.1.86-.14,1.3a3,3,0,0,0,0,1.31c.48,1.18,2.5.51,3.19-.09a4,4,0,0,0,1-3.85,2.5,2.5,0,0,0-1.92-1.68c.06-.19.11-.39.18-.58.18-.55.52-1.43,1.09-1.69l.05,0a.31.31,0,0,0,.12.07,2,2,0,0,1,.58.3,4.66,4.66,0,0,1,.84.82,7.65,7.65,0,0,1,1.68,3.85c0,.27,1.67-.06,1.62-.43A7.81,7.81,0,0,0,120.83,148.87Zm-4.12,6.39a3.6,3.6,0,0,1-.38.76l-.13.17h0c-.06-.12-.19-.19-.25-.33a1.15,1.15,0,0,1-.07-.45,8.11,8.11,0,0,1,.06-1.1,20.87,20.87,0,0,1,.36-2.48A3.17,3.17,0,0,1,116.71,155.26Z"/><path class="cls-7" d="M200.25,165.91c0-16.25-24.71-34.95-44.91-34.95S119,143.19,119,159.44s10,31.9,37.13,31.9C182.56,191.34,200.25,182.16,200.25,165.91Z"/><path class="cls-8" d="M155.94,187.69c-27.35-2.35-36.34-18.83-35.13-35a24.16,24.16,0,0,1,.52-3.44A23.9,23.9,0,0,0,119,159.44c0,16.25,10,31.9,37.13,31.9,15.74,0,28.38-3.27,36-9.35C184,187,171.32,189,155.94,187.69Z"/><path class="cls-9" d="M155.34,131c-13.41,0-25,5.38-31.28,13.75,5.45,9.33,18.55,17.3,34.76,20s31.06-.53,39.28-7.52C191.67,143.65,172,131,155.34,131Z"/><path class="cls-10" d="M177.07,142.65a48.75,48.75,0,0,0,9.75,3.34,40.68,40.68,0,0,0-23.58-13.07A45.26,45.26,0,0,0,177.07,142.65Z"/><path class="cls-10" d="M162.52,136.93a7.68,7.68,0,0,0,2.67,1.21A6.18,6.18,0,0,0,160,133.2,6.23,6.23,0,0,0,162.52,136.93Z"/><path class="cls-11" d="M190.62,147c-.75,2-.36,5.34,1.58,8.81a21.1,21.1,0,0,0,2.73,3.74,28.37,28.37,0,0,0,3.17-2.31A37.7,37.7,0,0,0,190.62,147Z"/><path class="cls-12" d="M192.37,154.41a42.06,42.06,0,0,0,7.34,2l-4.37,24.86s-6.33,1.91-8.45,2.53c-3.47,1-6.48-6.1-5.58-13.89C182.24,161.74,187.51,152.27,192.37,154.41Z"/><path class="cls-13" d="M181.85,164.69a28,28,0,0,0,9.09-.88,22.94,22.94,0,0,0,8.12-3.73l.65-3.67a54.23,54.23,0,0,1-7.29-2.31C188.6,152.41,183.38,158.37,181.85,164.69Z"/><ellipse class="cls-10" cx="197.45" cy="168.82" rx="12.62" ry="5.58" transform="translate(-1.84 335.47) rotate(-80.43)"/><path class="cls-14" d="M176.49,188.14a90.27,90.27,0,0,0-2,10h-5.09s-1.26-3.73-2.52-6.54-.2-9,4.54-9.06S177.28,185,176.49,188.14Z"/><path class="cls-15" d="M134.83,184c-1.45,7.85-2,14.18-2,14.18h-5.1S123,178,121.81,174.05s3.12-7.34,7.45-4.24C133.92,173.16,135.64,179.61,134.83,184Z"/><path class="cls-16" d="M135,180.36a14.86,14.86,0,0,0-5.69-10.55c-2.46-1.76-4.59-4-6-2.62a37,37,0,0,0,.18,10.71c1.56,6.61,5.26,11.39,8.26,10.68C133.87,188.06,135.08,184.71,135,180.36Z"/><path class="cls-17" d="M176.63,134.24c-3.12.7-9.28,6.2-6.88,12.9,1.72.63,1.51-.77,5.15-.35,4.27.49,3.67,1.7,5.49,1.3C181.21,141.84,176.63,134.24,176.63,134.24Z"/><path class="cls-18" d="M192.88,151.83a1.16,1.16,0,0,0-.72-.87c-.28,0-.42.29-.31.73s.44.83.72.87S193,152.28,192.88,151.83Z"/><path class="cls-16" d="M186.7,152.39a2.09,2.09,0,1,0-2,1.65A1.88,1.88,0,0,0,186.7,152.39Z"/><path class="cls-18" d="M184.5,152.7a1.1,1.1,0,0,0-.9-1,.74.74,0,0,0-.78.86,1.1,1.1,0,0,0,.9,1A.74.74,0,0,0,184.5,152.7Z"/><path class="cls-19" d="M196.84,168.07c.49-3.46.56-6.31.14-6.37s-1.16,2.7-1.65,6.16-.56,6.31-.14,6.37S196.34,171.53,196.84,168.07Z"/><path class="cls-19" d="M201,169c.45-3.09.5-5.64.13-5.69s-1,2.41-1.48,5.5-.5,5.63-.12,5.69S200.59,172,201,169Z"/><path class="cls-20" d="M156.5,134a1,1,0,0,0-.52-1.86c-.52,0-1,0-1.56,0A37.31,37.31,0,0,0,142.78,134a1,1,0,0,0,.1,2h0a37.27,37.27,0,0,1,11.74-1.85c.56,0,1.13,0,1.7.06Z"/><circle class="cls-21" cx="154.46" cy="111.14" r="6.7" transform="translate(-33.35 141.77) rotate(-45)"/><ellipse class="cls-22" cx="154.01" cy="110.77" rx="6.59" ry="6.7"/><path class="cls-23" d="M159.34,114.7c-.25-.71-.5-1.41-.77-2.11a21.83,21.83,0,0,0-2.68-5.16,10.36,10.36,0,0,0-3.69-3.1,6.67,6.67,0,0,0-4.7,5.49,10.28,10.28,0,0,1,2.18,1,11.55,11.55,0,0,1,3.55,3.1,12.34,12.34,0,0,1,1.58,3.49A6.57,6.57,0,0,0,159.34,114.7Z"/><ellipse class="cls-21" cx="138.93" cy="123.2" rx="3.94" ry="6.7" transform="translate(-35.97 185.57) rotate(-61.19)"/><ellipse class="cls-22" cx="139.4" cy="122.46" rx="3.94" ry="6.7" transform="translate(-35.08 185.59) rotate(-61.19)"/><path class="cls-19" d="M170.65,147.3c.91-.05,1.39-.84,4.25-.51a9.24,9.24,0,0,1,3.86,1.09c.09-5-2.82-10.42-2.82-10.42C173.81,138.06,169.72,142.22,170.65,147.3Z"/><path class="cls-24" d="M181.16,178.24c-1.47-.51-5-2.17-5.14-6.37l.78,0c.11,4.87,4.94,6.07,5,6.08l0,.42S181.52,178.36,181.16,178.24Z"/><path class="cls-16" d="M171.46,182.58a5.29,5.29,0,0,0-5.37,5.49c.83,3.57,3.32,6.13,5.16,6.13,2.65,0,5.09-4.56,5.87-8.17C176.88,184.07,175,182.53,171.46,182.58Z"/><path class="cls-22" d="M154.66,134.08c.56,0,1.13,0,1.7.06l0,0a6.14,6.14,0,0,0-11.83,1.33A37.65,37.65,0,0,1,154.66,134.08Z"/><path class="cls-21" d="M151.39,130.33a6.26,6.26,0,0,1,1.31.14,6,6,0,0,0-2-.35,6.14,6.14,0,0,0-6.08,5.31c.27-.08.54-.14.81-.21A6.13,6.13,0,0,1,151.39,130.33Z"/><path class="cls-24" d="M176.37,171.73a2.32,2.32,0,0,1-1.26-.55,1.46,1.46,0,0,0,1.28,1,1.42,1.42,0,0,0,1.54-.83A2.19,2.19,0,0,1,176.37,171.73Z"/><path class="cls-25" d="M161.2,186.17a45.2,45.2,0,0,0-12.78-5.56,49.58,49.58,0,0,0-11.51-1.88c4.65,4.36,11.63,7.27,21.51,7.44C159.36,186.19,160.29,186.18,161.2,186.17Z"/><path class="cls-23" d="M143.1,120.25a11.43,11.43,0,0,0-1.8-1.24,10.77,10.77,0,0,0-2.88-1.09,14.84,14.84,0,0,1,.41,1.87,5.46,5.46,0,0,1,0,1.51,8.1,8.1,0,0,1-1.55,3.12c-.22.32-.42.66-.62,1,.26.17.53.34.81.5a10.34,10.34,0,0,0,3.43,1.19,8,8,0,0,1,.77-3c.34-.7.8-1.34,1.08-2.07A5.94,5.94,0,0,0,143.1,120.25Z"/><path class="cls-21" d="M140.88,119.83c-2.38-1.31-4.95-1.24-5.72.16a2.36,2.36,0,0,0,.13,2.22,2.15,2.15,0,0,1,0-1.84c.75-1.36,3.23-1.43,5.54-.16s3.55,3.37,2.85,4.73a1.22,1.22,0,0,0,.12-.19C144.59,123.35,143.27,121.14,140.88,119.83Z"/><path class="cls-22" d="M140.42,172.28l.13-2.62a8.37,8.37,0,0,1-3.66-2l.66-1.58A7.57,7.57,0,0,0,141,168c1.79.42,3.07-.38,3.16-1.9s-.88-2.58-2.72-3.76c-2.47-1.55-3.94-3.05-3.83-5.31a3.69,3.69,0,0,1,3.94-3.62l.14-2.71,1.59.22-.14,2.62a7.65,7.65,0,0,1,3.35,1.48l-.76,1.7a6.89,6.89,0,0,0-3.23-1.46c-1.94-.32-2.72.78-2.78,1.83-.06,1.37.82,2.22,3,3.59,2.6,1.65,3.9,3.33,3.76,5.73a3.72,3.72,0,0,1-4.33,3.58l-.14,2.72Z"/><path class="cls-21" d="M151.27,131.45a3.8,3.8,0,0,0-1.31.23,4.18,4.18,0,0,1,.72-.07,4,4,0,0,1,3.65,2.42l.62,0,0,0A4,4,0,0,0,151.27,131.45Z"/><path class="cls-21" d="M149.06,111a5.09,5.09,0,1,1,10.17,0,4,4,0,0,1,0,.49,4.91,4.91,0,0,0,.05-.67,5.24,5.24,0,1,0-5.76,5.3A5.14,5.14,0,0,1,149.06,111Z"/><path class="cls-26" d="M157.58,56.43c.41-2.56.14-4.65-1.89-5.1-1.8-.39-2.62,1.15-3.1,3.29s0,3.61,1.36,4.26S157.14,59.16,157.58,56.43Z"/><path class="cls-26" d="M162.85,57.91c0-2.55-.57-4.48-2.77-4.43-2,0-2.56,1.72-2.74,3.87s.61,3.45,2.08,3.76C161,61.44,162.81,60.62,162.85,57.91Z"/><path class="cls-26" d="M152.76,54.45c-.19-2.64-1-4.76-3.31-5.09-2-.28-2.54,1.35-2.54,3.57s1,3.69,2.53,4.26C151.17,57.82,153,57.27,152.76,54.45Z"/><path class="cls-26" d="M160.57,64.19c-.15-1.66-6.48-4.9-11.26-6.06s-6,3.39-5.71,6.28L154,77.7C157.64,73.13,160.73,65.85,160.57,64.19Z"/><path class="cls-27" d="M135.69,69.27l-4-14.61s12-4.32,24,1.48c3.47,1.67,10.23,7.32,12.35,12.59l-8.95,7.84C153.65,65.53,145.56,64,135.69,69.27Z"/><path class="cls-28" d="M136.41,66.87l-2.84-15a40.32,40.32,0,0,1,23.7,5.45c3.43,2,10.81,6.89,12.53,12.38l-8.9,7C156.25,65,147,62.64,136.41,66.87Z"/><path class="cls-29" d="M137.82,64.71l-2.57-14.85s10.32-2,21.85,4.85c3.34,2,11.77,6.94,13.38,12.36l-8.82,7C157.28,62.62,148.29,60.39,137.82,64.71Z"/><path class="cls-30" d="M159,61.06c1.13-1.47.3-3.6-1.85-4.77s-4.82-.94-5.95.53-.31,3.6,1.84,4.77S157.87,62.53,159,61.06Z"/><path class="cls-30" d="M139.12,61.94l-.4-.95a15.9,15.9,0,0,1,10-.92l-.33,1A14.69,14.69,0,0,0,139.12,61.94Z"/><path class="cls-30" d="M137.46,51.94l-.18-1c4.49-.89,11.42.43,15.43,2.93l-.64.87C148.26,52.36,141.71,51.1,137.46,51.94Z"/><path class="cls-30" d="M161.91,71.81s-2.1-4.34-3.81-5.86l.78-.77c1.86,1.65,4,6,4,6.17Z"/><path class="cls-30" d="M168.17,67s-2.26-4.35-5.62-6.28l.61-.89c3.62,2.08,5.92,6.5,6,6.69Z"/><path class="cls-30" d="M162.8,67a1.24,1.24,0,0,1-.43-.26,1.37,1.37,0,0,1,.29-2,1.86,1.86,0,0,1,1.23-.5,1.21,1.21,0,0,1,.86.33,1.36,1.36,0,0,1-.28,2,1.87,1.87,0,0,1-1.24.51A1.49,1.49,0,0,1,162.8,67Zm1.1-1.69h-.06a.73.73,0,0,0-.43.2c-.25.23-.26.46-.22.51a.15.15,0,0,0,.09,0,.68.68,0,0,0,.43-.2h0c.25-.22.27-.46.22-.5Z"/><path class="cls-26" d="M155.54,75.53l-10.09-6.36c-1.07,6.55-4.93,14.68-4.93,14.68l8.07,9.33S154.57,82.27,155.54,75.53Z"/><path class="cls-31" d="M144,75.1c-1.28-2.45-2.13-13.47.27-15s10.67,1.66,12.42,2.68.08,4.5-1.42,4c-1.12-.38-4.5-2-6-1.73-.51.09-.58.78-.45,1.24s7.71,4.51,6.78,9.38C154.24,82.34,145.36,77.78,144,75.1Z"/><polygon class="cls-32" points="154.48 83.19 142.52 77.29 139.47 84.34 150.34 93.88 154.48 83.19"/><path class="cls-33" d="M150.74,90.06c-4.13-.34-6.87-5.08-6.1-10.59.05-.35.11-.7.18-1l-2.3-1.14-3.05,7.06,10.87,9.53L151.83,90A5.66,5.66,0,0,1,150.74,90.06Z"/><path class="cls-34" d="M140.33,81.38c-7.51,12.64-16.77,21.53-27.15,23.75-4.66,6.92-5.74,13.76-1.72,20.46,21.25-.63,39.8-31.3,39.8-31.3Z"/><path class="cls-35" d="M134,95.59c2.45-4.19,5.8-9.26,7.54-12.8l-1.2-1.41c-7.51,12.64-16.77,21.53-27.15,23.75-4.66,6.92-5.74,13.76-1.72,20.46a30,30,0,0,0,14.3-4.62C124.25,115.71,127.49,106.69,134,95.59Z"/><path class="cls-31" d="M151.4,53.87c.39-2.46,0-4.44-2.28-4.76-2-.29-2.92,1.23-3.41,3.28s.15,3.44,1.65,4S151,56.49,151.4,53.87Z"/><path class="cls-31" d="M156.91,55.8c.51-2.25.34-4.18-1.62-4.85-1.73-.59-2.59.7-3.15,2.57s-.1,3.27,1.15,4S156.37,58.21,156.91,55.8Z"/><path class="cls-31" d="M162.09,58c.51-2.26.34-4.18-1.62-4.85-1.73-.6-2.59.7-3.15,2.56s-.1,3.27,1.14,4S161.55,60.4,162.09,58Z"/><path class="cls-36" d="M141.73,90.91a2,2,0,0,0-1-2.74A2.35,2.35,0,0,0,138,89.61a2,2,0,0,0,1,2.75A2.36,2.36,0,0,0,141.73,90.91Z"/><path class="cls-33" d="M141.45,90.4a1.65,1.65,0,0,0-.82-2.3,2,2,0,0,0-2.33,1.21,1.65,1.65,0,0,0,.82,2.3A2,2,0,0,0,141.45,90.4Z"/><path class="cls-36" d="M144.07,93a1.26,1.26,0,0,0-.62-1.76,1.5,1.5,0,0,0-1.78.93,1.25,1.25,0,0,0,.62,1.75A1.5,1.5,0,0,0,144.07,93Z"/><path class="cls-33" d="M143.89,92.65a1,1,0,0,0-.52-1.47,1.27,1.27,0,0,0-1.49.77,1.06,1.06,0,0,0,.53,1.47A1.25,1.25,0,0,0,143.89,92.65Z"/><path class="cls-37" d="M107.92,198.93H64.06a9.33,9.33,0,0,1-9.32-9.34V81.68A9.33,9.33,0,0,1,64,72.29h43.91a9.32,9.32,0,0,1,9.31,9.33V189.5a9.32,9.32,0,0,1-9.21,9.43Z"/><path class="cls-38" d="M107.81,76h-6.5v1.22a2.84,2.84,0,0,1-2.82,2.86H73.68a2.83,2.83,0,0,1-2.83-2.85h0V76H64.26a5.47,5.47,0,0,0-5.47,5.47v108.2a5.47,5.47,0,0,0,5.43,5.51h43.7a5.41,5.41,0,0,0,5.42-5.41V81.48A5.68,5.68,0,0,0,107.81,76Z"/><circle class="cls-39" cx="92.73" cy="76.99" r="0.61"/><path class="cls-40" d="M54.34,89H55v5h-.7Z"/><path class="cls-41" d="M54.34,98.21H55v9.18h-.7Z"/><path class="cls-42" d="M59.91,195.46a.1.1,0,0,0,.09-.1c-1-.71-2.73-3.07-2.63-9.7.11-7.14,0-104.29,0-104.29a8.75,8.75,0,0,1,2.94-6.5c.11,0,0-.11-.1-.11-.91.42-3.14,1.85-3.64,5.62-.61,4.69-.3,105.51-.3,105.51s-.21,7.94,3.64,9.57Z"/><path class="cls-43" d="M108.22,198.17H63.86a8.75,8.75,0,0,1-8.67-8.78V81a8.74,8.74,0,0,1,8.67-8.78h44.36A8.73,8.73,0,0,1,116.89,81V189.39A8.86,8.86,0,0,1,108.22,198.17ZM63.86,72.8A8.15,8.15,0,0,0,55.76,81V189.34a8.15,8.15,0,0,0,8.1,8.16h44.36a8.15,8.15,0,0,0,8.1-8.16V81a8.16,8.16,0,0,0-8.1-8.17Z"/><path class="cls-44" d="M109.73,153.39H62.4a1.89,1.89,0,0,0-2,1.73v4.06a1.89,1.89,0,0,0,2,1.73h47.33a1.89,1.89,0,0,0,2-1.73v-4.06A1.89,1.89,0,0,0,109.73,153.39Zm-6.15,3.75-5.79.13c-3.86.09-7.72.1-11.58.11s-7.72,0-11.58-.11-7.72-.16-11.58-.35c3.86-.2,7.72-.29,11.58-.36s7.72-.1,11.58-.11,7.72,0,11.58.11l5.79.13c1.93.08,3.86.12,5.79.23C107.44,157,105.51,157.07,103.58,157.14Z"/><g class="cls-45"><path class="cls-46" d="M100.05,148.06,89.78,112a1.93,1.93,0,0,1-2.37-1.35v-.16a1.84,1.84,0,0,1-.05-.57.54.54,0,0,1,0-.18.34.34,0,0,1,0-.17l.05-.17.06-.15.07-.13v0l.07-.12a0,0,0,0,0,0,0l.08-.1.05,0,.07-.09.06-.05.07-.07.07,0,.08-.06.08,0,.08,0,.1,0h.06l.18-.06L86,98.85A4.2,4.2,0,0,0,80.86,96L52,104.15a4.19,4.19,0,0,0-2.88,5.19v0l2.65,9.31a1.79,1.79,0,0,1,1.39.24l.14.09.12.1.11.1v0l.09.1,0,.06.06.1.05.08,0,.09.05.13v0L54,120v.16a1.93,1.93,0,0,1-1.07,2.29l10.26,36.09a4.2,4.2,0,0,0,5.18,2.87l28.86-8.17a4.22,4.22,0,0,0,2.87-5.2ZM81.8,111.26h.33l.12,0,.13.09a.9.9,0,0,1,.29.4v.07a.89.89,0,0,1-1.68.59l0-.11v0a.85.85,0,0,1,0-.5l.06-.14.08-.11.05,0,.08-.08.08-.05.06,0a.49.49,0,0,1,.17-.06A.57.57,0,0,1,81.8,111.26Zm-3.67,1h.33l.13,0a.92.92,0,0,1,.44.51,0,0,0,0,0,0,0,.89.89,0,0,1-1.72.49.91.91,0,0,1,.08-.67l.08-.12v0l.09-.08.08,0,.06,0,.17-.07Zm-4.08,1.15.18,0h.34a.61.61,0,0,1,.14.07.87.87,0,0,1,.42.52.9.9,0,0,1-.6,1.11h0a.86.86,0,1,1-.47-1.66Zm-3.68,1a.9.9,0,1,1-.6,1.13.9.9,0,0,1,.6-1.13Zm-3.67,1.08a.9.9,0,1,1-.61,1.11h0a.88.88,0,0,1,.6-1.1Zm-3.68,1a.91.91,0,0,1,1.11.63v.07a.91.91,0,0,1-.63,1,.88.88,0,0,1-1.07-.54v-.08A.89.89,0,0,1,63,116.59Zm-6.86,3.83a.9.9,0,1,1,.61-1.12h0v.13A.91.91,0,0,1,56.16,120.42Zm3.68-1a.91.91,0,0,1-1.07-.51s0-.08,0-.11a.9.9,0,0,1,.62-1.11.89.89,0,0,1,1.1.62h0v.1A.9.9,0,0,1,59.84,119.37Zm26-7.39a.9.9,0,0,1-1.1-.62h0v-.09a.92.92,0,0,1,0-.33.38.38,0,0,1,0-.15.5.5,0,0,1,.05-.13l.07-.09.06,0,.07-.06a.14.14,0,0,1,.08,0l.05,0,.17-.06h.5l.1,0,.12.07.11.1a1,1,0,0,1,.17.28l0,.1A.9.9,0,0,1,85.79,112Z"/><path class="cls-47" d="M88.2,110.24a1.94,1.94,0,0,0,2.35,1.39l10.27,36.08A4.2,4.2,0,0,1,98,152.92l-28.86,8.21a4.2,4.2,0,0,1-5.18-2.87L53.64,122.13a2,2,0,0,0,1.11-2.58,2,2,0,0,0-2.2-1.23L49.91,109a4.19,4.19,0,0,1,2.86-5.2h0l28.86-8.21a4.22,4.22,0,0,1,5.19,2.92h0l2.65,9.31a1.91,1.91,0,0,0-1.28,2.4Zm-31.73,8.1a.9.9,0,0,0-.61,1.11h0a.89.89,0,1,0,1.71-.5A.89.89,0,0,0,56.47,118.34Zm3.68-1a.9.9,0,0,0,.48,1.74.91.91,0,0,0,.63-1.11h0a.91.91,0,0,0-1.11-.63h0Zm3.68-1a.9.9,0,1,0,1.1.63h0a.89.89,0,0,0-1.09-.63h0Zm3.68-1a.9.9,0,1,0,1.09.62.9.9,0,0,0-1.09-.62Zm3.63-1.06a.89.89,0,0,0-.61,1.1h0a.9.9,0,0,0,1.11.6.88.88,0,0,0,.6-1.1A.87.87,0,0,0,71.14,114.14Zm3.69-1a.9.9,0,1,0,1.1.63h0a.89.89,0,0,0-1.1-.6ZM78.72,112a.9.9,0,1,0,1.11.63h0a.89.89,0,0,0-1.1-.62Zm3.68-1a.9.9,0,0,0-.63,1.11A.9.9,0,1,0,82.4,111h0Zm3.67-1a.89.89,0,0,0-.61,1.1h0a.89.89,0,0,0,1.71-.5A.88.88,0,0,0,86.07,109.89Z"/><path class="cls-48" d="M71.93,128.37l1.7,5.94L67.68,136,66,130.06l5.94-1.69m1.39-2.48-9.81,2.79,2.79,9.8,9.81-2.77-2.79-9.8Z"/><path class="cls-48" d="M70.81,130.39l-2.79.79.79,2.8,2.79-.8Zm13.41-5.52,1.69,5.94L80,132.5l-1.69-5.94,5.94-1.69m1.39-2.48-9.81,2.79L78.59,135l9.81-2.79-2.79-9.81Z"/><path class="cls-48" d="M83.1,126.89l-2.79.8.79,2.79,2.79-.79Zm-1,9.72-2.79.79.79,2.79,2.8-.79Zm5.33,3.59.55,2-2,.56-.55-2,2-.56m1.38-2.48L83,139.36l1.65,5.82,5.82-1.65Zm-13.36,2.88,1.69,5.94-5.94,1.69-1.69-5.94,5.94-1.69m1.38-2.48L67,140.9l2.79,9.81,9.81-2.77-2.79-9.81Z"/><path class="cls-48" d="M74.29,142.62l-2.79.79.79,2.79,2.79-.79Zm14.79-8-1.94.55,2.26,7.93-7.86,2.24.53,1.88,9.8-2.79Z"/><path class="cls-49" d="M89.47,107.82l-2.66-9.31a4.2,4.2,0,0,0-5.17-2.92L52.78,103.8A4.2,4.2,0,0,0,49.9,109h0l2.65,9.3a1.93,1.93,0,0,1,2.28,1.44v.15l1-.3-.06-.13a.9.9,0,0,1,.61-1.11l.08,0a.91.91,0,0,1,1.11.62v.13l2-.58,0-.11a.89.89,0,1,1,1.71-.49V118l2-.58v-.08a.9.9,0,0,1,1.69-.6l0,.11v.07l2-.57v-.06a.88.88,0,0,1,.61-1.1.9.9,0,0,1,1.11.61h0a0,0,0,0,0,0,.05l2-.57a.89.89,0,1,1,1.72-.49l2-.58a.92.92,0,0,1,.62-1.11.9.9,0,0,1,1.1.61l2.16-.64a.89.89,0,0,1,1.7-.5l2-.57a.89.89,0,0,1,1.71-.5l2-.58a.89.89,0,0,1,1.7-.49l1-.3a1.93,1.93,0,0,1,1.28-2.33Z"/><path class="cls-50" d="M105,99.47l-30,.1a4.19,4.19,0,0,0-4.14,4.23v9.68a2,2,0,0,1,0,4L71,155a4.21,4.21,0,0,0,4.19,4.21l30-.1a4.2,4.2,0,0,0,4.17-4.23h0l-.12-37.52a1.92,1.92,0,0,1-1.88-2,.54.54,0,0,1,0-.18V115a0,0,0,0,1,0,0,.29.29,0,0,1,0-.13v-.06l0-.12v0l.05-.11v-.06l0-.11v-.06l.06-.09,0-.06.07-.08,0-.06.07-.07.06-.06.07-.06.06-.06.08,0,.07-.05.08,0,.08,0,.07,0,.1,0h.62V103.8A4.21,4.21,0,0,0,105,99.47Zm-7.06,15h.16l.08,0,.06,0,.09.06h0l.08.09a.57.57,0,0,1,.08.13.61.61,0,0,1,.07.14v.27a.9.9,0,0,1-1.79,0h0v-.1a.87.87,0,0,1,.1-.31.64.64,0,0,1,.08-.14l.1-.1.09-.07h.06l.08,0h.34A.66.66,0,0,1,97.93,114.5Zm-4.05,0H94l.09,0h.05l.11.08.09.1a.9.9,0,0,1,.17.47.08.08,0,0,1,0,.07.89.89,0,1,1-1.78,0h0v0a1,1,0,0,1,.16-.48l.1-.12a.48.48,0,0,1,.11-.09h0l.1,0h.33a1,1,0,0,1,.25,0Zm-3.82,0h.16l.1,0h.05l.11.1a.82.82,0,0,1,.27.6v0a.89.89,0,1,1-1.51-.62l.11-.1h.05l.1,0h.09a.11.11,0,0,1,.08,0h.17Zm-4,0h.34l.11.06h0l.13.1a.88.88,0,0,1,.26.63.89.89,0,0,1-.77,1h-.1a.9.9,0,1,1,0-1.8Zm-3.83,0a.88.88,0,0,1,.9.88h0a.89.89,0,1,1-.89-.92Zm-3.82,0a.9.9,0,0,1,.9.9v0a.89.89,0,1,1-1.77,0v-.07a.9.9,0,0,1,.87-.84Zm-3.82,0a.91.91,0,0,1,.9.9v.08a.89.89,0,1,1-.89-1Zm27,1.8a.91.91,0,0,1-.89-.9v-.13a.83.83,0,0,1,0-.15.58.58,0,0,1,0-.14.75.75,0,0,1,.07-.12.3.3,0,0,1,.08-.08l0,0,.09-.06h.06l.08,0h.33a.48.48,0,0,1,.17,0h.16l.07,0,.07,0,.08,0,0,0,.08.08v0l.07.09.06.12v.28A.92.92,0,0,1,101.58,116.3Zm3.83,0a.9.9,0,0,1-.9-.9v-.16a.56.56,0,0,1,0-.12v0a.19.19,0,0,1,0-.1v0l.06-.08,0,0,.06-.07.06,0,.07-.05.07,0H105l.1,0h.45l.11,0h.06l.08,0,.06.05.07,0,.05,0,0,.07.06.06V115l0,.07v.33a.89.89,0,0,1-.74.86Z"/><path class="cls-51" d="M108,115.24a1.94,1.94,0,0,0,1.88,2h0l.13,37.51A4.22,4.22,0,0,1,105.8,159h0l-30,.1a4.2,4.2,0,0,1-4.22-4.19v0l-.13-37.52a2,2,0,0,0,0-4V103.7a4.2,4.2,0,0,1,4.15-4.23h0l30-.1a4.21,4.21,0,0,1,4.21,4.2h0v9.68A1.94,1.94,0,0,0,108,115.24Zm-32.79-.79a.91.91,0,1,0,.9.91h0A.9.9,0,0,0,75.17,114.45Zm3.83,0a.9.9,0,1,0,.89.9h0a.89.89,0,0,0-.87-.9Zm3.82,0a.9.9,0,1,0,.89.9h0a.88.88,0,0,0-.87-.91h0Zm3.82,0a.9.9,0,1,0,.9.9.9.9,0,0,0-.9-.9Zm3.83,0a.89.89,0,0,0-.89.9h0a.89.89,0,0,0,1.78,0h0a.9.9,0,0,0-.84-.95h0Zm3.82,0a.91.91,0,1,0,.89.91h0a.9.9,0,0,0-.83-1h0Zm4,0a.9.9,0,1,0,.89.9h0a.89.89,0,0,0-.81-1h-.06Zm3.83,0a.89.89,0,0,0-.91.89.9.9,0,0,0,1.8,0h0a.89.89,0,0,0-.79-1h-.08Zm3.82,0a.64.64,0,1,0,.1-.1H106Z"/><path class="cls-37" d="M87.4,128.29v6.18H81.22V128.3H87.4m2-2H79.21v10.19H89.4V126.28Z"/><path class="cls-37" d="M85.77,129.94h-2.9v2.91l2.9,0Zm14.41-1.69v6.18H94v-6.18h6.18m2-2H92v10.2h10.2v-10.2Z"/><path class="cls-37" d="M98.54,129.89h-2.9v2.91h2.9v-2.91ZM94.93,139H92v2.9h2.91Zm4.15,4.9v2h-2v-2h2m2-2H95v6h6ZM87.45,141v6.18H81.27V141h6.18m2-2H79.26v10.2H89.45l0-10.19Z"/><path class="cls-37" d="M85.81,142.64l-2.9,0v2.9h2.9ZM102.22,139h-2l0,8.25-8.18,0v1.95l10.19,0Z"/><path class="cls-52" d="M73.27,115.42l0,0h1v-.1a.89.89,0,0,1,1.78,0v.08h2.05v-.07a.89.89,0,0,1,1.78,0v.06h2v0a.9.9,0,1,1,1.79,0h2a.9.9,0,1,1,1.79,0h2a.89.89,0,1,1,1.78,0h2a.89.89,0,0,1,1.78,0h2.29a.88.88,0,0,1,1.76,0h2.06a.89.89,0,0,1,1.76,0h2.07a.88.88,0,0,1,1-.73.89.89,0,0,1,.74.73H108a1.91,1.91,0,0,1,1.86-1.8v-9.68a4.21,4.21,0,0,0-4.2-4.21h0L75.6,99.47a4.2,4.2,0,0,0-4.17,4.21v9.7a1.92,1.92,0,0,1,1.81,2Z"/></g></svg>