<svg width="77" height="89" viewBox="0 0 77 89" fill="none" xmlns="http://www.w3.org/2000/svg">
<path opacity="0.1" d="M33.4622 87.9204C51.9428 87.9204 66.9243 83.1781 66.9243 77.3283C66.9243 71.4784 51.9428 66.7362 33.4622 66.7362C14.9815 66.7362 0 71.4784 0 77.3283C0 83.1781 14.9815 87.9204 33.4622 87.9204Z" fill="#231F20"/>
<path opacity="0.1" d="M24.5973 70.9667L49.6926 72.9772L76.0759 61.7935C77.5106 61.1861 77.2016 59.0656 75.6518 58.8981L56.9442 56.8561L24.5973 70.9667Z" fill="#252223"/>
<path d="M64.0961 0.0583851C65.8449 0.414421 68.5466 2.21031 68.5466 5.09525L66.5674 16.546L67.1067 16.6978L65.7559 24.9966L65.2323 24.8291L58.1901 68.5325C57.6927 71.6321 55.2214 73.8364 52.4202 73.6794L27.1312 72.2814C26.8904 72.2657 26.6443 72.229 26.4087 72.1714C24.1311 71.5955 22.7017 69.0561 23.2148 66.4958L35.0478 4.58214C35.5871 1.9014 37.7023 0.000790681 40.1475 0.000790681H63.494C63.6982 -0.00444515 63.8972 0.0164985 64.0961 0.0583851Z" fill="#292942"/>
<path d="M64.0972 0.0583851C65.846 0.414421 67.0083 2.29408 66.6942 4.25752L64.7255 16.4779L65.2648 16.6298L63.914 24.9286L63.3904 24.761L56.3377 68.5325C55.8403 71.6321 53.369 73.8364 50.5678 73.6794L25.2788 72.2814C25.0379 72.2657 24.7918 72.229 24.5562 72.1714C22.2787 71.5955 20.8493 69.0561 21.3624 66.4958L33.1954 4.58214C33.7346 1.9014 35.8499 0.000790681 38.295 0.000790681H63.4951C63.6993 -0.00444515 63.8982 0.0164985 64.0972 0.0583851Z" fill="#3F3D56"/>
<path d="M41.5358 1.33568C41.6091 2.39332 42.3945 3.21011 43.3422 3.21011H56.2747C56.7511 3.21011 57.17 2.84883 57.2957 2.33049C57.437 1.74407 57.9135 1.33568 58.4528 1.33568H61.7723C61.9241 1.33568 62.076 1.35139 62.2226 1.3828C63.6048 1.6603 64.5211 3.14728 64.2698 4.69708L54.0861 68.171C53.8243 69.7994 52.5153 70.9512 51.0441 70.8413L25.8336 68.9878C25.7236 68.9773 25.6137 68.9616 25.5037 68.9354C24.2942 68.637 23.5298 67.3019 23.7916 65.9406L35.1324 4.5243C35.4937 2.66034 36.9649 1.33044 38.6613 1.33044H41.5358V1.33568Z" fill="white"/>
<path opacity="0.2" d="M41.5358 1.33568C41.6091 2.39332 42.3945 3.21011 43.3422 3.21011H56.2747C56.7511 3.21011 57.17 2.84883 57.2957 2.33049C57.437 1.74407 57.9135 1.33568 58.4528 1.33568H61.7723C61.9241 1.33568 62.076 1.35139 62.2226 1.3828C63.6048 1.6603 64.5211 3.14728 64.2698 4.69708L54.0861 68.171C53.8243 69.7994 52.5153 70.9512 51.0441 70.8413L25.8336 68.9878C25.7236 68.9773 25.6137 68.9616 25.5037 68.9354C24.2942 68.637 23.5298 67.3019 23.7916 65.9406L35.1324 4.5243C35.4937 2.66034 36.9649 1.33044 38.6613 1.33044H41.5358V1.33568Z" fill="#F1F2F2"/>
<path d="M65.7562 24.9916L63.9132 24.9236L65.2641 16.63L67.1071 16.6981L65.7562 24.9916Z" fill="#292942"/>
<path d="M66.5673 16.5457L67.1065 16.6975L65.2635 16.6295L64.7242 16.4776L66.5673 16.5457Z" fill="#3F3D56"/>
<path opacity="0.1" d="M62.3425 82.4028C63.3488 82.4028 64.1645 82.2903 64.1645 82.1515C64.1645 82.0127 63.3488 81.9001 62.3425 81.9001C61.3362 81.9001 60.5204 82.0127 60.5204 82.1515C60.5204 82.2903 61.3362 82.4028 62.3425 82.4028Z" fill="#231F20"/>
<path d="M62.3789 82.0927C62.3789 82.0927 59.8239 73.7206 62.7769 70.3697C64.9864 67.8617 67.4943 68.1601 68.6148 68.4743C69.2012 68.6314 69.6934 69.0345 69.9552 69.5843C70.3479 70.4325 70.2746 71.8043 67.5048 73.4117C62.8659 76.0977 62.5779 79.7837 62.5779 79.7837L62.3789 82.0927Z" fill="#006747"/>
<path d="M62.3162 82.109C61.4419 76.8732 63.0859 73.7527 64.62 72.0563C66.285 70.2132 68.1856 69.6059 68.2013 69.6006L68.2432 69.7315C68.2223 69.7368 66.3531 70.3389 64.7143 72.1557C63.2011 73.8312 61.5832 76.9151 62.4471 82.0933L62.3162 82.109Z" fill="white"/>
<path d="M64.599 72.2764L64.4681 72.2345C64.777 71.245 63.7927 70.5695 63.7822 70.5591L63.8555 70.4491C63.8712 70.4596 64.9341 71.1874 64.599 72.2764Z" fill="white"/>
<path d="M63.154 74.5382L63.0283 74.4858C63.0964 74.3183 63.2168 74.1978 63.3791 74.135C63.8346 73.9622 64.4891 74.2921 64.5205 74.3078L64.4577 74.4282C64.4525 74.423 63.8242 74.1141 63.4262 74.2607C63.2953 74.313 63.2063 74.402 63.154 74.5382Z" fill="white"/>
<path d="M62.5213 75.8779C62.5213 75.8256 62.5004 75.7785 62.4585 75.7418C62.2962 75.6004 61.8878 75.5952 61.7464 75.6057L61.736 75.4695C61.7569 75.4695 62.3119 75.4277 62.5475 75.6371C62.6156 75.6999 62.6522 75.7785 62.6575 75.8675L62.5213 75.8779Z" fill="white"/>
<path d="M62.274 82.1615C62.274 82.1615 65.2637 76.0775 66.0857 76.2084C66.4732 76.2712 66.6564 76.6534 66.735 77.0408C66.8345 77.5382 66.7769 78.0566 66.5727 78.5226C66.1538 79.4964 65.0124 81.3499 62.274 82.1615Z" fill="#006747"/>
<path d="M62.3433 82.1828L62.3014 82.0571C62.7831 81.9 65.1444 78.591 66.0136 77.3292L66.1235 77.4077C65.9927 77.591 62.9611 81.9786 62.3433 82.1828Z" fill="white"/>
<path d="M65.4697 79.6784L64.3241 79.7272L64.3299 79.8632L65.4755 79.8144L65.4697 79.6784Z" fill="white"/>
<path d="M64.8426 78.3947L64.7094 78.4224L64.8339 79.0222L64.9672 78.9945L64.8426 78.3947Z" fill="white"/>
<path d="M63.51 80.7793L63.489 80.2347L63.6252 80.2295L63.6461 80.774L63.51 80.7793Z" fill="white"/>
<path d="M62.364 82.1615C62.364 82.1615 59.3743 76.0775 58.5523 76.2084C58.1649 76.2712 57.9816 76.6534 57.9031 77.0408C57.8036 77.5382 57.8612 78.0566 58.0654 78.5226C58.4895 79.4964 59.6309 81.3499 62.364 82.1615Z" fill="#006747"/>
<path d="M62.3004 82.1828C61.6826 81.9786 58.651 77.591 58.5201 77.4077L58.6301 77.3292C59.4992 78.591 61.8606 81.8948 62.3423 82.0571L62.3004 82.1828Z" fill="white"/>
<path d="M59.0188 78.0091H58.2858V78.1452H59.0188V78.0091Z" fill="white"/>
<path d="M59.1716 79.6741L59.1658 79.8101L60.3114 79.8589L60.3172 79.7229L59.1716 79.6741Z" fill="white"/>
<path d="M59.7997 78.3973L59.675 78.9971L59.8083 79.0248L59.9329 78.425L59.7997 78.3973Z" fill="white"/>
<path d="M61.1277 80.7793L60.9968 80.774L61.0178 80.2295L61.1539 80.2347L61.1277 80.7793Z" fill="white"/>
<path opacity="0.1" d="M53.5729 79.6383C54.9956 79.6383 56.1489 79.4789 56.1489 79.2822C56.1489 79.0856 54.9956 78.9262 53.5729 78.9262C52.1502 78.9262 50.9968 79.0856 50.9968 79.2822C50.9968 79.4789 52.1502 79.6383 53.5729 79.6383Z" fill="#231F20"/>
<path opacity="0.1" d="M58.909 83.0516C59.921 83.0516 60.7415 82.9391 60.7415 82.8003C60.7415 82.6615 59.921 82.549 58.909 82.549C57.8969 82.549 57.0764 82.6615 57.0764 82.8003C57.0764 82.9391 57.8969 83.0516 58.909 83.0516Z" fill="#231F20"/>
<path opacity="0.1" d="M69.789 83.0942C70.801 83.0942 71.6215 82.9816 71.6215 82.8428C71.6215 82.704 70.801 82.5915 69.789 82.5915C68.7769 82.5915 67.9564 82.704 67.9564 82.8428C67.9564 82.9816 68.7769 83.0942 69.789 83.0942Z" fill="#231F20"/>
<path d="M70.7561 82.3132C70.8713 82.2189 70.9551 82.0933 70.997 81.9519C71.0336 81.8053 70.9655 81.6482 70.8294 81.5802C70.6723 81.5226 70.51 81.6273 70.3844 81.7372C70.2587 81.8472 70.1173 81.9676 69.9498 81.9467C70.1226 81.7896 70.2011 81.5592 70.154 81.3288C70.1488 81.2817 70.1278 81.2398 70.0964 81.2032C70.0126 81.1089 69.8555 81.1508 69.7508 81.2241C69.4262 81.4545 69.332 81.8995 69.332 82.2975C69.3163 82.1509 69.3163 82.0043 69.332 81.8524C69.3424 81.7006 69.2848 81.554 69.1644 81.4597C69.0859 81.4178 69.0021 81.3969 68.9131 81.4021C68.7665 81.3812 68.6147 81.4231 68.4995 81.5173C68.3738 81.6482 68.4052 81.8734 68.5152 82.02C68.6356 82.1561 68.7822 82.2713 68.9393 82.3603C69.0597 82.4336 69.1644 82.5331 69.243 82.6483C69.2534 82.664 69.2587 82.6797 69.2639 82.7006H70.1854C70.4001 82.5959 70.5886 82.465 70.7561 82.3132Z" fill="#006747"/>
<path d="M54.6203 78.8473C54.7354 78.7531 54.8192 78.6274 54.8611 78.4861C54.8978 78.3395 54.8297 78.1824 54.6936 78.1143C54.5365 78.0567 54.3742 78.1614 54.2485 78.2714C54.1229 78.3814 53.9815 78.5018 53.8139 78.4808C53.9867 78.3238 54.0653 78.0934 54.0181 77.863C54.0129 77.8159 53.992 77.774 53.9605 77.7374C53.8768 77.6431 53.7197 77.685 53.615 77.7583C53.2904 77.9887 53.1961 78.4337 53.1961 78.8316C53.1804 78.685 53.1752 78.5384 53.1909 78.3918C53.2013 78.24 53.1438 78.0934 53.0233 77.9991C52.9448 77.9573 52.861 77.9363 52.772 77.9415C52.6254 77.9206 52.4736 77.9625 52.3584 78.0567C52.2484 78.2086 52.2537 78.418 52.3741 78.5594C52.4945 78.6955 52.6411 78.8107 52.7982 78.8997C52.9186 78.973 53.0233 79.0725 53.1019 79.1929C53.1123 79.2086 53.1176 79.2243 53.1228 79.2453H54.0443C54.259 79.1353 54.4475 79.0044 54.6203 78.8473Z" fill="#006747"/>
<path d="M59.9982 82.3132C60.1134 82.2189 60.1971 82.0933 60.239 81.9519C60.2757 81.8053 60.2076 81.6482 60.0715 81.5802C59.9144 81.5226 59.7521 81.6273 59.6264 81.7372C59.5008 81.8472 59.3594 81.9676 59.1919 81.9467C59.3646 81.7896 59.4432 81.5592 59.3961 81.3288C59.3908 81.2817 59.3699 81.2398 59.3385 81.2032C59.2547 81.1089 59.0976 81.1508 58.9929 81.2241C58.6683 81.4545 58.574 81.8995 58.574 82.2975C58.5583 82.1509 58.5583 82.0043 58.574 81.8524C58.5845 81.7006 58.5269 81.554 58.4065 81.4597C58.3279 81.4178 58.2442 81.3969 58.1552 81.4021C58.0086 81.3812 57.8567 81.4231 57.7415 81.5173C57.6159 81.6482 57.6473 81.8734 57.7572 82.02C57.8777 82.1561 58.0243 82.2713 58.1813 82.3603C58.3018 82.4336 58.4065 82.5331 58.485 82.6483C58.4955 82.664 58.5007 82.6797 58.506 82.7006H59.4275C59.6421 82.5959 59.8306 82.465 59.9982 82.3132Z" fill="#006747"/>
<path opacity="0.1" d="M53.2326 47.1551L31.572 46.9876L31.8495 45.4587L53.5101 45.6263L53.2326 47.1551Z" fill="#006747"/>
<path opacity="0.1" d="M53.7933 44.1034L32.1274 43.9358L32.4102 42.407L54.0708 42.5745L53.7933 44.1034Z" fill="#006747"/>
<path opacity="0.1" d="M47.2897 50.861L30.8911 50.7354L31.1686 49.2065L47.5672 49.3322L47.2897 50.861Z" fill="#006747"/>
<path opacity="0.1" d="M46.788 53.6157L30.3894 53.4849L30.6669 51.956L47.0655 52.0869L46.788 53.6157Z" fill="#006747"/>
<path opacity="0.1" d="M54.7671 39.2641H32.7609C31.4258 39.2641 30.5357 38.1751 30.7765 36.8399L34.6458 15.5144C34.8866 14.1793 36.1799 13.0902 37.5098 13.0902H59.5212C60.8563 13.0902 61.7464 14.1793 61.5056 15.5144L57.6363 36.8399C57.3902 38.1751 56.1022 39.2641 54.7671 39.2641Z" fill="#006747"/>
<path d="M58.2008 33.7358C56.7872 33.9924 55.6719 34.2437 56.3107 34.584C57.5778 35.2594 60.0282 36.4899 46.6297 36.4899C33.2312 36.4899 51.4519 29.4634 51.4519 29.4634L59.4156 27.034L58.2008 33.7358Z" fill="#DA924E"/>
<g opacity="0.15">
<path opacity="0.15" d="M48.5619 36.1918L48.7033 36.2703L48.8499 36.1551L48.7609 36.0399L48.5619 36.1918Z" fill="#231F20"/>
<path opacity="0.15" d="M49.4362 35.3173H49.5775L49.5932 35.244L49.5095 35.1707L49.4362 35.3173Z" fill="#231F20"/>
<path opacity="0.15" d="M49.1748 34.8717L49.0334 34.8036L49.0125 34.9188L49.0596 34.9974L49.1748 34.8717Z" fill="#231F20"/>
<path opacity="0.15" d="M48.2592 35.6732L48.3272 35.7674L48.4843 35.7203L48.5471 35.626L48.3639 35.5737L48.2592 35.6732Z" fill="#231F20"/>
<path opacity="0.15" d="M50.2269 35.1439L50.0593 35.1857L50.0646 35.3428L50.3002 35.2905L50.2269 35.1439Z" fill="#231F20"/>
<path opacity="0.15" d="M49.0596 35.6369L49.0125 35.6998L49.0439 35.8097L49.1748 35.705L49.0596 35.6369Z" fill="#231F20"/>
<path opacity="0.15" d="M48.1953 35.9924L48.3 36.0605L48.389 36.0029L48.3576 35.8982L48.1953 35.9924Z" fill="#231F20"/>
<path opacity="0.15" d="M49.1532 36.2597L49.2265 36.3906L49.2998 36.2911L49.305 36.1969L49.1532 36.2597Z" fill="#231F20"/>
<path opacity="0.15" d="M50.1234 35.7833L50.0239 35.8409L50.1444 35.977L50.2752 35.9403L50.27 35.8094L50.1234 35.7833Z" fill="#231F20"/>
<path opacity="0.15" d="M51.1597 33.5111L51.0288 33.4221L50.877 33.5268L50.9503 33.6525L51.1597 33.5111Z" fill="#231F20"/>
<path opacity="0.15" d="M49.5097 34.9719L49.5725 34.8881L49.494 34.8148L49.4155 34.909L49.3526 34.8829L49.3369 34.9719L49.3736 35.0295L49.4312 34.9666L49.5097 34.9719Z" fill="#231F20"/>
<path opacity="0.15" d="M50.5468 34.6948V34.6844L50.5049 34.632L50.4264 34.7367L50.4787 34.7524L50.4369 34.7943L50.5625 34.8781L50.5939 34.7629L50.5625 34.6791L50.5468 34.6948Z" fill="#231F20"/>
<path opacity="0.15" d="M52.2742 34.9086L52.4574 35.0185L52.5098 34.8458L52.3736 34.7672L52.2742 34.9086Z" fill="#231F20"/>
<path opacity="0.15" d="M50.6721 34.3635L50.7663 34.3687L50.8187 34.2588L50.6511 34.2326L50.6721 34.3635Z" fill="#231F20"/>
<path opacity="0.15" d="M51.0227 35.2652L51.1431 35.2285L51.2112 35.15L51.0698 35.1028L51.0227 35.2652Z" fill="#231F20"/>
<path opacity="0.15" d="M51.9028 35.317L51.8818 35.5159L51.9918 35.5631L52.0756 35.4531L52.0075 35.3275L51.9028 35.317Z" fill="#231F20"/>
<path opacity="0.15" d="M50.7919 34.4322L50.9332 34.5107L51.0798 34.3903L50.9908 34.2751L50.7919 34.4322Z" fill="#231F20"/>
<path opacity="0.15" d="M51.6672 33.5523H51.8086L51.8243 33.479L51.7405 33.4109L51.6672 33.5523Z" fill="#231F20"/>
<path opacity="0.15" d="M52.2697 32.9348L52.3534 33.0029L52.4581 32.851H52.322L52.2697 32.9348Z" fill="#231F20"/>
<path opacity="0.15" d="M51.4058 33.1082L51.2645 33.0454L51.2435 33.1606L51.2907 33.2339L51.4058 33.1082Z" fill="#231F20"/>
<path opacity="0.15" d="M50.5624 34.0078L50.7143 33.9607L50.7771 33.8612L50.6305 33.8245L50.7509 33.6989L50.6357 33.657L50.5363 33.7565L50.5939 33.8141L50.4891 33.9083L50.5624 34.0078Z" fill="#231F20"/>
<path opacity="0.15" d="M52.2899 33.4275L52.3004 33.5793L52.5308 33.527L52.4575 33.3856L52.2899 33.4275Z" fill="#231F20"/>
<path opacity="0.15" d="M51.4059 33.9454L51.2907 33.8721L51.2436 33.935L51.2593 33.9821L51.1912 33.9978L51.1179 34.092L51.2959 34.1549L51.4059 34.0659L51.3588 33.9821L51.4059 33.9454Z" fill="#231F20"/>
<path opacity="0.15" d="M50.5311 34.2962L50.6201 34.2438L50.5887 34.1339L50.4264 34.2334L50.5311 34.2962Z" fill="#231F20"/>
<path opacity="0.15" d="M51.5364 34.4321L51.3846 34.5001L51.3898 34.5106L51.3689 34.5211L51.3113 34.6363L51.4631 34.631V34.6258L51.5364 34.5315V34.4321Z" fill="#231F20"/>
<path opacity="0.15" d="M52.5001 34.0499L52.3535 34.0184L52.254 34.0813L52.3745 34.2174L52.5053 34.1755L52.5001 34.0499Z" fill="#231F20"/>
<path opacity="0.15" d="M53.1066 31.7623L53.1799 31.8932L53.3945 31.7519L53.2584 31.6628L53.1066 31.7623Z" fill="#231F20"/>
<path opacity="0.15" d="M52.4522 32.5582L52.3109 32.5478L52.2899 32.6211L52.3685 32.6996L52.4522 32.5582Z" fill="#231F20"/>
<path opacity="0.15" d="M51.8032 33.1285L51.7247 33.05L51.6095 33.1966L51.7404 33.2123L51.8032 33.1285Z" fill="#231F20"/>
<path opacity="0.15" d="M52.7933 33.1131L52.8247 32.9979L52.7933 32.9194L52.6676 33.0346L52.7933 33.1131Z" fill="#231F20"/>
<path opacity="0.15" d="M53.6355 32.3067L53.5779 32.202L53.4261 32.2386L53.3475 32.3277L53.5256 32.3957L53.6355 32.3067Z" fill="#231F20"/>
<path opacity="0.15" d="M54.5048 33.1498L54.688 33.2598L54.7404 33.087L54.6042 33.0085L54.5048 33.1498Z" fill="#231F20"/>
<path opacity="0.15" d="M52.9031 32.5995L52.9974 32.61L53.0497 32.4948L52.8822 32.4738L52.9031 32.5995Z" fill="#231F20"/>
<path opacity="0.15" d="M53.2533 33.5061L53.3737 33.4694L53.4418 33.3857L53.3004 33.3385L53.2533 33.5061Z" fill="#231F20"/>
<path opacity="0.15" d="M54.1324 33.5577L54.1115 33.7515L54.2266 33.8038L54.3052 33.6886L54.2371 33.5682L54.1324 33.5577Z" fill="#231F20"/>
<path opacity="0.15" d="M54.3904 31.8142L54.2385 31.9294L54.3485 31.9922L54.4584 31.9032L54.3904 31.8142Z" fill="#231F20"/>
<path opacity="0.15" d="M55.024 31.2074L54.9612 31.1551L54.9088 31.265H55.0188L55.024 31.2074Z" fill="#231F20"/>
<path opacity="0.15" d="M55.4315 30.8457L55.51 30.7253H55.4053L55.3634 30.7933L55.4315 30.8457Z" fill="#231F20"/>
<path opacity="0.15" d="M54.7094 30.9239L54.5994 30.8716L54.5837 30.9606L54.6204 31.0182L54.7094 30.9239Z" fill="#231F20"/>
<path opacity="0.15" d="M54.0127 31.5372L54.0651 31.6105L54.1802 31.5738L54.2326 31.5005L54.0912 31.4639L54.0127 31.5372Z" fill="#231F20"/>
<path opacity="0.15" d="M55.5684 31.2433L55.5108 31.1333L55.3799 31.1647L55.3852 31.2171L55.3537 31.1804L55.2019 31.3061L55.3171 31.3584L55.4061 31.2799L55.5684 31.2433Z" fill="#231F20"/>
<path opacity="0.15" d="M54.5837 31.5525L54.6047 31.6363L54.7094 31.5578L54.6204 31.5054L54.5837 31.5525Z" fill="#231F20"/>
<path opacity="0.15" d="M54.746 32.0818L54.8036 32.0085L54.8088 31.9352L54.6936 31.9823L54.746 32.0818Z" fill="#231F20"/>
<path opacity="0.15" d="M55.4318 31.6208L55.3533 31.6627L55.4475 31.7674L55.547 31.736L55.5418 31.6418L55.4318 31.6208Z" fill="#231F20"/>
<path opacity="0.15" d="M56.0033 29.8981L56.0609 29.9976L56.2232 29.8929L56.1185 29.8195L56.0033 29.8981Z" fill="#231F20"/>
<path opacity="0.15" d="M55.5046 30.5049L55.3999 30.4944L55.3842 30.552L55.4365 30.6096L55.5046 30.5049Z" fill="#231F20"/>
<path opacity="0.15" d="M55.6676 30.8669L55.7671 30.9297L55.788 30.8407L55.7618 30.7779L55.6676 30.8669Z" fill="#231F20"/>
<path opacity="0.15" d="M56.2424 30.2593L56.1901 30.3326L56.321 30.3798L56.4047 30.3117L56.3628 30.2332L56.2424 30.2593Z" fill="#231F20"/>
<path opacity="0.15" d="M57.0654 30.9557L57.2068 31.0395L57.2487 30.9033L57.144 30.8457L57.0654 30.9557Z" fill="#231F20"/>
<path opacity="0.15" d="M56.3795 30.6574L56.3324 30.7464H56.4476L56.4319 30.6417L56.3795 30.6574Z" fill="#231F20"/>
<path opacity="0.15" d="M56.1177 31.2281L56.2067 31.1967L56.259 31.1338L56.1491 31.1024L56.1177 31.2281Z" fill="#231F20"/>
<path opacity="0.15" d="M56.7828 31.2644L56.7723 31.4162L56.8561 31.4529L56.9189 31.3691L56.8666 31.2749L56.7828 31.2644Z" fill="#231F20"/>
<path opacity="0.15" d="M58.6835 28.0449L58.7672 28.1234L58.9034 27.9873L58.783 27.9454L58.6835 28.0449Z" fill="#231F20"/>
<path opacity="0.15" d="M58.2115 28.7931L58.2848 28.8402L58.3267 28.725L58.2115 28.7407V28.7931Z" fill="#231F20"/>
<path opacity="0.15" d="M57.9245 29.2433L57.8564 29.2014L57.7883 29.3271L57.893 29.3114L57.9245 29.2433Z" fill="#231F20"/>
<path opacity="0.15" d="M58.6519 28.9194L58.5786 29.0241L58.6886 29.0556L58.6938 28.9718L58.6519 28.9194Z" fill="#231F20"/>
<path opacity="0.15" d="M59.0605 28.2689L58.9506 28.3212L58.9087 28.3998L59.0553 28.4155L59.1286 28.3317L59.0605 28.2689Z" fill="#231F20"/>
<path opacity="0.15" d="M57.6572 28.8339L57.7305 28.9334L57.8562 28.8863L57.83 28.7711L57.6572 28.8339Z" fill="#231F20"/>
<path opacity="0.15" d="M58.4845 28.4111L58.5787 28.4477L58.6049 28.4006L58.5735 28.3221L58.4845 28.4111Z" fill="#231F20"/>
<path opacity="0.15" d="M59.2074 28.0919L59.1184 28.0553L59.0555 28.1076L59.0922 28.1809L59.2074 28.0919Z" fill="#231F20"/>
<path opacity="0.15" d="M58.3635 27.9084L58.3164 27.9922L58.3216 28.0655L58.4368 28.0027L58.3635 27.9084Z" fill="#231F20"/>
<path opacity="0.15" d="M57.7407 28.458L57.8088 28.4004L57.7041 28.3114L57.6046 28.3586L57.6256 28.4528L57.7407 28.458Z" fill="#231F20"/>
<path opacity="0.15" d="M57.191 30.2333L57.301 30.2856L57.4109 30.1966L57.3376 30.1076L57.191 30.2333Z" fill="#231F20"/>
<path opacity="0.15" d="M57.8772 29.4267L57.8248 29.5419L57.94 29.5366L57.9453 29.4791L57.8772 29.4267Z" fill="#231F20"/>
<path opacity="0.15" d="M58.2632 29.0494L58.3313 29.0966L58.4046 28.9761L58.3051 28.9814L58.2632 29.0494Z" fill="#231F20"/>
<path opacity="0.15" d="M57.4896 29.2585L57.5263 29.3109L57.61 29.2166L57.5001 29.1695L57.4896 29.2585Z" fill="#231F20"/>
<path opacity="0.15" d="M57.1597 29.8042L57.0131 29.778L56.9398 29.8513L56.9974 29.9246L57.1126 29.8828L57.1597 29.8042Z" fill="#231F20"/>
<path opacity="0.15" d="M56.1124 29.443L56.1752 29.3279L56.0181 29.2703L55.9972 29.4012L56.1124 29.443Z" fill="#231F20"/>
<path opacity="0.15" d="M56.8665 29.5419L56.9189 29.5157L56.9503 29.4267L56.8351 29.4424L56.8665 29.5419Z" fill="#231F20"/>
<path opacity="0.15" d="M57.5057 29.6463L57.4742 29.5573L57.4009 29.5625L57.3748 29.6516L57.5057 29.6463Z" fill="#231F20"/>
<path opacity="0.15" d="M57.1016 28.9346L57.0126 28.9713L56.9707 29.0394L57.0859 29.0603L57.1016 28.9346Z" fill="#231F20"/>
<path opacity="0.15" d="M56.3745 28.9915L56.3326 29.0595L56.3378 29.1328L56.453 29.07L56.385 28.9915H56.4164L56.4059 28.8449L56.3169 28.8187L56.2645 28.9077L56.3326 28.9915H56.3745Z" fill="#231F20"/>
<path opacity="0.15" d="M56.9141 29.0555L56.7989 29.0136L56.6995 29.1131L56.778 29.1916L56.9141 29.0555Z" fill="#231F20"/>
<path opacity="0.15" d="M56.223 29.867L56.2963 29.9089L56.3382 29.7937L56.2283 29.8094L56.223 29.867Z" fill="#231F20"/>
<path opacity="0.15" d="M55.94 30.3113L55.8667 30.2747L55.8038 30.3951L55.9085 30.3846L55.94 30.3113Z" fill="#231F20"/>
<path opacity="0.15" d="M56.667 29.9866L56.5885 30.0913L56.7037 30.128L56.7089 30.039L56.667 29.9866Z" fill="#231F20"/>
<path opacity="0.15" d="M57.2067 29.406L57.1439 29.3432L57.0287 29.3955L56.9921 29.4688L57.1387 29.4845L57.2067 29.406Z" fill="#231F20"/>
<path opacity="0.15" d="M55.7409 30.003L55.8718 29.9558L55.8456 29.8459L55.6676 29.9087L55.7409 30.003Z" fill="#231F20"/>
<path opacity="0.15" d="M56.6205 29.4683L56.5891 29.3897L56.4949 29.4787L56.5944 29.5206L56.6205 29.4683Z" fill="#231F20"/>
<path opacity="0.15" d="M57.2229 29.1601L57.1339 29.1234L57.071 29.1758L57.1077 29.2491L57.2229 29.1601Z" fill="#231F20"/>
<path opacity="0.15" d="M55.751 29.526L55.8243 29.4684L55.7144 29.3847L55.6201 29.4266L55.6358 29.5208L55.751 29.526Z" fill="#231F20"/>
<path opacity="0.15" d="M55.9292 30.526L55.9606 30.458L55.8297 30.4423L55.8454 30.5365L55.8716 30.5417L55.8402 30.6098L55.9501 30.6046L55.9606 30.547L55.9292 30.526Z" fill="#231F20"/>
<path opacity="0.15" d="M56.4216 30.0499L56.3169 30.0551L56.2803 30.1232L56.3483 30.1703L56.4216 30.0499Z" fill="#231F20"/>
<path opacity="0.15" d="M55.5158 30.2387L55.5001 30.3277L55.5368 30.3853L55.6258 30.2859L55.5158 30.2387Z" fill="#231F20"/>
<path opacity="0.15" d="M54.9707 30.9033L54.9497 30.8824L54.8607 30.9923L54.9602 31.0028L54.9864 30.9662L55.0073 30.9923L55.1277 30.9504L55.1696 30.8771L55.0283 30.8457L54.9707 30.9033Z" fill="#231F20"/>
<path opacity="0.15" d="M54.1279 30.5107L54.1907 30.4008L54.0336 30.338L54.0127 30.4688L54.1279 30.5107Z" fill="#231F20"/>
<path opacity="0.15" d="M54.8455 30.5153L54.8769 30.6096L54.9345 30.5886L54.9659 30.4944L54.8455 30.5153Z" fill="#231F20"/>
<path opacity="0.15" d="M55.4889 30.6265L55.4156 30.6318L55.3842 30.7208H55.5203L55.4889 30.6265Z" fill="#231F20"/>
<path opacity="0.15" d="M55.1126 30.0028L55.0288 30.0447L54.9817 30.1075L55.0969 30.1285L55.1126 30.0028Z" fill="#231F20"/>
<path opacity="0.15" d="M54.4319 30.0612L54.4214 29.9146L54.3324 29.8884L54.28 29.9826L54.3481 30.0612H54.4319Z" fill="#231F20"/>
<path opacity="0.15" d="M50.1745 34.4374L50.1483 34.4427L50.2216 34.3222L50.0803 34.3065L50.0593 34.3798L50.1222 34.4479L50.0646 34.4531L50.0593 34.5107L50.1326 34.5526L50.1745 34.4374Z" fill="#231F20"/>
<path opacity="0.15" d="M49.7768 34.9557L49.7035 34.9191L49.6406 35.0395L49.7453 35.029L49.7768 34.9557Z" fill="#231F20"/>
<path opacity="0.15" d="M50.8232 34.119L50.9751 34.1294L51.0431 34.0509L50.9803 33.9881L50.8651 34.0404L50.8232 34.119Z" fill="#231F20"/>
<path opacity="0.15" d="M49.5778 34.6469L49.7087 34.5997L49.6825 34.4898L49.5045 34.5526L49.5778 34.6469Z" fill="#231F20"/>
<path opacity="0.15" d="M50.4584 34.1132L50.427 34.0346L50.3328 34.1236L50.4322 34.1655L50.4584 34.1132Z" fill="#231F20"/>
<path opacity="0.15" d="M50.9712 33.7673L50.9083 33.8197L50.945 33.893L51.0602 33.8092L50.9712 33.7673Z" fill="#231F20"/>
<path opacity="0.15" d="M50.2896 33.7156L50.2163 33.6266L50.1692 33.7104L50.1744 33.7785L50.2896 33.7156Z" fill="#231F20"/>
<path opacity="0.15" d="M49.5893 34.1709L49.6626 34.1133L49.5526 34.0296L49.4584 34.0715L49.4741 34.1657L49.5893 34.1709Z" fill="#231F20"/>
<path opacity="0.15" d="M49.19 35.8248L49.0382 35.9504L49.1534 36.0028L49.2581 35.9085L49.19 35.8248Z" fill="#231F20"/>
<path opacity="0.15" d="M49.7305 35.1439L49.6781 35.2538L49.7881 35.2486L49.7985 35.191L49.7305 35.1439Z" fill="#231F20"/>
<path opacity="0.15" d="M50.1852 34.8139L50.2585 34.6935L50.1695 34.6987L50.2271 34.6097H50.0909L50.0386 34.6987L50.1171 34.7616V34.7668L50.1852 34.8139Z" fill="#231F20"/>
<path opacity="0.15" d="M48.7876 35.5682L48.8452 35.6362L48.9604 35.5943L49.0075 35.521L48.8661 35.4896L48.7876 35.5682Z" fill="#231F20"/>
<path opacity="0.15" d="M47.8501 35.1185L47.9653 35.1604L48.0281 35.0452L47.871 34.9824L47.8501 35.1185Z" fill="#231F20"/>
<path opacity="0.15" d="M48.8028 35.1388L48.6824 35.1597L48.7138 35.254L48.7714 35.233L48.8028 35.1388Z" fill="#231F20"/>
<path opacity="0.15" d="M49.2535 35.2757L49.222 35.3647H49.3582L49.3268 35.2704L49.2535 35.2757Z" fill="#231F20"/>
<path opacity="0.15" d="M48.9494 34.6472L48.8656 34.6891L48.8185 34.7519L48.9337 34.7729L48.9494 34.6472Z" fill="#231F20"/>
<path opacity="0.15" d="M48.1692 34.5318L48.1168 34.626L48.1849 34.7046H48.2687L48.2582 34.558L48.1692 34.5318Z" fill="#231F20"/>
<path opacity="0.15" d="M52.6202 33.1446L52.5573 33.0555L52.4003 33.176L52.5102 33.2336L52.6202 33.1446Z" fill="#231F20"/>
<path opacity="0.15" d="M53.0706 32.5059H53.1805L53.1857 32.4535L53.1229 32.3959L53.0706 32.5059Z" fill="#231F20"/>
<path opacity="0.15" d="M53.5256 32.034L53.5937 32.0863L53.6722 31.9711H53.5675L53.5256 32.034Z" fill="#231F20"/>
<path opacity="0.15" d="M52.8713 32.1698L52.7613 32.1175L52.7456 32.2065L52.7823 32.2641L52.8713 32.1698Z" fill="#231F20"/>
<path opacity="0.15" d="M52.3426 32.8141L52.395 32.7408L52.2536 32.7042L52.175 32.7775L52.2274 32.8508L52.3426 32.8141Z" fill="#231F20"/>
<path opacity="0.15" d="M53.5523 32.526L53.7304 32.4841L53.6728 32.3741L53.5419 32.4055L53.5523 32.526Z" fill="#231F20"/>
<path opacity="0.15" d="M52.7718 32.8827L52.8713 32.8042L52.7823 32.7518L52.7456 32.7989L52.7718 32.8827Z" fill="#231F20"/>
<path opacity="0.15" d="M52.1228 33.024L52.2066 33.0712L52.2694 33.0293L52.2485 32.9507L52.1228 33.024Z" fill="#231F20"/>
<path opacity="0.15" d="M52.8553 33.2227L52.9077 33.3274L52.9653 33.2488L52.9705 33.1755L52.8553 33.2227Z" fill="#231F20"/>
<path opacity="0.15" d="M53.6459 32.8717H53.693L53.6721 32.7356L53.5988 32.7565L53.5412 32.8717H53.5726L53.515 32.9084L53.6093 33.0131L53.7087 32.9817L53.7035 32.8822L53.6459 32.8717Z" fill="#231F20"/>
<path opacity="0.15" d="M54.1641 31.144L54.2217 31.2382L54.384 31.1335L54.2792 31.0655L54.1641 31.144Z" fill="#231F20"/>
<path opacity="0.15" d="M53.6668 31.7465L53.5621 31.7413L53.5464 31.7937L53.604 31.8565L53.6668 31.7465Z" fill="#231F20"/>
<path opacity="0.15" d="M53.17 32.1816L53.1124 32.124L53.0234 32.234L53.1282 32.2444L53.17 32.1816Z" fill="#231F20"/>
<path opacity="0.15" d="M53.8295 32.1072L53.9289 32.1701L53.9499 32.0811L53.9237 32.0182L53.8295 32.1072Z" fill="#231F20"/>
<path opacity="0.15" d="M54.5681 31.5576L54.5262 31.4791L54.4058 31.5052L54.3534 31.5733L54.4843 31.6257L54.5681 31.5576Z" fill="#231F20"/>
<path opacity="0.15" d="M55.2283 32.1964L55.3696 32.2801L55.4115 32.1492L55.3068 32.0916L55.2283 32.1964Z" fill="#231F20"/>
<path opacity="0.15" d="M54.5946 31.8831L54.5422 31.8988L54.4951 31.9878H54.6103L54.5946 31.8831Z" fill="#231F20"/>
<path opacity="0.15" d="M54.1224 31.6993L53.9915 31.6836L54.0072 31.7517L53.9601 31.7778L54.0439 31.8302L54.1067 31.7883L54.0962 31.7517L54.1224 31.6993Z" fill="#231F20"/>
<path opacity="0.15" d="M54.4214 32.3804L54.3114 32.3438L54.28 32.4694L54.369 32.438L54.4214 32.3804Z" fill="#231F20"/>
<path opacity="0.15" d="M54.945 32.5057L54.9346 32.6576L55.0183 32.6942L55.0812 32.6105L55.0288 32.5162L54.945 32.5057Z" fill="#231F20"/>
</g>
<path d="M31.6657 31.7454C31.8752 31.6983 32.0741 31.6564 32.2522 31.6093C39.2367 29.8762 59.4523 26.7661 59.4523 26.7661L59.3476 27.384L30.7338 36.6933L31.6657 31.7454Z" fill="#DA924E"/>
<g opacity="0.15">
<path opacity="0.15" d="M31.8338 34.5892L31.7657 34.4583L31.6086 34.5002L31.6191 34.6363L31.8338 34.5892Z" fill="#231F20"/>
<path opacity="0.15" d="M32.1797 36.2225L32.2792 36.3848L32.3839 36.2487L32.3054 36.1335L32.1797 36.2225Z" fill="#231F20"/>
<path opacity="0.15" d="M31.153 35.1761L31.221 35.218L31.2996 35.1342L31.1791 35.0557L31.153 35.1761Z" fill="#231F20"/>
<path opacity="0.15" d="M31.0958 36.1075L31.2005 36.1127L31.2791 36.0656L31.1901 35.9766L31.0958 36.1075Z" fill="#231F20"/>
<path opacity="0.15" d="M31.7503 36.459L31.6613 36.6266L31.7293 36.7104L31.834 36.6371L31.8236 36.5062L31.7503 36.459Z" fill="#231F20"/>
<path opacity="0.15" d="M31.2157 35.2802L31.2995 35.4006L31.4513 35.343L31.4251 35.2121L31.2157 35.2802Z" fill="#231F20"/>
<path opacity="0.15" d="M32.2059 34.7983L32.3159 34.8506L32.3525 34.793L32.3159 34.6988L32.2059 34.7983Z" fill="#231F20"/>
<path opacity="0.15" d="M32.891 34.4582L32.9276 34.5524L33.0638 34.4477L32.9643 34.4006L32.891 34.4582Z" fill="#231F20"/>
<path opacity="0.15" d="M32.1636 34.3116L32.0798 34.2017L32.0222 34.3011L32.0327 34.3849L32.1636 34.3116Z" fill="#231F20"/>
<path opacity="0.15" d="M31.1942 34.8197L31.3251 34.8302L31.4141 34.7673L31.3094 34.6783L31.4507 34.6103L31.3722 34.5317L31.2622 34.5893L31.2884 34.6574L31.1732 34.7098L31.1942 34.8197Z" fill="#231F20"/>
<path opacity="0.15" d="M32.7291 34.9033L32.6768 35.0447L32.8757 35.0813V34.9243L32.7291 34.9033Z" fill="#231F20"/>
<path opacity="0.15" d="M31.8656 35.0602L31.8028 34.9555L31.7452 34.9974L31.7347 35.0445L31.6824 35.034L31.5934 35.0864L31.7033 35.2068L31.8185 35.1701L31.8133 35.0759L31.8656 35.0602Z" fill="#231F20"/>
<path opacity="0.15" d="M31.0698 35.0705L31.1536 35.0495L31.1693 34.9448L31.0122 34.971L31.0698 35.0705Z" fill="#231F20"/>
<path opacity="0.15" d="M31.7869 35.5422L31.6455 35.5474L31.6507 35.5631L31.6245 35.5579L31.5408 35.6417L31.6612 35.694V35.6888L31.7502 35.626L31.7869 35.5422Z" fill="#231F20"/>
<path opacity="0.15" d="M32.6667 35.5372L32.562 35.4587L32.4678 35.4796L32.5097 35.6419L32.6248 35.6524L32.6667 35.5372Z" fill="#231F20"/>
<path opacity="0.15" d="M33.9541 33.7037L33.9646 33.8451L34.1792 33.7927L34.1112 33.6671L33.9541 33.7037Z" fill="#231F20"/>
<path opacity="0.15" d="M33.1697 34.1863L33.065 34.1288L33.0231 34.1863L33.0493 34.2806L33.1697 34.1863Z" fill="#231F20"/>
<path opacity="0.15" d="M32.4623 34.469L32.4309 34.3748L32.2896 34.4638L32.3838 34.5214L32.4623 34.469Z" fill="#231F20"/>
<path opacity="0.15" d="M33.2258 34.8034L33.2938 34.7092V34.6254L33.1577 34.683L33.2258 34.8034Z" fill="#231F20"/>
<path opacity="0.15" d="M34.1635 34.3742L34.1583 34.2643L34.0274 34.2381L33.9384 34.2957L34.0483 34.4161L34.1635 34.3742Z" fill="#231F20"/>
<path opacity="0.15" d="M34.5261 35.4324L34.6256 35.5948L34.7303 35.4586L34.6518 35.3382L34.5261 35.4324Z" fill="#231F20"/>
<path opacity="0.15" d="M33.4939 34.3798L33.562 34.4217L33.6457 34.3379L33.5253 34.2594L33.4939 34.3798Z" fill="#231F20"/>
<path opacity="0.15" d="M33.4408 35.3117L33.5455 35.3169L33.624 35.2698L33.535 35.1808L33.4408 35.3117Z" fill="#231F20"/>
<path opacity="0.15" d="M34.0962 35.6627L34.0072 35.8355L34.0753 35.9192L34.18 35.8459L34.1695 35.7151L34.0962 35.6627Z" fill="#231F20"/>
<path opacity="0.15" d="M34.9228 34.1966L34.7605 34.2542L34.8233 34.3432L34.9385 34.3013L34.9228 34.1966Z" fill="#231F20"/>
<path opacity="0.15" d="M35.6239 33.8769L35.5977 33.8088L35.5139 33.8873L35.5977 33.924L35.6239 33.8769Z" fill="#231F20"/>
<path opacity="0.15" d="M36.0635 33.6934L36.1682 33.6201L36.0897 33.5835L36.0374 33.6254L36.0635 33.6934Z" fill="#231F20"/>
<path opacity="0.15" d="M35.4834 33.5164L35.4205 33.4326L35.3787 33.5059L35.3839 33.5688L35.4834 33.5164Z" fill="#231F20"/>
<path opacity="0.15" d="M34.7286 33.8193L34.7443 33.9031L34.8438 33.9083L34.9119 33.8612L34.8176 33.7774L34.7286 33.8193Z" fill="#231F20"/>
<path opacity="0.15" d="M36.0274 34.1019L36.0222 33.9814L35.9123 33.9657L35.8966 34.0129L35.8861 33.9657L35.729 34.0286L35.7971 34.1123L35.8913 34.0757L36.0274 34.1019Z" fill="#231F20"/>
<path opacity="0.15" d="M35.1635 34.0336L35.1478 34.1174L35.2525 34.0807L35.2054 34.0022L35.1635 34.0336Z" fill="#231F20"/>
<path opacity="0.15" d="M35.0958 34.5632L35.1691 34.5161L35.1953 34.4532H35.0906L35.0958 34.5632Z" fill="#231F20"/>
<path opacity="0.15" d="M35.7877 34.39L35.7144 34.4005L35.7458 34.5261L35.8348 34.5314L35.8662 34.4476L35.7877 34.39Z" fill="#231F20"/>
<path opacity="0.15" d="M36.8499 33.0555L36.8551 33.1602L37.0174 33.1236L36.965 33.0241L36.8499 33.0555Z" fill="#231F20"/>
<path opacity="0.15" d="M36.248 33.4215L36.1695 33.3744L36.1381 33.4163L36.159 33.4896L36.248 33.4215Z" fill="#231F20"/>
<path opacity="0.15" d="M36.2429 33.7987L36.2953 33.8877L36.3424 33.8197L36.3476 33.7516L36.2429 33.7987Z" fill="#231F20"/>
<path opacity="0.15" d="M36.9028 33.4585L36.8347 33.5004L36.9185 33.5946L37.0075 33.5632L37.0023 33.4794L36.9028 33.4585Z" fill="#231F20"/>
<path opacity="0.15" d="M37.2792 34.3634L37.3577 34.489L37.4362 34.3843L37.3787 34.2953L37.2792 34.3634Z" fill="#231F20"/>
<path opacity="0.15" d="M36.8613 33.8615L36.7932 33.9243L36.8875 33.9609L36.9084 33.8615H36.8613Z" fill="#231F20"/>
<path opacity="0.15" d="M36.4565 34.2753L36.5351 34.2806L36.5927 34.2439L36.5246 34.1758L36.4565 34.2753Z" fill="#231F20"/>
<path opacity="0.15" d="M36.9549 34.5418L36.8868 34.6727L36.9392 34.7356L37.0177 34.6832L37.0125 34.5837L36.9549 34.5418Z" fill="#231F20"/>
<path opacity="0.15" d="M39.5725 32.3329L39.6039 32.4272L39.761 32.3539L39.6825 32.2753L39.5725 32.3329Z" fill="#231F20"/>
<path opacity="0.15" d="M38.9387 32.8358L38.9754 32.9039L39.0487 32.8149L38.9597 32.7887L38.9387 32.8358Z" fill="#231F20"/>
<path opacity="0.15" d="M38.5574 33.1386L38.5155 33.0757L38.4213 33.1648L38.5103 33.1909L38.5574 33.1386Z" fill="#231F20"/>
<path opacity="0.15" d="M39.232 33.1016L39.1326 33.1696L39.2111 33.2377L39.2425 33.1592L39.232 33.1016Z" fill="#231F20"/>
<path opacity="0.15" d="M39.8289 32.6884L39.7242 32.6989L39.6666 32.7513L39.7713 32.8193L39.8551 32.7722L39.8289 32.6884Z" fill="#231F20"/>
<path opacity="0.15" d="M38.4993 32.6829L38.515 32.7928H38.6302L38.6563 32.6881L38.4993 32.6829Z" fill="#231F20"/>
<path opacity="0.15" d="M39.2834 32.5893L39.341 32.6573L39.3829 32.6207V32.5421L39.2834 32.5893Z" fill="#231F20"/>
<path opacity="0.15" d="M39.9547 32.5574L39.8971 32.4946L39.8342 32.5155V32.5993L39.9547 32.5574Z" fill="#231F20"/>
<path opacity="0.15" d="M39.3728 32.1017L39.3048 32.1593L39.2891 32.2221L39.3938 32.2064L39.3728 32.1017Z" fill="#231F20"/>
<path opacity="0.15" d="M38.6977 32.3691L38.771 32.3429L38.7186 32.2278L38.6296 32.2382L38.6086 32.3272L38.6977 32.3691Z" fill="#231F20"/>
<path opacity="0.15" d="M37.6345 33.7673L37.7026 33.8511L37.8178 33.8092L37.7916 33.7045L37.6345 33.7673Z" fill="#231F20"/>
<path opacity="0.15" d="M38.4522 33.2853L38.3737 33.3691L38.4627 33.4005L38.4836 33.3534L38.4522 33.2853Z" fill="#231F20"/>
<path opacity="0.15" d="M38.8871 33.0864L38.9237 33.1545L39.0232 33.0707L38.9394 33.0393L38.8871 33.0864Z" fill="#231F20"/>
<path opacity="0.15" d="M38.2157 32.9982L38.2209 33.061L38.3257 33.0034L38.2576 32.9249L38.2157 32.9982Z" fill="#231F20"/>
<path opacity="0.15" d="M37.7669 33.3745L37.6674 33.296L37.5784 33.3378L37.5993 33.4216H37.704L37.7669 33.3745Z" fill="#231F20"/>
<path opacity="0.15" d="M37.0964 32.6831L37.1854 32.6045L37.0859 32.4946L37.0231 32.6045L37.0964 32.6831Z" fill="#231F20"/>
<path opacity="0.15" d="M37.6345 33.034L37.6869 33.0287L37.7445 32.9607L37.645 32.9345L37.6345 33.034Z" fill="#231F20"/>
<path opacity="0.15" d="M38.0854 33.3534L38.0959 33.2592L38.0383 33.2383L37.986 33.3116L38.0854 33.3534Z" fill="#231F20"/>
<path opacity="0.15" d="M38.0335 32.5735L37.9549 32.5787L37.8973 32.6206L37.9811 32.6782L38.0335 32.5735Z" fill="#231F20"/>
<path opacity="0.15" d="M37.4574 32.3692L37.3999 32.4215L37.3789 32.4843L37.4889 32.4686L37.4679 32.3744L37.4889 32.3849L37.536 32.2487L37.4784 32.1964L37.4051 32.2592L37.426 32.3587L37.4574 32.3692Z" fill="#231F20"/>
<path opacity="0.15" d="M37.8499 32.6151L37.7713 32.5366L37.6614 32.5942L37.698 32.6884L37.8499 32.6151Z" fill="#231F20"/>
<path opacity="0.15" d="M37.0276 33.0971L37.0695 33.1651L37.1428 33.0761L37.0485 33.0499L37.0276 33.0971Z" fill="#231F20"/>
<path opacity="0.15" d="M36.6504 33.4013L36.6085 33.3385L36.5143 33.4275L36.5981 33.4537L36.6504 33.4013Z" fill="#231F20"/>
<path opacity="0.15" d="M37.3213 33.3638L37.2271 33.4266L37.3004 33.4999L37.337 33.4214L37.3213 33.3638Z" fill="#231F20"/>
<path opacity="0.15" d="M37.9493 33.0292L37.9232 32.9507L37.8132 32.9612L37.7556 33.0135L37.8656 33.0816L37.9493 33.0292Z" fill="#231F20"/>
<path opacity="0.15" d="M36.6091 33.0546H36.7243L36.7452 32.9446H36.5881L36.6091 33.0546Z" fill="#231F20"/>
<path opacity="0.15" d="M37.4784 32.8829V32.8044L37.3789 32.8515L37.4365 32.9196L37.4784 32.8829Z" fill="#231F20"/>
<path opacity="0.15" d="M38.0435 32.8196L37.9912 32.7568L37.9231 32.7777L37.9283 32.8615L38.0435 32.8196Z" fill="#231F20"/>
<path opacity="0.15" d="M36.7868 32.6314L36.8653 32.6052L36.813 32.49L36.7239 32.4952L36.703 32.5842L36.7868 32.6314Z" fill="#231F20"/>
<path opacity="0.15" d="M36.5619 33.5836L36.609 33.5365L36.52 33.4737L36.4991 33.5679L36.5148 33.5784L36.4677 33.6307L36.5514 33.6622L36.5776 33.615L36.5619 33.5836Z" fill="#231F20"/>
<path opacity="0.15" d="M37.1119 33.3319L37.0333 33.3005L36.981 33.3476L37.0124 33.4105L37.1119 33.3319Z" fill="#231F20"/>
<path opacity="0.15" d="M36.3468 33.1861L36.3102 33.2594L36.3154 33.3222L36.4149 33.2646L36.3468 33.1861Z" fill="#231F20"/>
<path opacity="0.15" d="M35.6976 33.5891L35.6871 33.5629L35.5771 33.631L35.6504 33.6729L35.6819 33.6519L35.6923 33.6833H35.7918L35.8546 33.6362L35.7604 33.5577L35.6976 33.5891Z" fill="#231F20"/>
<path opacity="0.15" d="M35.1898 32.9453L35.2735 32.8668L35.1793 32.7568L35.1165 32.8668L35.1898 32.9453Z" fill="#231F20"/>
<path opacity="0.15" d="M35.7395 33.1962L35.729 33.2957L35.7761 33.2905L35.8337 33.2224L35.7395 33.1962Z" fill="#231F20"/>
<path opacity="0.15" d="M36.1903 33.5209L36.1327 33.5L36.0803 33.568L36.1798 33.6152L36.1903 33.5209Z" fill="#231F20"/>
<path opacity="0.15" d="M36.1273 32.8353L36.0488 32.8405L35.9912 32.8824L36.0697 32.94L36.1273 32.8353Z" fill="#231F20"/>
<path opacity="0.15" d="M35.5816 32.6461L35.6287 32.51L35.5659 32.4576L35.4926 32.5204L35.5187 32.6199L35.5816 32.6461Z" fill="#231F20"/>
<path opacity="0.15" d="M31.3571 35.0077L31.467 35.0757L31.5508 35.0234L31.5246 34.9448L31.4147 34.9553L31.3571 35.0077Z" fill="#231F20"/>
<path opacity="0.15" d="M31.5931 34.7514L31.525 34.7724L31.5303 34.8509L31.6455 34.8143L31.5931 34.7514Z" fill="#231F20"/>
<path opacity="0.15" d="M33.0857 34.7674L33.0648 34.6679L32.9077 34.7203L32.9705 34.8093L33.0857 34.7674Z" fill="#231F20"/>
<path opacity="0.15" d="M33.6559 34.3536L33.7397 34.3955L33.7711 34.3484L33.7397 34.2751L33.6559 34.3536Z" fill="#231F20"/>
<path opacity="0.15" d="M34.1788 34.0969L34.2103 34.165L34.315 34.0864L34.2364 34.0498L34.1788 34.0969Z" fill="#231F20"/>
<path opacity="0.15" d="M33.625 33.9817L33.5621 33.8979L33.5203 33.9712L33.5255 34.0393L33.625 33.9817Z" fill="#231F20"/>
<path opacity="0.15" d="M32.9912 34.3796L33.054 34.3273L32.9597 34.2487L32.8707 34.2854L32.8864 34.3691L32.9912 34.3796Z" fill="#231F20"/>
<path opacity="0.15" d="M34.0173 34.542L34.1692 34.5681V34.453L34.054 34.432L34.0173 34.542Z" fill="#231F20"/>
<path opacity="0.15" d="M33.2954 34.5845L33.4001 34.5531L33.353 34.4745L33.3059 34.5059L33.2954 34.5845Z" fill="#231F20"/>
<path opacity="0.15" d="M32.7502 34.4848L32.7921 34.5581L32.855 34.5424L32.8707 34.4639L32.7502 34.4848Z" fill="#231F20"/>
<path opacity="0.15" d="M33.2322 34.9242L33.2427 35.0342L33.3107 34.9818L33.3421 34.919L33.2322 34.9242Z" fill="#231F20"/>
<path opacity="0.15" d="M33.97 34.8823L34.0015 34.898L34.0381 34.7724L33.97 34.7672L33.8863 34.8509L33.9125 34.8614L33.8549 34.8719L33.8863 34.9975L33.9753 35.0028L34.0067 34.9138L33.97 34.8823Z" fill="#231F20"/>
<path opacity="0.15" d="M34.9904 33.5202L35.0008 33.625L35.1579 33.5883L35.1055 33.4888L34.9904 33.5202Z" fill="#231F20"/>
<path opacity="0.15" d="M34.3885 33.8878L34.31 33.8407L34.2786 33.8878L34.2995 33.9611L34.3885 33.8878Z" fill="#231F20"/>
<path opacity="0.15" d="M33.8548 34.1018L33.8286 34.0285L33.7186 34.0966L33.7972 34.1437L33.8548 34.1018Z" fill="#231F20"/>
<path opacity="0.15" d="M34.3834 34.2653L34.4358 34.3596L34.4881 34.2863V34.2234L34.3834 34.2653Z" fill="#231F20"/>
<path opacity="0.15" d="M35.1485 34.034L35.1433 33.945L35.0438 33.9293L34.9757 33.9712L35.0595 34.0602L35.1485 34.034Z" fill="#231F20"/>
<path opacity="0.15" d="M35.4258 34.8352L35.4991 34.9609L35.5776 34.8562L35.52 34.7672L35.4258 34.8352Z" fill="#231F20"/>
<path opacity="0.15" d="M35.0539 34.3324L35.0015 34.3272L34.9387 34.39L35.0277 34.4319L35.0539 34.3324Z" fill="#231F20"/>
<path opacity="0.15" d="M34.755 34.0031L34.6607 33.9455L34.645 34.0083L34.6031 34.0188L34.645 34.0921L34.7131 34.0764L34.7183 34.0397L34.755 34.0031Z" fill="#231F20"/>
<path opacity="0.15" d="M34.7394 34.7147L34.6713 34.6466L34.598 34.7461L34.6766 34.7514L34.7394 34.7147Z" fill="#231F20"/>
<path opacity="0.15" d="M35.0963 35.0137L35.0334 35.1446L35.0806 35.2074L35.1643 35.1498L35.1539 35.0503L35.0963 35.0137Z" fill="#231F20"/>
</g>
<path d="M31.991 36.0601L59.4686 26.6932L59.3534 27.3791L45.3161 36.123L31.991 36.0601Z" fill="#DA924E"/>
<path d="M30.8812 35.7834L59.2123 26.7778H59.1966L30.9493 35.4169L30.8812 35.7834Z" fill="#4F4848"/>
<path d="M30.8816 35.7834L30.6565 37.0348L59.2127 26.783V26.7778L30.8816 35.7834Z" fill="#684B41"/>
<path d="M30.8917 35.7677L30.8341 36.0819L59.2123 26.783V26.7778L30.8917 35.7677Z" fill="#403A3A"/>
<path d="M30.8706 36.5264H44.7141L45.6723 35.9243H32.7764L30.8706 36.5264Z" fill="#8C6D62"/>
<path d="M30.8705 36.5268L30.8286 36.7519H44.6721L44.714 36.5268H30.8705Z" fill="#403A3A"/>
<path d="M39.9503 32.5941H50.977L51.6262 32.3375H41.0917L39.9503 32.5941Z" fill="#403A3A"/>
<path d="M39.9493 32.5942L39.9336 32.6884H50.955L50.9759 32.5942H39.9493Z" fill="#4F4848"/>
<path d="M42.0857 31.8402H52.1542L52.7092 31.6151H43.0648L42.0857 31.8402Z" fill="#403A3A"/>
<path d="M42.0857 31.8404L42.0699 31.9241H52.1384L52.1541 31.8404H42.0857Z" fill="#4F4848"/>
<path d="M43.5366 31.149H53.2334L53.757 30.9448H44.4529L43.5366 31.149Z" fill="#606060"/>
<path d="M43.537 31.1498L43.5265 31.2283H53.218L53.2337 31.1498H43.537Z" fill="#4F4848"/>
<path d="M44.5673 36.9607L59.3428 27.3896L59.3585 27.3215L43.4207 36.9607H44.5673Z" fill="#4F4848"/>
<path d="M44.567 36.9611L44.3628 38.092L59.332 27.4738L59.3425 27.4162L44.567 36.9611Z" fill="#684B41"/>
<path d="M44.5671 36.9608L44.5148 37.2749L59.3426 27.4159L59.3531 27.3792L44.5671 36.9608Z" fill="#403A3A"/>
<path d="M48.2057 33.3063C48.2057 33.3063 48.1115 34.0079 48.279 34.1755L48.5932 34.254C48.5932 34.254 48.9283 34.254 49.0801 33.3901L49.3629 33.4477L49.5304 33.3692V33.3796C49.5356 33.4425 49.5671 33.4843 49.6089 33.4948L49.7608 33.5262C49.7608 33.5262 49.9179 33.5315 49.9754 33.254L50.5252 32.6466L50.6299 32.6623L50.6509 32.5367L50.7818 32.5524C50.7818 32.5524 50.7661 32.6204 50.7713 32.678C50.7765 32.7147 50.8079 32.7409 50.8498 32.7461L50.9336 32.7513C50.9964 32.7566 51.0593 32.7199 51.0907 32.6676C51.1326 32.5995 51.1849 32.4791 51.2216 32.2592L51.3734 32.2801C51.6038 32.3063 51.8603 32.0497 51.9232 31.7042L51.9494 31.568L52.0331 31.5733C52.1483 31.5837 52.2635 31.4581 52.2949 31.2958L52.3944 30.7408L52.8918 30.7617C52.8918 30.7617 52.7976 31.1544 52.9546 31.2958C52.9703 31.3062 52.9913 31.3167 53.0122 31.3167H53.1536C53.185 31.3167 53.2112 31.3062 53.2321 31.2853C53.2793 31.2434 53.3526 31.1492 53.3892 30.9554L53.6981 30.7984C53.6981 30.7984 53.6719 30.8612 53.7191 30.8717L53.918 30.8769C53.918 30.8769 54.0123 30.8717 54.0437 30.6832L54.5934 30.3481L54.7505 30.3533C54.7505 30.3533 54.9338 30.3219 54.9442 30.0182H55.2375L55.4259 29.8978H55.4731L55.5097 29.6884L55.6877 29.5732C55.6877 29.5732 55.9391 29.6674 56.227 29.3847L56.2323 29.348L56.2741 29.3533L59.3371 27.3898C59.3423 27.3898 59.4471 26.7877 59.4523 26.7458C59.4523 26.7406 49.0592 28.1176 49.0592 28.1176L48.2057 33.3063Z" fill="#28201F"/>
<g opacity="0.12">
<g opacity="0.12">
<path opacity="0.12" d="M50.1264 29.6723C50.1997 29.6723 50.273 29.5781 50.294 29.4629L50.3044 29.3948L50.2364 29.4001L50.2259 29.4681C50.2154 29.5205 50.1788 29.5676 50.1474 29.5676L49.2573 29.599L49.2363 29.6985L50.1264 29.6723Z" fill="white"/>
</g>
<path opacity="0.12" d="M53.1067 30.7722L54.1381 30.2538L54.0648 30.6465C54.0648 30.6465 54.468 30.479 54.5413 30.0758L54.646 29.5103H54.5099L54.4418 29.8664L54.201 29.9711L54.3057 29.4161L53.2899 29.814L53.1067 30.7722ZM54.0648 30.0444L54.1539 30.0025L54.1329 30.1124L54.0439 30.1648L54.0648 30.0444ZM53.8083 30.1805L53.8973 30.1386L53.8711 30.2643L53.7821 30.3114L53.8083 30.1805ZM53.5936 30.2748L53.6983 30.2276L53.6722 30.3795L53.5674 30.4266L53.5936 30.2748ZM53.3423 30.369L53.4365 30.3428L53.4051 30.5104L53.3109 30.547L53.3423 30.369Z" fill="white"/>
<path opacity="0.12" d="M54.2273 29.3741L53.4681 29.3846L53.1382 29.4788C53.1382 29.4788 53.0964 29.5678 53.0388 29.5835H53.3058L53.2901 29.6568H52.934L52.9183 29.7511H53.2744L54.2273 29.3741Z" fill="white"/>
<path opacity="0.12" d="M53.1538 29.3899L53.159 29.3637C53.2062 29.1124 53.0962 28.9134 52.913 28.9239L52.7402 28.9291L52.4784 29.0129H52.5308C52.7035 29.0077 52.8135 29.2014 52.7664 29.4475L52.7349 29.6307L53.1538 29.3899Z" fill="white"/>
<path opacity="0.12" d="M50.9922 31.1444L50.877 31.1339L50.6571 31.7046C50.5733 31.9245 50.4163 32.0606 50.2697 32.0397L50.2435 32.0345L50.2592 31.935L50.1702 31.9245L50.1859 31.8355L50.2801 31.846L50.2958 31.757L50.2016 31.7517L50.2225 31.647L50.3273 31.6575L50.343 31.5632L50.2382 31.5528L50.254 31.469L50.3587 31.4795L50.3691 31.4009L50.2697 31.3905L50.2906 31.27L50.4006 31.2753L50.432 31.092L50.4948 31.0973L50.5157 30.9768L50.5838 30.9821L50.61 30.8459L50.4948 30.8407L50.3273 30.9035C50.2225 30.9454 50.1283 31.0815 50.0969 31.2439L49.9293 32.1549C49.8351 32.6575 49.8299 33.0293 49.9136 33.1235C49.9607 33.1759 50.0498 33.0869 50.1074 33.024L50.5524 32.5266C50.6728 32.3643 50.7618 32.2282 50.8142 32.0345C50.877 31.8303 50.9346 31.5947 50.9922 31.1444Z" fill="white"/>
<path opacity="0.12" d="M50.3944 29.8454H50.5934C50.7609 29.8454 50.8604 30.0601 50.8133 30.3271C50.7662 30.5889 50.5881 30.7983 50.4206 30.7878L50.2007 30.7774L50.274 30.7826C50.4101 30.7878 50.5515 30.6203 50.5934 30.4056L50.6143 30.2904C50.6562 30.0758 50.5724 29.8978 50.4363 29.8978H50.3368L50.3944 29.8454Z" fill="white"/>
<path opacity="0.12" d="M50.3104 30.1487L50.4832 30.3477L50.4675 30.4367L50.3942 30.4315L50.2371 30.2535L49.8863 30.243L49.813 30.0597L49.8601 30.0388L49.9072 30.1435L50.3104 30.1487Z" fill="white"/>
<path opacity="0.12" d="M49.9805 31.0657L49.7763 31.05L49.3994 33.092L49.5721 33.0448L49.5407 33.2124L49.2004 33.3695C49.2004 33.3695 49.3313 33.2804 49.3941 32.9558L49.5931 31.8615C49.6612 31.495 49.5355 31.1861 49.3156 31.1652L49.1847 31.1547L49.2266 30.94L49.4098 30.9505L49.5093 30.8877L49.5617 30.5997L49.7187 30.6049L49.7449 30.9976L49.9858 31.0133L49.9805 31.0657Z" fill="white"/>
<path opacity="0.12" d="M48.9705 33.6885C48.9705 33.6885 48.7925 33.9294 48.6983 33.7514C48.6093 33.5734 48.6616 33.1493 48.7192 32.8037C48.7716 32.4581 48.9443 31.2853 49.1695 31.2905C49.1695 31.2905 48.9234 31.2434 48.7925 31.4057L48.426 33.411C48.426 33.411 48.3475 34.1179 48.604 34.186C48.8134 34.2488 48.9705 33.6885 48.9705 33.6885Z" fill="white"/>
<path opacity="0.12" d="M51.2483 32.2068C51.2483 32.2068 50.9865 32.1858 51.0755 31.4057L51.1645 31.4109L51.2116 31.1648L51.0807 31.1544L51.1331 30.8821L51.0284 30.8769L50.8713 30.4475L50.9132 30.2067L51.1436 30.259V30.1596L50.9184 30.102C50.9184 30.102 50.9341 29.8925 50.7561 29.8192H51.0231C51.0231 29.8192 51.175 29.526 51.3059 29.7459H51.5258L51.5048 29.8507H51.887L51.8556 30.0077L51.9656 30.4214L51.9394 30.5784L51.2954 30.5523L51.264 30.7355L51.3163 30.7407L51.2797 31.5261L51.4368 31.5418L51.4525 31.4528L51.3844 31.4476L51.4001 31.369L51.641 31.39L51.6567 31.3114L51.4211 31.2905L51.442 31.1806L51.6776 31.1963L51.6933 31.1125L51.4525 31.0968L51.4682 31.013L51.709 31.0287L51.73 30.9188L51.4996 30.9031L51.5101 30.8455L51.7404 30.8559L51.7561 30.7669L51.5519 30.7565L51.5624 30.6936L51.8923 30.7093L51.7928 31.2539C51.7928 31.2539 51.908 31.1963 51.997 30.9345C51.997 30.9345 51.9446 30.8769 51.9865 30.6517C52.0284 30.4266 52.1069 30.0758 52.264 30.0548C52.4263 30.0339 52.3321 30.6465 52.3321 30.6465L52.2483 30.6413C52.2483 30.6413 52.2745 30.4894 52.2169 30.4999C52.1593 30.5051 52.1227 30.7041 52.175 30.725C52.2274 30.7407 52.3478 30.8298 52.2954 31.1125C52.2431 31.3952 52.0808 31.4214 52.0808 31.4214L52.1593 30.9973L52.2117 31.0025L52.2221 30.9502L52.0755 30.9397C52.0755 30.9397 51.9813 31.4109 51.9499 31.568C51.8766 31.856 51.7352 32.2644 51.2483 32.2068Z" fill="white"/>
<path opacity="0.12" d="M52.6304 29.5254L52.2429 29.5306C52.2429 29.5306 52.2429 29.4364 52.2639 29.405C52.29 29.3788 52.6513 29.3997 52.6513 29.3997L52.6304 29.5254Z" fill="white"/>
<path opacity="0.12" d="M52.3008 29.2115L52.1542 29.2168L52.0338 29.8556L52.1699 29.8608L52.1909 29.7508H52.1123L52.1961 29.2901L52.2851 29.2848L52.3008 29.2115Z" fill="white"/>
<path opacity="0.12" d="M51.453 29.463C51.453 29.463 51.1912 29.4368 51.0028 29.5468C50.8143 29.6567 50.4163 29.8086 50.3064 29.8348C50.1964 29.8609 49.9137 29.8976 49.7776 29.9133C49.6414 29.929 49.3221 30.0861 49.3221 30.0861H49.2854L49.3011 29.9918L49.8352 29.7929C49.8352 29.7929 50.5734 29.751 50.8404 29.552C51.1127 29.3478 51.296 29.395 51.296 29.395L51.453 29.463Z" fill="white"/>
<path opacity="0.12" d="M55.1595 28.4155C55.1595 28.4155 55.4004 28.5516 55.191 28.8343L55.9868 28.4992C55.9868 28.4992 56.1596 28.2479 55.9345 28.1327L55.1595 28.4155Z" fill="white"/>
<path opacity="0.12" d="M56.3798 28.2325C56.3798 28.2325 56.1651 28.421 56.1075 28.2011C56.1075 28.2011 56.029 28.4629 56.275 28.4472C56.275 28.4472 56.4217 28.4367 56.4897 28.2273L56.3798 28.2325Z" fill="white"/>
<path opacity="0.12" d="M55.159 28.5306L55.1119 28.7977L54.9601 28.8029L54.9967 28.6144C54.9915 28.6144 55.1329 28.6354 55.159 28.5306Z" fill="white"/>
<path opacity="0.12" d="M53.9183 29.2171L53.9026 29.2957L54.0545 29.2904L54.1016 29.0182L53.9497 29.0234L53.934 29.1229L53.5937 29.1333L53.578 29.2276L53.9183 29.2171Z" fill="white"/>
<path opacity="0.12" d="M54.1602 28.8183C54.1602 28.8183 54.511 28.7869 54.5895 29.2895L54.7832 29.1953C54.7832 29.1953 54.757 28.6036 54.2178 28.6664L54.1602 28.8183Z" fill="white"/>
<path opacity="0.12" d="M54.3956 29.4108H54.3485L54.3642 29.3165H54.2542C54.2542 29.3165 54.2752 29.1333 54.1338 29.1123L54.1652 28.95L54.2804 28.9448C54.2856 28.95 54.4794 29.0757 54.3956 29.4108Z" fill="white"/>
<path opacity="0.12" d="M55.4468 28.7666L55.3526 29.2797C55.3317 29.4001 55.2374 29.4944 55.1379 29.4996H55.1327" fill="white"/>
<path opacity="0.12" d="M55.0964 29.0394L54.8922 30.1494C54.8817 30.207 54.8399 30.2594 54.7927 30.2803C54.7194 30.3065 54.6566 30.2437 54.6775 30.1494L54.8817 29.0499C54.8922 28.9818 54.9446 28.9242 55.0022 28.9138C55.0702 28.8981 55.1121 28.9609 55.0964 29.0394Z" fill="white"/>
<path opacity="0.12" d="M55.2648 29.9759L55.3433 29.5518L55.469 29.5047L55.4166 29.8764L55.2648 29.9759Z" fill="white"/>
<path opacity="0.12" d="M55.6885 29.5257C55.6885 29.5257 55.521 29.3739 55.5786 29.0859C55.6309 28.8241 55.6938 28.688 56.0027 28.5833C56.0027 28.5833 55.809 28.7194 55.7409 29.0807C55.6781 29.442 56.055 29.4105 56.1231 29.1749H56.2226L56.1964 29.3529C56.2016 29.3477 55.9974 29.6095 55.6885 29.5257Z" fill="white"/>
<path opacity="0.12" d="M56.3432 28.8562L56.3118 29.0394L56.4165 29.2332L56.5107 29.1756L56.3432 28.8562Z" fill="white"/>
<path opacity="0.12" d="M56.3269 28.6459L56.6149 29.1014L56.7458 29.0176L56.4107 28.4993H56.3531L56.3269 28.6459Z" fill="white"/>
<path opacity="0.12" d="M56.8292 28.479L56.6093 28.4895L56.5831 28.6361L56.6878 28.7774L56.7769 28.7722L56.8292 28.479Z" fill="white"/>
<g opacity="0.12">
<path opacity="0.12" d="M57.0809 27.8657C57.0809 27.8657 57.4474 28.206 57.0023 28.8553L57.4369 28.5673C57.4369 28.5673 57.6934 28.117 57.4107 27.7296L57.0809 27.8657Z" fill="white"/>
<path opacity="0.12" d="M58.3157 27.4105C58.3157 27.4105 58.5042 27.6933 58.2477 28.0441L58.4676 27.887C58.4676 27.887 58.6351 27.5571 58.4728 27.3529L58.3157 27.4105Z" fill="white"/>
<path opacity="0.12" d="M58.9614 27.1383C58.9614 27.1383 59.0975 27.332 58.9352 27.62L59.0294 27.5572C59.0294 27.5572 59.1656 27.3792 59.0451 27.1069L58.9614 27.1383Z" fill="white"/>
<path opacity="0.12" d="M59.1132 27.0808C59.1132 27.0808 59.2232 27.2745 59.087 27.531L59.1708 27.4787C59.1708 27.4787 59.2912 27.2797 59.1865 27.0598L59.1132 27.0808Z" fill="white"/>
</g>
</g>
<path d="M58.6513 24.735L59.5204 25.5152C59.578 25.5623 59.5989 25.6356 59.5832 25.7089L59.3581 26.9393L58.3162 27.3006L58.6513 24.735Z" fill="#1C558A"/>
<path d="M58.6625 25.4053L59.5526 25.8923L59.474 26.3268L58.5211 26.1855L58.6625 25.4053Z" fill="#FCC172"/>
<path d="M58.3169 27.3013L57.7881 27.3065L58.2698 24.652L58.5316 24.6467C58.6782 24.6467 58.7829 24.7462 58.7567 24.8771L58.3169 27.3013Z" fill="#1C558A"/>
<path d="M58.5204 26.1855L57.9916 26.1907L58.1329 25.4158L58.6618 25.4053L58.5204 26.1855Z" fill="#FCC172"/>
<path d="M58.4892 26.3535L57.997 26.3588L57.9866 26.4268L58.4787 26.4216L58.4892 26.3535Z" fill="#FCC172"/>
<path d="M58.4685 26.4786L57.9763 26.4838L57.9658 26.5519L58.458 26.5466L58.4685 26.4786Z" fill="#FCC172"/>
<path d="M58.7306 24.7359L59.5212 25.516C59.5683 25.5579 59.5945 25.6207 59.5893 25.6888L58.7358 25.0186L58.2018 25.0238L58.2698 24.6521L58.4793 24.6468C58.584 24.6416 58.6625 24.6573 58.7306 24.7359Z" fill="#EDDAC5"/>
<path d="M58.0499 27.3067H57.7881L58.1232 25.448L58.3902 25.4428L58.0499 27.3067Z" fill="#403A3A"/>
<path d="M58.4896 26.3535L58.4791 26.4216L59.453 26.4478L59.4582 26.4059L58.4896 26.3535Z" fill="#FCC172"/>
<path d="M58.4584 26.5466L59.4322 26.5362L59.4427 26.4943L58.4688 26.4786" fill="#FCC172"/>
<path opacity="0.2" d="M58.3169 27.3013L57.7881 27.3065L58.2698 24.652L58.5316 24.6467C58.6782 24.6467 58.7829 24.7462 58.7567 24.8771L58.3169 27.3013Z" fill="#231F20"/>
<path d="M58.7039 25.4686L58.3845 27.2226L58.6044 27.1598L58.8924 25.5628L58.7039 25.4686Z" fill="#403A3A"/>
<path d="M58.9769 25.6412L58.8827 26.1701L59.4534 26.2748L59.5215 25.9187L58.9769 25.6412Z" fill="#403A3A"/>
<path d="M59.4684 26.3523L59.5103 26.1115L59.4684 26.3523Z" fill="#FCC172"/>
<path d="M59.5469 25.9079L59.5783 25.7561L59.5469 25.9079Z" fill="#EDDAC5"/>
<path d="M59.4319 26.5577L59.4371 26.5159H59.5104L59.5156 26.474H59.4476L59.3743 26.8667H59.4423L59.4999 26.5577H59.4319Z" fill="#1C558A"/>
<path opacity="0.2" d="M59.4319 26.5577L59.4371 26.5159H59.5104L59.5156 26.474H59.4476L59.3743 26.8667H59.4423L59.4999 26.5577H59.4319Z" fill="#231F20"/>
<path d="M59.5209 26.432L59.5366 26.3535H59.4686L59.4476 26.4477L59.4529 26.432H59.5209Z" fill="#1C558A"/>
<path opacity="0.2" d="M59.5209 26.432L59.5366 26.3535H59.4686L59.4476 26.4477L59.4529 26.432H59.5209Z" fill="#231F20"/>
<path d="M59.5941 26.0333L59.6203 25.9024L59.547 25.9076L59.5104 26.1118L59.5261 26.0385L59.5941 26.0333Z" fill="#1C558A"/>
<path opacity="0.2" d="M59.5941 26.0333L59.6203 25.9024L59.547 25.9076L59.5104 26.1118L59.5261 26.0385L59.5941 26.0333Z" fill="#231F20"/>
<path d="M59.5212 26.4315H59.4529L59.4476 26.4472V26.4735H59.5159L59.5212 26.4315Z" fill="#FCC172"/>
<path opacity="0.2" d="M59.5212 26.4315H59.4529L59.4476 26.4472V26.4735H59.5159L59.5212 26.4315Z" fill="#231F20"/>
<path d="M59.4319 26.559H59.5018L59.5125 26.516H59.4373L59.4319 26.559Z" fill="#FCC172"/>
<path opacity="0.2" d="M59.4319 26.559H59.5018L59.5125 26.516H59.4373L59.4319 26.559Z" fill="#231F20"/>
<path d="M59.594 26.0335L59.526 26.0388L59.5103 26.1121L59.4684 26.3529H59.5364L59.594 26.0335Z" fill="#FCC172"/>
<path opacity="0.2" d="M59.594 26.0335L59.526 26.0388L59.5103 26.1121L59.4684 26.3529H59.5364L59.594 26.0335Z" fill="#231F20"/>
<path d="M59.6464 25.7561H59.5783L59.5469 25.9079L59.6202 25.9027L59.6464 25.7561Z" fill="#EDDAC5"/>
<path opacity="0.2" d="M59.6464 25.7561H59.5783L59.5469 25.9079L59.6202 25.9027L59.6464 25.7561Z" fill="#231F20"/>
<path d="M57.0864 27.1805L57.5681 27.3061L58.0969 24.4002C58.1284 24.2327 57.9922 24.0966 57.7985 24.1018L57.6519 24.107L57.0864 27.1805Z" fill="#1C558A"/>
<path d="M58.1859 24.3219C58.2278 24.3638 58.3115 24.4214 58.2906 24.5314C58.2854 24.5523 58.2749 24.6256 58.2749 24.6256L57.7775 27.3535L57.5471 27.4477L58.0655 24.5785L58.0759 24.5314L58.0707 24.3952L58.0393 24.191L58.1859 24.3219Z" fill="#1C558A"/>
<path d="M57.9925 26.1917L57.783 26.1655L57.2804 26.1708L57.4636 25.1812H57.4951C57.5527 25.1864 57.5527 25.2388 57.5474 25.2859L57.5108 25.5006C57.4951 25.5791 57.5841 25.6105 57.6417 25.6053L57.7202 25.5948C57.7778 25.5896 57.8563 25.5582 57.8773 25.443L57.9139 25.2388C57.9244 25.1917 57.9558 25.1969 57.9872 25.2074L58.0134 25.2231L58.071 24.9089L58.1024 24.9299L57.9611 25.7048L58.0239 25.6995L58.1024 25.2702L58.1653 25.3016L57.9925 26.1917Z" fill="#FCC172"/>
<path d="M58.2119 24.8508L58.0653 24.7408L58.0548 24.8194L58.1019 24.8508L57.9501 25.699L58.0129 25.7095L58.1595 24.8874L58.2014 24.9136L58.2119 24.8508Z" fill="#403A3A"/>
<path opacity="0.2" d="M58.0491 24.5204C58.0491 24.5204 58.0072 24.4314 57.8815 24.3791C57.8187 24.3529 57.6931 24.3424 57.6145 24.3424L57.5988 24.4419C57.5936 24.4419 57.9444 24.3895 58.0491 24.5204Z" fill="#231F20"/>
<path opacity="0.2" d="M57.0864 27.1805L57.5681 27.3061L58.0969 24.4002C58.1284 24.2327 57.9922 24.0966 57.7985 24.1018L57.6519 24.107L57.0864 27.1805Z" fill="#231F20"/>
<path d="M49.3687 17.1801C49.3687 17.1801 49.8504 17.2953 50.2954 17.6356L52.1855 18.955L57.5994 23.7982C57.6779 23.8662 57.7093 23.9657 57.6884 24.0704L57.1334 27.1229L50.4891 28.2748L48.1697 28.2905L46.9811 28.4581L38.0436 28.3586L39.9285 18.222C39.9599 18.0597 40.0856 17.9079 40.2531 17.8241C41.117 17.4052 45.2376 16.4523 49.3687 17.1801Z" fill="#1C558A"/>
<path d="M51.6365 21.9755L49.4846 21.9284L48.762 21.8342C48.3222 21.7766 47.9452 21.876 47.5578 22.1954L42.8508 26.0752L39.259 21.8185L38.5155 25.9181L40.3637 28.2062L44.5262 28.2428L47.1441 26.1694C47.6782 25.7401 47.9033 25.6354 48.7254 25.6301L48.961 25.6249L50.982 25.5935L51.6365 21.9755Z" fill="#FCC172"/>
<path opacity="0.15" d="M50.1691 18.269L48.3523 28.2852L47.3208 28.2694L49.3366 17.1695C49.3366 17.1695 49.8602 17.2794 50.0644 17.5884C50.2476 17.8659 50.1691 18.269 50.1691 18.269Z" fill="#231F20"/>
<path d="M50.4945 28.2743L52.1857 18.9546L57.5943 23.8029C57.6781 23.8815 57.7147 23.9914 57.6938 24.1066L57.1335 27.1224L50.4945 28.2743Z" fill="#1C558A"/>
<path d="M57.3214 26.1647L50.9808 25.5992L51.6353 21.976L57.5623 24.84L57.3214 26.1647Z" fill="#FCC172"/>
<path opacity="0.2" d="M50.5151 28.2697L53.3215 27.7828L54.3635 22.039L51.9393 20.4107L50.5151 28.2697Z" fill="#231F20"/>
<g opacity="0.2">
<g opacity="0.2">
<path opacity="0.2" d="M53.3693 24.73L53.4112 24.7405L53.186 25.9866L53.1389 25.9813L53.3693 24.73Z" fill="#231F20"/>
<path opacity="0.2" d="M53.5472 24.7715L53.5891 24.782L53.3692 25.9967H53.3273L53.5472 24.7715Z" fill="#231F20"/>
<path opacity="0.2" d="M51.646 24.3376L51.7089 24.3534L51.4314 25.8822L51.3685 25.877L51.646 24.3376Z" fill="#231F20"/>
<path opacity="0.2" d="M53.804 24.578L53.7621 24.5675L53.982 23.3737L54.0186 23.3947L53.804 24.578Z" fill="#231F20"/>
<path opacity="0.2" d="M52.0966 24.4414L52.1595 24.4519L51.8924 25.9074L51.8348 25.9022L52.0966 24.4414Z" fill="#231F20"/>
<path opacity="0.2" d="M52.5106 24.5305L52.5629 24.5462L52.3116 25.9337L52.254 25.9285L52.5106 24.5305Z" fill="#231F20"/>
<path opacity="0.2" d="M53.1341 24.6768L53.1812 24.6873L52.9456 25.9701H52.8984L53.1341 24.6768Z" fill="#231F20"/>
<path opacity="0.2" d="M52.8357 24.609L52.8828 24.6194L52.642 25.9546L52.5896 25.9493L52.8357 24.609Z" fill="#231F20"/>
<path opacity="0.2" d="M53.5065 26.008L53.7211 24.809L53.763 24.8194L53.5431 26.008H53.5065Z" fill="#231F20"/>
<path opacity="0.2" d="M52.6153 24.2688L52.5577 24.2531L52.8143 22.8604L52.8667 22.8813L52.6153 24.2688Z" fill="#231F20"/>
<path opacity="0.2" d="M52.0337 22.1956L52.2902 20.7766L52.3531 20.8185L52.0965 22.2217L52.0337 22.1956Z" fill="#231F20"/>
<path opacity="0.2" d="M52.4166 22.6827L52.4742 22.7089L52.2124 24.1592L52.1548 24.1435L52.4166 22.6827Z" fill="#231F20"/>
<path opacity="0.2" d="M53.2275 24.4262L53.1804 24.4157L53.416 23.1277L53.4579 23.1434L53.2275 24.4262Z" fill="#231F20"/>
<path opacity="0.2" d="M53.4584 24.4887L53.4113 24.4783L53.6416 23.2269L53.6835 23.2426L53.4584 24.4887Z" fill="#231F20"/>
<path opacity="0.2" d="M52.9293 24.3531L52.8822 24.3374L53.123 22.9971L53.1702 23.018L52.9293 24.3531Z" fill="#231F20"/>
<path opacity="0.2" d="M53.637 24.536L53.5951 24.5255L53.815 23.3003L53.8569 23.3213L53.637 24.536Z" fill="#231F20"/>
<path opacity="0.2" d="M53.3276 26.227L53.1287 27.316L53.0868 27.3213L53.2858 26.227H53.3276Z" fill="#231F20"/>
<path opacity="0.2" d="M52.0446 22.5212L51.7671 24.0448L51.7042 24.0291L51.9817 22.4898L52.0446 22.5212Z" fill="#231F20"/>
<path opacity="0.2" d="M52.903 26.2118L52.6936 27.3637L52.6412 27.3689L52.8559 26.2118H52.903Z" fill="#231F20"/>
<path opacity="0.2" d="M53.1437 26.2221L52.9395 27.3373L52.8923 27.3426L53.0965 26.2169L53.1437 26.2221Z" fill="#231F20"/>
<path opacity="0.2" d="M52.5949 26.2064L52.3802 27.4002L52.3279 27.4054L52.5425 26.2012L52.5949 26.2064Z" fill="#231F20"/>
<path opacity="0.2" d="M51.379 26.1699L51.1329 27.5365L51.0648 27.547L51.3161 26.1647L51.379 26.1699Z" fill="#231F20"/>
<path opacity="0.2" d="M52.2648 26.1963L52.0397 27.4372L51.9821 27.4424L52.2072 26.191L52.2648 26.1963Z" fill="#231F20"/>
<path opacity="0.2" d="M51.8462 26.1794L51.6106 27.4831L51.5477 27.4883L51.7833 26.1794H51.8462Z" fill="#231F20"/>
<path opacity="0.2" d="M53.5051 26.2325L53.3114 27.2954L53.2695 27.3007L53.4633 26.2325H53.5051Z" fill="#231F20"/>
<path opacity="0.2" d="M52.861 22.589L53.0966 21.3062L53.1437 21.3376L52.9133 22.6151L52.861 22.589Z" fill="#231F20"/>
<path opacity="0.2" d="M52.4681 22.3997L52.7142 21.054L52.7666 21.0907L52.5257 22.4311L52.4681 22.3997Z" fill="#231F20"/>
<path opacity="0.2" d="M53.1703 22.7408L53.3954 21.5051L53.4425 21.5313L53.2174 22.7617L53.1703 22.7408Z" fill="#231F20"/>
<path opacity="0.2" d="M53.8557 23.0647L54.0599 21.939L54.1018 21.9652L53.8976 23.0856L53.8557 23.0647Z" fill="#231F20"/>
<path opacity="0.2" d="M53.4579 22.8764L53.6726 21.6879L53.7197 21.7141L53.505 22.8974L53.4579 22.8764Z" fill="#231F20"/>
<path opacity="0.2" d="M54.0238 23.1428L54.2228 22.0433L54.2594 22.0695L54.0605 23.1637L54.0238 23.1428Z" fill="#231F20"/>
<path opacity="0.2" d="M53.6831 22.9868L53.8925 21.8297L53.9344 21.8558L53.725 23.0025L53.6831 22.9868Z" fill="#231F20"/>
</g>
<g opacity="0.2">
<g opacity="0.2">
<path opacity="0.2" d="M50.8197 27.7553L53.3015 27.4359L53.312 27.3888L50.8302 27.6925L50.8197 27.7553Z" fill="#231F20"/>
</g>
<g opacity="0.2">
<path opacity="0.2" d="M51.1285 26.0335L53.537 26.1382L53.5475 26.091L51.139 25.9759L51.1285 26.0335Z" fill="#231F20"/>
</g>
<g opacity="0.2">
<path opacity="0.2" d="M51.4692 24.1595L53.7939 24.7197L53.8044 24.6778L51.4797 24.0966L51.4692 24.1595Z" fill="#231F20"/>
</g>
<g opacity="0.2">
<path opacity="0.2" d="M51.8146 22.2639L54.0555 23.2953L54.0607 23.2482L51.825 22.2063L51.8146 22.2639Z" fill="#231F20"/>
</g>
</g>
</g>
<path opacity="0.2" d="M53.4261 27.7665L53.5099 27.756L54.5257 22.138L54.4628 22.049L53.4261 27.7665Z" fill="#231F20"/>
<path opacity="0.2" d="M55.0704 27.4846L55.1856 27.4637L56.0234 22.8352L55.9239 22.7567L55.0704 27.4846Z" fill="#231F20"/>
<path opacity="0.2" d="M55.396 27.4263L55.5007 27.4054L56.2913 23.044L56.2023 22.9759L55.396 27.4263Z" fill="#231F20"/>
<path opacity="0.2" d="M55.8511 27.3426L55.9348 27.3269L56.5527 23.9393L56.4741 23.8922L55.8511 27.3426Z" fill="#231F20"/>
<path opacity="0.2" d="M56.2698 27.2747L56.3378 27.259L56.9033 24.1541L56.8405 24.1175L56.2698 27.2747Z" fill="#231F20"/>
<path opacity="0.2" d="M56.6155 27.2119L56.6731 27.1962L57.1967 24.3322L57.1391 24.3008L56.6155 27.2119Z" fill="#231F20"/>
<path d="M55.1433 23.5418L55.5884 23.7774L55.803 22.6098L55.3737 22.2747L55.1433 23.5418Z" fill="#403A3A"/>
<path d="M54.4426 23.1907L55.0081 23.484L55.2385 22.1959L54.6992 21.7771L54.4426 23.1907Z" fill="#403A3A"/>
<path d="M54.788 25.4948L55.2644 25.5785L55.4791 24.4005L55.0236 24.2172L54.788 25.4948Z" fill="#403A3A"/>
<path d="M54.0493 25.3697L54.6462 25.4692L54.8818 24.1707L54.3111 23.9246L54.0493 25.3697Z" fill="#403A3A"/>
<path d="M57.2543 25.3744L57.3695 25.4058L57.4637 24.8979L57.3485 24.8508L57.2543 25.3744Z" fill="#403A3A"/>
<path d="M57.0973 25.332L57.2229 25.3687L57.3172 24.8399L57.1968 24.7875L57.0973 25.332Z" fill="#403A3A"/>
<path d="M57.1394 26.0284L57.2546 26.0441L57.3488 25.5363L57.2336 25.5049L57.1394 26.0284Z" fill="#403A3A"/>
<path d="M56.9713 26.0069L57.1022 26.0226L57.1965 25.4938L57.0708 25.4623L56.9713 26.0069Z" fill="#403A3A"/>
<path d="M54.5464 26.2274L54.6354 26.2222C54.7087 26.217 54.7768 26.1646 54.7872 26.0965L54.8239 25.908C54.8344 25.84 54.7872 25.7876 54.7139 25.7876H54.6249L54.6145 25.8557H54.7035C54.7349 25.8557 54.7611 25.8819 54.7558 25.908L54.7192 26.1018C54.7139 26.1332 54.6825 26.1594 54.6459 26.1594L54.5569 26.1646L54.5464 26.2274Z" fill="#898779"/>
<path d="M54.9237 26.2381L55.0075 26.2329C55.0755 26.2329 55.1384 26.1805 55.1488 26.1177L55.1803 25.9397C55.1907 25.8768 55.1436 25.8297 55.0808 25.8297H54.997L54.9865 25.8925H55.0703C55.1017 25.8925 55.1227 25.9135 55.1174 25.9449L55.086 26.1229C55.0808 26.1491 55.0494 26.1753 55.018 26.1753L54.9342 26.1805L54.9237 26.2381Z" fill="#898779"/>
<path d="M55.7246 26.259L55.7874 26.2537C55.8398 26.2537 55.8922 26.2066 55.8974 26.1595L55.9236 26.0129C55.934 25.9605 55.8974 25.9239 55.845 25.9239H55.7822L55.7717 25.9762H55.8346C55.8607 25.9762 55.8764 25.992 55.8712 26.0181L55.845 26.1647C55.8398 26.1857 55.8189 26.2066 55.7927 26.2066H55.7298L55.7246 26.259Z" fill="#898779"/>
<path d="M55.8967 26.2635H55.9543C56.0014 26.2635 56.0486 26.2216 56.059 26.1692L56.0852 26.0279C56.0957 25.9807 56.0643 25.9388 56.0119 25.9441H55.9543L55.9438 25.9912H56.0014C56.0224 25.9912 56.0381 26.0069 56.0329 26.0331L56.0067 26.1745C56.0014 26.1954 55.9805 26.2163 55.9596 26.2163H55.902L55.8967 26.2635Z" fill="#898779"/>
<path d="M56.1539 26.2698H56.2115C56.2586 26.2698 56.3005 26.2279 56.311 26.186L56.3372 26.0551C56.3477 26.008 56.3162 25.9713 56.2691 25.9765H56.2168L56.2063 26.0237H56.2586C56.2796 26.0237 56.2953 26.0394 56.2901 26.0603L56.2639 26.1912C56.2586 26.2122 56.2377 26.2279 56.2168 26.2331H56.1592L56.1539 26.2698Z" fill="#898779"/>
<path d="M56.3114 26.2741H56.3638C56.4056 26.2741 56.4475 26.2375 56.4528 26.1903L56.4737 26.0647C56.4789 26.0228 56.4528 25.9861 56.4109 25.9861H56.3585L56.3533 26.028H56.4056C56.4266 26.028 56.4371 26.0437 56.4318 26.0647L56.4109 26.1903C56.4056 26.2113 56.3899 26.227 56.369 26.227H56.3166L56.3114 26.2741Z" fill="#898779"/>
<path d="M55.4219 26.2489L55.4899 26.2437C55.5475 26.2437 55.5999 26.1965 55.6104 26.1389L55.6365 25.9819C55.647 25.9295 55.6104 25.8824 55.5528 25.8824H55.4847L55.4742 25.9347H55.5423C55.5685 25.9347 55.5842 25.9557 55.579 25.9766L55.5528 26.1337C55.5475 26.1599 55.5214 26.1808 55.4952 26.1808H55.4271L55.4219 26.2489Z" fill="#898779"/>
<path d="M56.5883 26.2852H56.6354C56.6773 26.2852 56.7139 26.2486 56.7192 26.2119L56.7401 26.0968C56.7453 26.0549 56.7192 26.0287 56.6825 26.0287H56.6354L56.6301 26.0653H56.6773C56.6982 26.0653 56.7087 26.081 56.7034 26.0968L56.6825 26.2119C56.6773 26.2276 56.6616 26.2434 56.6406 26.2486H56.5935L56.5883 26.2852Z" fill="#898779"/>
<path d="M56.8926 26.322H56.9345C56.9711 26.322 57.0025 26.2906 57.0078 26.2487L57.0287 26.1388C57.0339 26.1021 57.013 26.0707 56.9816 26.0707H56.9397L56.9345 26.1074H56.9763C56.9921 26.1074 57.0025 26.1231 56.9973 26.1388L56.9763 26.2487C56.9711 26.2644 56.9554 26.2801 56.9397 26.2801H56.8978L56.8926 26.322Z" fill="#898779"/>
<path d="M57.0966 26.3271H57.1332C57.1646 26.3271 57.196 26.2957 57.2013 26.259L57.2222 26.1543C57.2275 26.1176 57.2065 26.0915 57.1751 26.0915H57.1384L57.1332 26.1281H57.1699C57.1856 26.1281 57.196 26.1386 57.1908 26.1595L57.1699 26.2642C57.1646 26.28 57.1542 26.2957 57.1384 26.2957H57.1018L57.0966 26.3271Z" fill="#898779"/>
<path d="M44.1332 19.0651L44.4474 19.0494C44.751 19.0337 45.0338 18.7981 45.0861 18.5258L45.3427 17.1226C45.3741 16.9446 45.2327 16.8085 45.0285 16.8294L44.2693 16.9132C44.0913 16.9341 43.929 17.0702 43.8976 17.2326L43.6515 18.5834C43.5992 18.8609 43.8191 19.0808 44.1332 19.0651Z" fill="#687B9B"/>
<path d="M44.0858 19.0135L44.3999 18.9978C44.7036 18.982 44.9863 18.7464 45.0387 18.4742L45.2952 17.071C45.3266 16.893 45.1853 16.7568 44.9811 16.7778L44.2219 16.8615C44.0439 16.8825 43.8816 17.0186 43.8501 17.1809L43.6041 18.5318C43.5517 18.8145 43.7664 19.0344 44.0858 19.0135Z" fill="#D0D2D3"/>
<path d="M43.9912 17.4157C43.9441 17.6618 44.1326 17.8555 44.4049 17.845C44.6771 17.8345 44.9389 17.6251 44.9808 17.379C45.0227 17.1329 44.8394 16.9392 44.5672 16.9497C44.2949 16.9602 44.0331 17.1696 43.9912 17.4157Z" fill="#687B9B"/>
<path d="M44.0437 17.3792C44.007 17.5834 44.1589 17.7405 44.384 17.7352C44.6091 17.7248 44.8238 17.5572 44.8605 17.353C44.8971 17.1488 44.7453 16.9917 44.5201 16.997C44.295 17.0022 44.0803 17.175 44.0437 17.3792Z" fill="#E6E7E8"/>
<path d="M43.808 18.4262C43.7609 18.6722 43.9494 18.866 44.2216 18.8555C44.4939 18.845 44.7557 18.6408 44.7976 18.3895C44.8395 18.1382 44.6562 17.9497 44.384 17.9602C44.1117 17.9706 43.8499 18.1801 43.808 18.4262Z" fill="#687B9B"/>
<path d="M43.8604 18.3892C43.8238 18.5934 43.9756 18.7504 44.2008 18.7452C44.4259 18.74 44.6406 18.5672 44.6772 18.363C44.7139 18.1588 44.562 18.0017 44.3369 18.007C44.1118 18.0122 43.8971 18.185 43.8604 18.3892Z" fill="#E6E7E8"/>
<path d="M57.9909 24.6463L57.593 24.6515L57.6035 24.6044L57.9805 24.5992C57.9805 24.5992 58.059 24.6306 57.9909 24.6463Z" fill="#B2C5E4"/>
<path d="M39.1846 20.1231L39.5721 20.165L39.5983 20.0236L39.3679 20.0026C39.3679 19.9974 39.0956 20.0026 39.1846 20.1231Z" fill="#C1D6F4"/>
<path d="M39.122 20.0171C39.1534 19.8286 39.8654 19.792 39.8654 19.792C39.8654 19.792 47.1066 19.3103 48.2166 19.2789C49.0857 19.2527 49.0753 19.2422 49.4627 19.2527C49.8135 19.2632 50.3685 19.3574 50.667 19.5564C52.489 20.7659 58.0181 24.6037 58.0181 24.6037C58.0181 24.6037 58.0338 24.6142 58.0285 24.6247C58.0233 24.6456 58.0023 24.6508 57.9709 24.6456C57.929 24.6404 52.0283 20.5931 50.5675 19.703C50.3161 19.5511 49.7245 19.4307 49.3999 19.4098C49.0491 19.3888 48.981 19.4045 48.1904 19.4307C46.5516 19.4778 39.8393 19.9281 39.8393 19.9281C39.8393 19.9281 39.1691 19.97 39.1848 20.1218C39.1848 20.1218 39.1062 20.0957 39.122 20.0171Z" fill="#A5B2C4"/>
<path d="M52.5569 28.9245L52.4732 29.3276L49.2845 29.3433L49.4573 28.38L50.494 28.2752L52.5569 28.9245Z" fill="#003866"/>
<path opacity="0.3" d="M52.5569 28.9245L52.4732 29.3276L49.2845 29.3433L49.4573 28.38L50.494 28.2752L52.5569 28.9245Z" fill="#231F20"/>
<path d="M46.8404 23.9032C46.8246 23.9765 46.8822 24.0341 46.966 24.0341C47.0498 24.0341 47.1283 23.9712 47.1388 23.8979C47.1545 23.8246 47.0969 23.767 47.0131 23.767C46.9294 23.7723 46.8508 23.8299 46.8404 23.9032Z" fill="#4F4848"/>
<path d="M46.9078 23.9031C46.9025 23.9398 46.9287 23.9712 46.9758 23.9712C47.0177 23.9712 47.0596 23.9398 47.0701 23.8979C47.0753 23.8612 47.0491 23.8298 47.002 23.8298C46.9549 23.8298 46.913 23.8665 46.9078 23.9031Z" fill="#2D2D2D"/>
<path d="M39.7189 24.1284C39.7032 24.2017 39.7608 24.2593 39.8393 24.2593C39.9179 24.2593 39.9912 24.1965 40.0069 24.1232C40.0226 24.0499 39.965 23.9923 39.8864 23.9923C39.8079 23.9975 39.7294 24.0551 39.7189 24.1284Z" fill="#4F4848"/>
<path d="M39.7863 24.1274C39.7811 24.164 39.8072 24.1954 39.8491 24.1954C39.891 24.1954 39.9329 24.164 39.9381 24.1221C39.9434 24.0855 39.9172 24.0541 39.8753 24.0541C39.8334 24.0541 39.7915 24.0907 39.7863 24.1274Z" fill="#2D2D2D"/>
<path d="M48.7404 24.0074C48.7247 24.0807 48.7823 24.1383 48.866 24.1383C48.9498 24.1383 49.0283 24.0755 49.0388 24.0022C49.0545 23.9289 48.9969 23.8713 48.9132 23.8713C48.8346 23.8713 48.7561 23.9341 48.7404 24.0074Z" fill="#4F4848"/>
<path d="M48.8129 24.0074C48.8077 24.0493 48.8339 24.0754 48.881 24.0754C48.9229 24.0754 48.9648 24.044 48.9752 24.0021C48.9805 23.9603 48.9543 23.9341 48.9072 23.9341C48.86 23.9341 48.8182 23.9707 48.8129 24.0074Z" fill="#2D2D2D"/>
<path d="M49.458 28.3793L49.3847 28.7929L35.5255 28.6253L35.5779 28.3112L49.458 28.3793Z" fill="#003866"/>
<path d="M52.5567 28.924L57.9129 27.2956L57.8867 27.4527L52.4729 29.3271L52.5567 28.924Z" fill="#003866"/>
<path opacity="0.15" d="M52.5567 28.924L57.9129 27.2956L57.8867 27.4527L52.4729 29.3271L52.5567 28.924Z" fill="white"/>
<path d="M50.4945 28.2746L57.1335 27.1174L57.9137 27.2955L52.5574 28.9238L50.4945 28.2746Z" fill="#003866"/>
<path d="M36.3676 28.285H36.4513L37.0587 24.9341C37.0744 24.8451 37.1372 24.7561 37.221 24.6985C37.31 24.6409 37.4095 24.6147 37.5037 24.6357L38.1163 24.7561C38.2525 24.7823 38.3362 24.8975 38.31 25.0336L37.7393 28.2065H37.8231L38.3991 25.0283C38.4305 24.8556 38.3258 24.709 38.153 24.6775L37.5404 24.5571C37.4252 24.5362 37.2943 24.5624 37.1843 24.6357C37.0744 24.709 37.0011 24.8189 36.9801 24.9289L36.3676 28.285Z" fill="#727067"/>
<path d="M36.6084 28.2172L36.6974 28.191L36.4513 26.5417L36.3676 26.5679L36.6084 28.2172Z" fill="#8C9199"/>
<path d="M34.7295 30.7774L35.9285 24.6148C35.9547 24.4787 36.0961 24.3635 36.2427 24.3635L36.4574 24.3583C36.6301 24.353 36.7453 24.4787 36.7139 24.641L36.0542 28.2904H36.138L36.8029 24.641C36.8396 24.442 36.693 24.2797 36.4731 24.285L36.2584 24.2902C36.0647 24.2954 35.8814 24.442 35.8448 24.6201L34.6458 30.7826L34.7295 30.7774Z" fill="#727067"/>
<path d="M48.9332 24.039L49.2422 23.8505C49.2788 23.8296 49.2998 23.7877 49.2998 23.7511C49.2945 23.7144 49.2683 23.6882 49.2265 23.683C48.9594 23.6516 48.462 23.5992 48.1426 23.5888C47.7761 23.573 47.2578 23.594 46.9803 23.6097C46.9332 23.6097 46.886 23.6359 46.8651 23.6778C46.8389 23.7144 46.8389 23.7615 46.8651 23.793L46.9593 23.9029L47.0379 23.8505L46.9436 23.7406C46.9332 23.7301 46.9384 23.7144 46.9436 23.7092C46.9489 23.7039 46.9541 23.6935 46.975 23.6935C47.2473 23.683 47.7657 23.6621 48.1269 23.6778C48.4411 23.6882 48.9332 23.7406 49.2003 23.772C49.2055 23.772 49.2107 23.7772 49.2107 23.7825C49.2107 23.7877 49.2107 23.793 49.2055 23.793L48.8966 23.9814L48.9332 24.039Z" fill="#898779"/>
<path d="M38.8389 24.1173L38.8546 24.0388C38.6871 24.0283 38.5981 24.0074 38.5876 23.9812C38.5876 23.9812 38.5928 23.976 38.6033 23.9655C38.6923 23.8922 39.0274 23.866 39.5876 23.8765C39.6191 23.8765 39.64 23.8765 39.6557 23.8765C39.7342 23.8765 39.8075 24.0283 39.8285 24.1016L39.9123 24.0702C39.9018 24.044 39.8285 23.798 39.6714 23.798C39.6557 23.798 39.6348 23.798 39.6086 23.798C39.195 23.7875 38.708 23.7927 38.5562 23.9079C38.53 23.9289 38.5091 23.955 38.5038 23.9812C38.4881 24.0859 38.6818 24.1069 38.8389 24.1173Z" fill="#898779"/>
<path d="M44.2131 24.4291C44.7785 23.8495 44.8459 22.9983 44.3636 22.5278C43.8813 22.0573 43.032 22.1457 42.4666 22.7253C41.9012 23.3049 41.8338 24.1561 42.3161 24.6266C42.7984 25.0971 43.6477 25.0086 44.2131 24.4291Z" fill="#F42A41"/>
<path d="M43.0861 24.955C42.3373 24.955 41.8399 24.3319 41.9813 23.5675C42.1174 22.8031 42.84 22.18 43.5887 22.18C44.3374 22.18 44.8348 22.8031 44.6935 23.5675C44.5573 24.3319 43.8348 24.955 43.0861 24.955ZM43.573 22.2795C42.8766 22.2795 42.2064 22.8554 42.0755 23.5675C41.9446 24.2796 42.4054 24.8555 43.1018 24.8555C43.7981 24.8555 44.4683 24.2796 44.5992 23.5675C44.7301 22.8607 44.2694 22.2795 43.573 22.2795Z" fill="#E6E7E8"/>
<path d="M43.8712 24.3532C43.9131 24.3218 44.0073 24.2432 44.0597 24.1856H43.8816L43.8502 24.3689C43.8607 24.3637 43.8712 24.3584 43.8712 24.3532Z" fill="#E6E7E8"/>
<path d="M42.6459 24.4892C42.6616 24.4997 42.6825 24.4997 42.7035 24.4892C42.7244 24.4787 42.7401 24.4578 42.7454 24.4316L42.9967 23.0546C43.0072 23.0074 42.9757 22.976 42.9339 22.976H42.6668L42.7297 22.9184C42.8291 22.8242 42.9443 22.7457 43.0647 22.6881L43.0857 22.5833C42.6825 22.7509 42.3631 23.1383 42.2846 23.5572C42.248 23.7509 42.2637 23.9551 42.3265 24.107L42.3684 23.8923C42.3422 23.7457 42.3684 23.6043 42.3736 23.5572C42.405 23.3897 42.4783 23.2273 42.5831 23.0807L42.5988 23.065H42.8501C42.8815 23.0598 42.9077 23.0807 42.9077 23.1174V23.1226L42.892 23.1959H42.7454C42.693 23.1959 42.6459 23.2378 42.6354 23.2954L42.4522 24.2536C42.4469 24.2745 42.4469 24.2955 42.4522 24.3164C42.5097 24.3845 42.5726 24.4421 42.6459 24.4892ZM42.6982 23.353C42.7035 23.3164 42.7401 23.2849 42.782 23.2849H42.871L42.6878 24.3059C42.6825 24.3216 42.6773 24.3373 42.6668 24.3478C42.6564 24.3583 42.6459 24.3635 42.6354 24.3635H42.6302C42.6092 24.3635 42.5988 24.3583 42.5778 24.3426C42.5726 24.3373 42.5621 24.3269 42.5569 24.3216C42.5464 24.3059 42.5412 24.285 42.5412 24.264C42.5412 24.2588 42.5412 24.2536 42.5412 24.2536V24.2483C42.5412 24.2431 42.5412 24.2431 42.5412 24.2379L42.6982 23.353Z" fill="#E6E7E8"/>
<path d="M43.9857 24.0702H44.0904C44.1271 24.0702 44.1585 24.0493 44.1795 24.0179C44.2109 23.9707 44.2423 23.9184 44.2632 23.866C44.2999 23.7875 44.3261 23.7037 44.3522 23.6095L44.3575 23.5938C44.3627 23.5833 44.3627 23.5676 44.3627 23.5571C44.4674 22.9707 44.0904 22.4942 43.5145 22.4942C43.4255 22.4942 43.3365 22.5047 43.2527 22.5256L43.237 22.6251C43.4098 22.578 43.5878 22.578 43.7449 22.6251L43.7711 22.6304L43.5564 23.8032H43.4203L43.5878 22.8764C43.5983 22.8189 43.5616 22.7665 43.504 22.7665H43.3417C43.2684 22.7665 43.1951 22.8293 43.1846 22.9079L43.148 23.0963C43.1323 23.1749 43.1846 23.2377 43.2579 23.2377H43.2684C43.2998 23.2377 43.3312 23.2115 43.3365 23.1749L43.3522 23.0963C43.347 23.1016 43.347 23.1016 43.3417 23.1068C43.3208 23.1225 43.2998 23.1278 43.2894 23.1278C43.2265 23.1173 43.237 23.0649 43.237 23.044L43.2527 22.9707C43.2632 22.9131 43.3208 22.8607 43.3836 22.8607H43.4045C43.4621 22.8607 43.4988 22.9079 43.4883 22.9655L43.2265 24.4158C43.2213 24.4472 43.2056 24.4786 43.1742 24.4996C43.148 24.5205 43.1166 24.531 43.0852 24.531H43.0799C43.0223 24.5257 42.9804 24.4786 42.9909 24.4158L43.1689 23.4367H43.0852L42.8967 24.4734C42.8862 24.5467 42.9229 24.6043 42.9857 24.62C42.9962 24.62 43.0066 24.6252 43.0119 24.6252C43.038 24.6304 43.0799 24.6304 43.1009 24.6304C43.1009 24.6304 43.1166 24.6304 43.1323 24.6304C43.2108 24.6252 43.2789 24.5624 43.2946 24.4838L43.3993 23.8974H43.5354L43.4098 24.5886C43.4307 24.5833 43.4464 24.5781 43.4674 24.5729L43.8182 22.6513L43.8653 22.6722C43.8862 22.6827 43.9072 22.6932 43.9229 22.7037L43.9386 22.7141L43.614 24.51C43.6349 24.4996 43.6559 24.4891 43.6716 24.4786C43.682 24.421 43.6925 24.3529 43.6978 24.3215V24.3111L43.9805 22.7403L44.0328 22.7874C44.1323 22.8764 44.2056 22.9969 44.2475 23.1278L44.2632 23.1801H44.2056C44.1219 23.1801 44.0433 23.2482 44.0276 23.3372L43.9124 23.9812C43.9072 24.0074 43.9124 24.0283 43.9281 24.044C43.9438 24.065 43.9595 24.0702 43.9857 24.0702ZM44.1114 23.3581C44.1219 23.311 44.169 23.2691 44.2161 23.2691H44.2789L44.2842 23.2901C44.2999 23.3477 44.2789 23.4786 44.258 23.6095C44.2266 23.7665 44.1742 23.9236 44.1271 23.9864C44.1114 24.0074 44.0904 24.0179 44.0695 24.0179H44.059C44.0433 24.0179 44.0276 24.0126 44.0171 23.9969C44.0067 23.9864 44.0067 23.9707 44.0067 23.9498L44.1114 23.3581Z" fill="#E6E7E8"/>
<path d="M50.494 28.2744L49.4573 28.3791L35.5771 28.311L38.0799 28.1906L47.3211 28.2744L48.3526 28.2901L50.494 28.2744Z" fill="#003866"/>
<path d="M49.385 28.7927L48.2854 34.861C48.2854 34.861 46.8613 34.6097 46.1283 36.0234L38.6934 36.8192L35.8294 35.1909C35.8294 35.1909 36.0231 34.1647 34.7404 33.861L35.5257 28.6199L49.385 28.7927Z" fill="#003866"/>
<path d="M48.7724 32.1745L48.2854 34.8605C48.2854 34.8605 46.8613 34.6092 46.1283 36.0229L38.6934 36.8187L35.8294 35.1904C35.8294 35.1904 36.0231 34.1641 34.7404 33.8605L35.0545 31.7714L48.7724 32.1745Z" fill="#F42A41"/>
<path opacity="0.1" d="M40.3838 33.2018C40.5932 33.0971 40.8236 33.0605 41.033 33.0867C40.7503 33.406 39.6874 34.7778 38.6716 36.8198L35.8181 35.1915L40.3838 33.2018Z" fill="white"/>
<path opacity="0.1" d="M41.4783 33.2219L46.1225 36.0231L39.6929 36.7142L38.6719 36.8189C39.4468 35.1539 40.7767 33.3842 41.0594 33.0648C41.2165 33.0858 41.3579 33.1382 41.4783 33.2219Z" fill="#231F20"/>
<path d="M46.3164 31.7254C46.2326 32.1914 46.5887 32.5736 47.1227 32.5736C47.6515 32.5736 48.1542 32.1966 48.238 31.7306C48.3217 31.2594 47.9605 30.8824 47.4264 30.8824C46.8976 30.8772 46.4002 31.2542 46.3164 31.7254Z" fill="#403A3A"/>
<path d="M46.3157 31.7245C46.232 32.1905 46.5618 32.5727 47.0592 32.5727C47.5566 32.5727 48.0278 32.1957 48.1169 31.7245C48.2006 31.2533 47.8655 30.8763 47.3681 30.8763C46.8707 30.8763 46.3995 31.2533 46.3157 31.7245Z" fill="#4F4848"/>
<path d="M35.442 31.2483C35.3582 31.6985 35.6409 32.0703 36.0703 32.0703C36.4996 32.0703 36.9185 31.7038 36.997 31.2483C37.0808 30.7927 36.798 30.4262 36.3687 30.4262C35.9341 30.4315 35.5205 30.798 35.442 31.2483Z" fill="#403A3A"/>
<path d="M35.4414 31.2483C35.3576 31.7038 35.6194 32.0703 36.0173 32.0703C36.4205 32.0703 36.8132 31.7038 36.897 31.2483C36.9807 30.7927 36.7189 30.4262 36.3158 30.4262C35.9126 30.4315 35.5199 30.798 35.4414 31.2483Z" fill="#4F4848"/>
<path d="M46.4839 30.981L47.1698 30.9863C47.641 30.9339 48.0023 31.2428 47.9552 31.6565C47.9552 31.6617 47.9552 31.6722 47.9499 31.6774C47.8976 32.0334 47.6253 32.358 47.2221 32.4156L46.6671 32.4628L46.4839 30.981Z" fill="#7F5D4F"/>
<path d="M44.572 31.9912C44.4516 32.6614 44.949 33.2059 45.6925 33.2111C46.436 33.2164 47.1428 32.6718 47.2633 31.9964C47.3837 31.321 46.881 30.7765 46.1323 30.7765C45.3888 30.7817 44.6925 31.3262 44.572 31.9912Z" fill="#403A3A"/>
<path d="M44.5726 31.9912C44.4522 32.6614 44.9024 33.2059 45.5831 33.2111C46.269 33.2164 46.9235 32.6718 47.0439 31.9964C47.1643 31.321 46.7088 30.7765 46.0229 30.7765C45.3422 30.7817 44.693 31.3262 44.5726 31.9912Z" fill="#4F4848"/>
<path d="M34.714 31.9348L36.091 31.9295C36.3895 31.8929 36.6617 31.5997 36.7298 31.2489C36.8031 30.8405 36.5675 30.5211 36.2271 30.563H34.8711L34.714 31.9348Z" fill="#7F5D4F"/>
<path d="M33.3161 31.3223C33.2114 31.9087 33.5674 32.3799 34.1224 32.3852C34.6774 32.3852 35.2115 31.9139 35.3162 31.3275C35.4209 30.7411 35.0596 30.2647 34.5046 30.2647C33.9549 30.2594 33.4208 30.7359 33.3161 31.3223Z" fill="#403A3A"/>
<path d="M33.3161 31.3223C33.2113 31.9087 33.515 32.38 33.9967 32.3852C34.4836 32.3852 34.9601 31.914 35.0701 31.3276C35.18 30.7412 34.8711 30.2647 34.3842 30.2647C33.8972 30.2595 33.4208 30.7359 33.3161 31.3223Z" fill="#4F4848"/>
<path opacity="0.25" d="M42.1483 29.9497L42.4206 29.866L42.6248 28.7455H42.3682L42.1483 29.9497Z" fill="#231F20"/>
<path d="M47.316 27.2691L47.1327 28.2691L46.8552 28.3058L47.0437 27.2691H47.316Z" fill="#1C558A"/>
<path d="M47.044 27.2692L45.9916 27.2796L45.8083 28.3006L46.8555 28.3059L47.044 27.2692Z" fill="#1C558A"/>
<path opacity="0.2" d="M47.316 27.2691L47.1327 28.2691L46.8552 28.3058L47.0437 27.2691H47.316Z" fill="#231F20"/>
<path opacity="0.1" d="M47.044 27.2692L45.9916 27.2796L45.8083 28.3006L46.8555 28.3059L47.044 27.2692Z" fill="white"/>
<path d="M46.0229 27.777C45.9863 27.976 46.1381 28.1383 46.358 28.133C46.5832 28.133 46.7926 27.9655 46.8292 27.7665C46.8659 27.5676 46.714 27.4053 46.4941 27.4105C46.269 27.4157 46.0596 27.578 46.0229 27.777Z" fill="#F3B800"/>
<path d="M37.9541 27.3059L37.7865 28.2379L37.4043 28.2798L37.5771 27.3111L37.9541 27.3059Z" fill="#0A4982"/>
<path d="M37.5769 27.3115L36.6973 27.3167L36.5193 28.2854L37.4041 28.2801L37.5769 27.3115Z" fill="#0A4982"/>
<path opacity="0.1" d="M37.5769 27.3115L36.6973 27.3167L36.5193 28.2854L37.4041 28.2801L37.5769 27.3115Z" fill="white"/>
<path d="M36.713 27.8032C36.6764 27.9969 36.802 28.154 36.9853 28.154C37.1738 28.154 37.3518 27.9917 37.3885 27.798C37.4251 27.6042 37.2994 27.4472 37.1162 27.4472C36.9277 27.4472 36.7497 27.6042 36.713 27.8032Z" fill="#F3B800"/>
<path d="M47.4471 28.3482L48.8503 26.6622L48.7823 26.6203L47.3477 28.3482H47.4471Z" fill="#B2C5E4"/>
<path d="M48.3105 31.4627H49.0069C49.3158 31.4627 49.609 31.2376 49.6614 30.9601L50.8552 24.3682C50.9075 24.0907 50.6928 23.8708 50.3839 23.876L49.8289 23.8865C49.52 23.8917 49.2268 24.1221 49.1745 24.3944L48.4571 28.3369H48.5462L49.2635 24.3944C49.3054 24.164 49.5514 23.9703 49.8132 23.965L50.3682 23.9545C50.63 23.9493 50.808 24.1326 50.7661 24.3682L49.5724 30.9548C49.5305 31.1852 49.2844 31.3737 49.0226 31.3737H48.3263L48.3105 31.4627Z" fill="#898779"/>
<path d="M49.9135 31.5467C50.0235 31.5467 50.1334 31.5101 50.2277 31.442C50.3272 31.3687 50.3952 31.2745 50.4162 31.1645L51.7932 24.2166C51.8037 24.1642 51.8403 24.1171 51.8979 24.0857C51.9503 24.0543 52.0131 24.049 52.0655 24.07L52.3325 24.1695C52.4215 24.2009 52.4686 24.2847 52.4477 24.3737L51.5942 28.4262H51.6832L52.5367 24.3737C52.5629 24.248 52.5 24.138 52.3796 24.0909L52.1126 23.9914C52.034 23.9653 51.9398 23.9757 51.8613 24.0176C51.7775 24.0647 51.7199 24.138 51.7042 24.2166L50.3272 31.1645C50.3115 31.2483 50.2591 31.3268 50.1806 31.3844C50.102 31.442 50.0078 31.4682 49.9135 31.4682L49.5313 31.4525L49.5104 31.531L49.8926 31.5467C49.9031 31.5467 49.9083 31.5467 49.9135 31.5467Z" fill="#727065"/>
<path opacity="0.1" d="M49.4575 28.3793L49.3842 28.7929L35.5093 28.6934L35.5773 28.3112L49.4575 28.3793Z" fill="white"/>
<path d="M42.1496 29.95H41.3485L41.6365 28.353L42.4428 28.3426L42.1496 29.95Z" fill="#1C558A"/>
<path d="M41.6455 28.7292C41.6193 28.881 41.724 29.0015 41.8811 29.0015C42.0382 29.0015 42.19 28.8758 42.2162 28.7292C42.2424 28.5774 42.1377 28.4569 41.9806 28.4569C41.8235 28.4569 41.6769 28.5774 41.6455 28.7292Z" fill="#003866"/>
<path d="M41.5043 29.5363C41.4781 29.6882 41.5828 29.8086 41.7399 29.8086C41.8969 29.8086 42.0488 29.6882 42.075 29.5363C42.1011 29.3845 41.9964 29.2641 41.8393 29.2641C41.677 29.2588 41.5304 29.3845 41.5043 29.5363Z" fill="#003866"/>
<path d="M41.7453 28.7299C41.7243 28.8555 41.7976 28.955 41.918 28.9498C42.0332 28.9498 42.1484 28.8503 42.1694 28.7246C42.1903 28.599 42.117 28.4995 41.9966 28.5047C41.8814 28.5047 41.7662 28.6095 41.7453 28.7299Z" fill="#F42A41"/>
<path d="M41.5984 29.5313C41.5775 29.6569 41.6508 29.7564 41.7712 29.7512C41.8864 29.7512 42.0016 29.6517 42.0225 29.526C42.0435 29.4004 41.9701 29.3009 41.8497 29.3061C41.7345 29.3114 41.6194 29.4109 41.5984 29.5313Z" fill="#F42A41"/>
<path d="M58.1752 33.5775C58.1333 33.7713 58.0024 33.8341 57.8611 33.8236C57.7197 33.8132 57.6202 33.7451 57.6674 33.5514C57.7092 33.3576 58.0234 33.1273 58.0234 33.1273C58.0234 33.1273 58.2171 33.3838 58.1752 33.5775Z" fill="#006747"/>
<path d="M57.5629 35.3067C57.5472 35.5004 57.4267 35.579 57.2801 35.5894C57.1388 35.6051 57.0236 35.5475 57.0393 35.3538C57.055 35.1601 57.3377 34.8931 57.3377 34.8931C57.3377 34.8931 57.5786 35.113 57.5629 35.3067Z" fill="#006747"/>
<path d="M27.6046 58.9043L27.4214 58.3754C27.4214 58.3754 29.4581 56.0769 32.3274 57.9304L32.1441 58.7262H31.4006C31.4006 58.7262 30.1964 57.7628 28.1596 58.8624L27.6046 58.9043Z" fill="#3C354C"/>
<path d="M34.2746 85.5646C34.9224 85.5646 35.4475 85.0629 35.4475 84.4441C35.4475 83.8253 34.9224 83.3236 34.2746 83.3236C33.6269 83.3236 33.1018 83.8253 33.1018 84.4441C33.1018 85.0629 33.6269 85.5646 34.2746 85.5646Z" fill="#3C354C"/>
<path d="M25.5722 85.015C26.1968 85.015 26.7032 84.5321 26.7032 83.9365C26.7032 83.3408 26.1968 82.8579 25.5722 82.8579C24.9476 82.8579 24.4413 83.3408 24.4413 83.9365C24.4413 84.5321 24.9476 85.015 25.5722 85.015Z" fill="#3C354C"/>
<path d="M28.1691 58.3753H27.4257V65.627H28.1691V58.3753Z" fill="#3C354C"/>
<path d="M32.1483 58.3753H31.4048V65.627H32.1483V58.3753Z" fill="#3C354C"/>
<path d="M27.1482 64.3913C27.1482 64.3913 24.6455 64.4803 24.279 67.2186C23.9072 69.957 24.279 82.68 24.279 82.68C24.279 82.68 27.1482 84.7115 30.6719 84.4445C34.1956 84.1775 39.8346 83.2088 39.8346 83.2088V68.292C39.8346 66.0667 37.8869 64.2499 35.557 64.3756C35.5046 64.3756 35.4418 64.3808 35.3894 64.386L27.1482 64.3913Z" fill="#3C354C"/>
<path d="M30.7559 86.1151C31.4673 86.1151 32.0439 85.5642 32.0439 84.8847C32.0439 84.2051 31.4673 83.6542 30.7559 83.6542C30.0446 83.6542 29.4679 84.2051 29.4679 84.8847C29.4679 85.5642 30.0446 86.1151 30.7559 86.1151Z" fill="#3C354C"/>
<path d="M39.6989 85.2508C40.3929 85.2508 40.9555 84.714 40.9555 84.0518C40.9555 83.3896 40.3929 82.8528 39.6989 82.8528C39.0049 82.8528 38.4423 83.3896 38.4423 84.0518C38.4423 84.714 39.0049 85.2508 39.6989 85.2508Z" fill="#3C354C"/>
<g opacity="0.1">
<path opacity="0.1" d="M31.9859 65.6271H38.7453C37.9547 64.8051 36.8133 64.3077 35.5567 64.3757C35.5044 64.3757 35.4415 64.381 35.3892 64.3862H27.148C27.148 64.3862 24.6453 64.4752 24.2787 67.2136C23.907 69.9519 24.2787 82.6749 24.2787 82.6749C24.2787 82.6749 26.3312 84.12 29.0957 84.4132V68.5225C29.0905 66.9256 30.389 65.6271 31.9859 65.6271Z" fill="black"/>
</g>
<path d="M18.5664 36.591C20.1201 35.8317 20.7826 33.9945 20.0462 32.4876C19.3098 30.9807 17.4532 30.3746 15.8995 31.1339C14.3458 31.8932 13.6833 33.7303 14.4197 35.2373C15.1562 36.7442 17.0127 37.3503 18.5664 36.591Z" fill="#FCB381"/>
<path d="M15.1673 35.4329C15.1673 35.4329 16.1987 37.8361 14.4814 38.166C14.183 38.543 14.8741 38.9618 14.7065 39.4069L20.8691 39.7891L19.602 37.6948C19.602 37.6948 18.7015 36.4853 18.8114 35.6004C18.9214 34.7156 15.1673 35.4329 15.1673 35.4329Z" fill="#FCB381"/>
<path d="M17.3303 31.9302C17.3303 31.9302 19.0162 30.9406 18.9167 30.4222C18.8172 29.8987 18.8748 29.3855 18.7492 29.4431C18.6235 29.506 18.3984 29.2075 18.3984 29.2075C18.3984 29.2075 18.2413 29.2023 18.2099 29.3018C18.1785 29.4013 17.8591 28.9038 17.8591 28.9038C17.8591 28.9038 17.702 28.7363 17.702 28.8986C17.702 29.0609 17.6706 28.9929 17.5135 28.8305C17.3565 28.663 16.9795 28.6839 16.9795 28.6839C16.9795 28.6839 15.8224 29.3279 15.5082 29.1604C15.1941 28.9876 13.1626 30.2233 12.8851 30.7678C12.6076 31.3123 11.2462 33.4433 12.0421 34.2758C12.8379 35.1083 15.0265 36.7314 15.1836 37.0613C15.3459 37.3911 15.7491 37.1084 15.7124 36.7209C15.6758 36.3335 16.4821 35.4486 16.3878 35.2497C16.2936 35.0507 16.0475 33.7051 16.3512 33.48C16.7491 33.192 17.5973 33.7575 17.6235 33.5009C17.6497 33.2443 17.3303 31.9302 17.3303 31.9302Z" fill="#2F2E41"/>
<path d="M21.7383 83.6595C21.7383 83.6595 22.0577 84.3244 22.8954 84.958C23.2933 85.2564 24.6965 85.4606 25.4348 85.3297C26.173 85.1936 27.5186 86.5392 26.44 86.9424C25.3667 87.3455 19.3193 88.466 18.6491 88.0838C17.581 87.4764 18.513 84.3244 18.513 84.3244L21.7383 83.6595Z" fill="#2F2E41"/>
<path d="M10.9163 83.136C10.9163 83.136 10.8168 83.8429 11.5656 84.5759C11.9949 84.9947 13.796 85.4084 14.5447 85.4031C15.2935 85.3979 16.3878 86.9477 15.2621 87.1624C14.1363 87.377 7.99996 88.0786 7.38737 86.9582C6.62817 85.5654 7.89524 83.2303 7.89524 83.2303L10.9163 83.136Z" fill="#2F2E41"/>
<path d="M10.5866 45.8928C10.5866 45.8928 9.04205 49.8563 10.5866 53.6837C12.1312 57.5111 12.8014 58.1184 12.8014 58.1184L13.2726 53.0815L12.7333 52.5894C12.7333 52.5894 12.4035 51.0605 12.6705 50.1547C12.9375 49.2489 12.5343 46.4268 12.5343 46.4268L10.5866 45.8928Z" fill="#FCB381"/>
<path d="M12.1471 41.0823L11.6812 41.4541C11.2937 41.763 11.0476 42.2185 11.0057 42.7159C10.9586 43.2552 10.8748 43.9254 10.723 44.1505C10.456 44.5537 9.98475 46.6375 10.2518 46.7056C10.5188 46.7737 12.9378 47.1768 12.9378 47.1768L13.0739 44.0877L12.1471 41.0823Z" fill="#079D49"/>
<path d="M12.1471 41.0823L11.6812 41.4541C11.2937 41.763 11.0476 42.2185 11.0057 42.7159C10.9586 43.2552 10.8748 43.9254 10.723 44.1505C10.456 44.5537 9.98475 46.6375 10.2518 46.7056C10.5188 46.7737 12.9378 47.1768 12.9378 47.1768L13.0739 44.0877L12.1471 41.0823Z" fill="#006747"/>
<path d="M22.1418 54.4905C22.1418 54.4905 24.0895 58.9252 23.8905 61.0719C23.6916 63.2238 22.1418 72.2923 22.1418 72.2923C22.1418 72.2923 22.3407 83.9787 21.7386 83.9787C21.1365 83.9787 18.2463 85.052 18.2463 84.3138C18.2463 83.5755 17.6442 65.8418 17.6442 65.8418C17.6442 65.8418 14.9216 73.8159 14.5812 74.418C14.2462 75.0202 12.1361 84.3138 11.3926 84.3138C10.6544 84.3138 7.6333 83.6436 7.83227 83.1723C8.03123 82.7011 10.3193 72.2242 11.5916 69.533C12.8691 66.847 12.5969 56.7 12.5969 56.7L14.7488 51.9982L22.1418 54.4905Z" fill="#3F3D56"/>
<path opacity="0.1" d="M11.5181 44.6536C11.1359 43.4494 11.3558 42.1352 12.1097 41.1195C12.9579 39.9833 14.0313 38.6534 14.4868 38.5382C15.0784 38.3916 16.2094 38.0617 16.7748 37.8994C17 37.8314 17.2304 37.8209 17.466 37.8575C18.021 37.9518 19.0734 38.1455 19.4608 38.3392C20.0001 38.6063 22.0159 39.0775 22.0787 39.8838C22.1468 40.6901 21.5394 48.413 21.8798 49.1564C22.2149 49.8947 23.3563 56.9474 22.8222 56.8165C22.2829 56.6803 19.288 57.9998 17.7854 58.1149C15.9005 58.2563 12.4762 58.0259 12.4762 58.0259C12.4134 57.4866 12.3244 56.9474 12.2092 56.4133C12.0102 55.4708 12.7485 53.188 12.7485 53.188C12.7485 53.188 12.6804 47.8789 12.4134 47.2768C12.2616 46.9574 11.8636 45.7375 11.5181 44.6536Z" fill="black"/>
<path d="M11.5181 44.2805C11.1359 43.0763 11.3558 41.7621 12.1097 40.7463C12.9579 39.6102 13.649 38.3588 14.8481 38.0708C15.4397 37.9295 16.2146 37.6886 16.7748 37.5263C17 37.4582 17.2304 37.4478 17.466 37.4844C18.021 37.5787 19.2409 37.6048 20.4975 37.7672C21.1625 37.8509 22.0159 38.7044 22.084 39.5107C22.152 40.317 21.5447 48.0399 21.885 48.7833C22.2201 49.5216 23.3615 56.5743 22.8275 56.4434C22.2882 56.3072 19.2933 57.6266 17.7906 57.7418C15.9057 57.8832 12.4815 57.6528 12.4815 57.6528C12.4186 57.1135 12.3296 56.5742 12.2144 56.0402C12.0155 55.0977 12.7537 52.8149 12.7537 52.8149C12.7537 52.8149 12.6857 47.5058 12.4186 46.9037C12.2616 46.5843 11.8636 45.3696 11.5181 44.2805Z" fill="#006747"/>
<path d="M22.2047 37.3594C22.2047 37.3594 25.7598 34.7363 26.0792 34.1865C26.3986 33.6367 32.2784 28.6522 32.2784 28.6522L33.0952 29.9926C33.0952 29.9926 28.362 36.9353 27.6447 37.307C26.9327 37.684 23.8331 40.4485 23.8331 40.4485L22.2047 37.3594Z" fill="#FCB381"/>
<path d="M21.9274 43.0616L19.8698 38.1347C19.8698 38.1347 23.2364 36.1189 23.8071 36.2079C24.3778 36.3022 25.5559 40.2133 25.4093 40.3599C25.2574 40.5118 22.5557 41.3495 21.9274 43.0616Z" fill="#006747"/>
<path d="M12.131 41.8049C12.131 41.8049 12.11 41.5221 11.7959 41.2342C11.7959 41.2342 11.7173 40.6321 12.131 40.0718C12.5446 39.5116 13.0734 39.5063 13.0734 39.5063C13.0734 39.5063 13.4923 39.7577 13.6389 40.2917C13.7855 40.8258 12.843 42.2447 12.131 41.8049Z" fill="#DA924E"/>
<path d="M18.9226 39.6683C18.9226 39.6683 18.8755 38.4327 19.2315 37.9405C19.5875 37.4483 20.7708 37.2337 20.8756 37.3646C20.9803 37.4902 20.1844 39.0348 20.708 40.4537L20.0588 41.7888L18.9226 39.6683Z" fill="#DA924E"/>
<path d="M19.9894 39.5109C19.9894 39.5109 13.3504 39.4481 12.3713 40.8984C11.5179 42.1602 12.5912 42.7466 13.5127 43.6681C14.0206 44.176 11.7849 49.4485 12.5493 53.7314C12.9525 55.9933 22.267 55.2393 22.4346 54.0508C22.6021 52.8623 23.0105 47.1604 21.0942 43.6681C21.0942 43.6681 21.2513 40.1235 19.9894 39.5109Z" fill="#DA924E"/>
<path opacity="0.15" d="M19.99 39.5107C19.99 39.5107 13.3824 39.4269 12.3247 40.9506C11.4556 42.1967 12.9059 43.0606 13.5133 43.668C14.0211 44.1758 11.7854 49.4483 12.5499 53.7312C12.953 55.9931 22.2676 55.2391 22.4351 54.0506C22.6027 52.8621 23.011 47.1602 21.0947 43.668C21.0947 43.668 21.2518 40.1233 19.99 39.5107Z" fill="black"/>
<path d="M19.4301 39.7053C19.4301 39.7053 13.4665 39.9043 12.5031 41.0823C11.5397 42.2604 12.4822 43.6636 12.3199 44.5223C12.2518 44.8731 11.0319 49.4544 11.7963 53.7373C12.1994 55.9992 21.514 55.2453 21.6815 54.0567C21.8491 52.8682 22.2575 47.1664 20.3412 43.6741C20.3464 43.6688 20.692 40.3179 19.4301 39.7053Z" fill="#DA924E"/>
<path opacity="0.15" d="M13.2784 49.3173C13.2784 49.3173 13.2104 51.6891 13.6502 52.0033C14.09 52.3174 19.3782 52.3017 19.6557 52.0033C19.9332 51.7048 19.4305 48.6838 19.4305 48.6838C19.4305 48.6838 20.4201 51.93 19.8703 52.5426C19.3206 53.1552 13.5088 52.8777 13.2732 52.5426C13.0323 52.2075 13.2784 49.3173 13.2784 49.3173Z" fill="black"/>
<path opacity="0.15" d="M13.6489 48.9302L19.4293 48.794C19.4293 48.794 15.0992 48.4903 13.6489 48.9302Z" fill="black"/>
<path opacity="0.15" d="M16.2052 49.8357C16.3932 49.8357 16.5455 49.6834 16.5455 49.4954C16.5455 49.3075 16.3932 49.1551 16.2052 49.1551C16.0172 49.1551 15.8649 49.3075 15.8649 49.4954C15.8649 49.6834 16.0172 49.8357 16.2052 49.8357Z" fill="black"/>
<path opacity="0.15" d="M13.8164 43.4585C13.8164 43.4585 13.8007 45.1287 14.1149 45.3434C14.429 45.558 18.1465 45.4743 18.3402 45.2648C18.5339 45.0554 18.1412 42.9297 18.1412 42.9297C18.1412 42.9297 18.8795 45.202 18.5025 45.6366C18.1255 46.0764 14.0311 45.956 13.8583 45.7256C13.6855 45.4952 13.8164 43.4585 13.8164 43.4585Z" fill="black"/>
<path opacity="0.15" d="M14.0737 43.1823L18.142 43.0095C18.142 43.0095 15.0895 42.8525 14.0737 43.1823Z" fill="black"/>
<path opacity="0.15" d="M15.8804 43.7829C16.0134 43.7829 16.1212 43.6751 16.1212 43.5421C16.1212 43.4091 16.0134 43.3012 15.8804 43.3012C15.7474 43.3012 15.6395 43.4091 15.6395 43.5421C15.6395 43.6751 15.7474 43.7829 15.8804 43.7829Z" fill="black"/>
<path d="M21.8386 43.7833L22.1265 46.5583L22.5821 50.794C22.5821 50.794 23.3098 45.1393 22.4826 42.1602C22.4878 42.1602 21.7391 42.9298 21.8386 43.7833Z" fill="#4C495E"/>
<path opacity="0.15" d="M21.8384 43.7833L22.1264 46.5583L22.5819 50.794C22.5819 50.794 23.3097 45.1393 22.4825 42.1602C22.4877 42.1602 21.7599 42.8827 21.8384 43.7833Z" fill="black"/>
<path d="M21.8384 43.7833L22.1263 46.5583L22.5819 50.794C22.5819 50.794 23.3096 45.1393 22.4824 42.1602C22.4876 42.1602 21.7965 42.7413 21.8384 43.7833Z" fill="#DA924E"/>
<path d="M31.8915 28.8557C31.8915 28.8557 32.4937 26.5572 33.0801 26.332C33.6665 26.1069 33.8707 26.1121 33.9859 25.9393C34.1011 25.7718 35.2058 24.7089 35.2372 25.065C35.2686 25.421 34.478 26.2168 34.5147 26.4734C34.5513 26.73 35.4833 27.3425 35.1273 27.9499C34.6194 28.819 33.1586 29.9762 32.7345 30.4055C32.3104 30.8453 31.2475 29.8139 31.8915 28.8557Z" fill="#FCB381"/>
</svg>
